<svg width="185" height="54" viewBox="0 0 185 54" fill="none" xmlns="http://www.w3.org/2000/svg">
<path d="M183.972 47.7721C183.972 50.6498 181.617 52.9808 178.704 52.9808H6.30283C3.39121 52.9808 1.02783 50.6498 1.02783 47.7721V6.23409C1.02783 3.35773 3.39121 1.01855 6.30283 1.01855H178.703C181.617 1.01855 183.971 3.35773 183.971 6.23409L183.972 47.7721Z" fill="#161616"/>
<path d="M178.148 1.08169C181.321 1.08169 183.902 3.62475 183.902 6.75V47.25C183.902 50.3753 181.321 52.9183 178.148 52.9183H6.85185C3.67944 52.9183 1.09801 50.3753 1.09801 47.25V6.75C1.09801 3.62475 3.67944 1.08169 6.85185 1.08169H178.148ZM178.148 3.8147e-06H6.85185C3.08505 3.8147e-06 0 3.03919 0 6.75V47.25C0 50.9608 3.08505 54 6.85185 54H178.148C181.915 54 185 50.9608 185 47.25V6.75C185 3.03919 181.915 3.8147e-06 178.148 3.8147e-06Z" fill="#F0F0F0"/>
<path d="M41.2867 26.708C41.2469 22.357 44.9031 20.2402 45.0702 20.1416C42.9996 17.1676 39.7902 16.7612 38.6624 16.7288C35.9669 16.4494 33.3522 18.3178 31.9791 18.3178C30.5786 18.3178 28.4641 16.7558 26.1852 16.8017C23.2526 16.8463 20.5091 18.5189 19.0044 21.1163C15.8992 26.4124 18.2151 34.1951 21.1902 38.476C22.6784 40.5725 24.4174 42.9134 26.6936 42.8311C28.9204 42.7406 29.7522 41.4325 32.4395 41.4325C35.1022 41.4325 35.8833 42.8311 38.2047 42.7784C40.5946 42.7406 42.0993 40.6724 43.5354 38.557C45.2552 36.154 45.9459 33.7874 45.9733 33.6659C45.9171 33.647 41.3319 31.9231 41.2867 26.708Z" fill="white"/>
<path d="M36.9015 13.9127C38.0992 12.4372 38.9187 10.4297 38.6912 8.39258C36.9577 8.46818 34.7897 9.57383 33.5413 11.017C32.4368 12.2887 31.4501 14.3731 31.705 16.3333C33.6523 16.4764 35.6517 15.3653 36.9015 13.9127Z" fill="white"/>
<path d="M67.2164 13.5122C67.2164 15.1012 66.7327 16.2973 65.7666 17.1005C64.8717 17.8417 63.6 18.2129 61.9528 18.2129C61.1361 18.2129 60.4372 18.1778 59.8521 18.1076V9.42579C60.6153 9.30429 61.4376 9.24219 62.3256 9.24219C63.8946 9.24219 65.0773 9.57834 65.8748 10.2506C66.7683 11.0107 67.2164 12.0974 67.2164 13.5122ZM65.7022 13.5514C65.7022 12.5213 65.4254 11.7316 64.8717 11.1808C64.3181 10.6313 63.5096 10.3559 62.4448 10.3559C61.9926 10.3559 61.6075 10.3856 61.2882 10.4477V17.0479C61.465 17.0749 61.7884 17.087 62.2584 17.087C63.3575 17.087 64.2057 16.786 64.8032 16.1839C65.4007 15.5818 65.7022 14.7043 65.7022 13.5514Z" fill="white"/>
<path d="M75.2455 14.8995C75.2455 15.8783 74.9618 16.6802 74.3945 17.3093C73.7997 17.9559 73.0118 18.2786 72.0278 18.2786C71.0795 18.2786 70.3245 17.9694 69.7612 17.3484C69.1994 16.7288 68.9185 15.9471 68.9185 15.0048C68.9185 14.0193 69.2076 13.2107 69.7886 12.5829C70.3697 11.9552 71.1508 11.6406 72.1347 11.6406C73.083 11.6406 73.8449 11.9498 74.4219 12.5694C74.97 13.1715 75.2455 13.9491 75.2455 14.8995ZM73.7559 14.9454C73.7559 14.3582 73.6271 13.8546 73.3708 13.4348C73.0693 12.9272 72.6404 12.6734 72.0826 12.6734C71.5057 12.6734 71.0672 12.9272 70.7657 13.4348C70.5081 13.8546 70.3806 14.3663 70.3806 14.9711C70.3806 15.5583 70.5095 16.0619 70.7657 16.4817C71.0768 16.9893 71.5098 17.2431 72.0689 17.2431C72.6171 17.2431 73.0474 16.9853 73.3571 16.4682C73.6229 16.0403 73.7559 15.5327 73.7559 14.9454Z" fill="white"/>
<path d="M86.011 11.7705L83.9897 18.1344H82.6741L81.8368 15.371C81.6244 14.6811 81.4518 13.9953 81.3175 13.3149H81.2914C81.1667 14.0142 80.9941 14.6987 80.7721 15.371L79.8827 18.1344H78.5521L76.6514 11.7705H78.1273L78.8577 14.7959C79.0344 15.5114 79.1797 16.1931 79.2962 16.8384H79.3222C79.4291 16.3065 79.6059 15.6288 79.8553 14.8094L80.7721 11.7719H81.9424L82.8208 14.7446C83.0332 15.4695 83.2058 16.1675 83.3388 16.8398H83.3785C83.4758 16.185 83.6224 15.4871 83.817 14.7446L84.6009 11.7719H86.011V11.7705Z" fill="white"/>
<path d="M93.4563 18.1343H92.0202V14.4893C92.0202 13.3661 91.5871 12.8045 90.7183 12.8045C90.2921 12.8045 89.9482 12.9584 89.6809 13.2675C89.4165 13.5767 89.2822 13.9412 89.2822 14.3583V18.1329H87.846V13.5888C87.846 13.0299 87.8282 12.4238 87.7939 11.7677H89.0561L89.1232 12.7626H89.1629C89.3301 12.4535 89.5795 12.1983 89.9071 11.9945C90.2962 11.7569 90.732 11.6367 91.2089 11.6367C91.8119 11.6367 92.3134 11.8284 92.7122 12.2132C93.2083 12.6843 93.4563 13.3877 93.4563 14.3219V18.1343Z" fill="white"/>
<path d="M97.4167 18.1345H95.9819V8.85059H97.4167V18.1345Z" fill="white"/>
<path d="M105.872 14.8995C105.872 15.8783 105.588 16.6802 105.021 17.3093C104.426 17.9559 103.637 18.2786 102.654 18.2786C101.705 18.2786 100.95 17.9694 100.388 17.3484C99.8258 16.7288 99.5449 15.9471 99.5449 15.0048C99.5449 14.0193 99.8341 13.2107 100.415 12.5829C100.996 11.9552 101.777 11.6406 102.76 11.6406C103.709 11.6406 104.47 11.9498 105.048 12.5694C105.596 13.1715 105.872 13.9491 105.872 14.8995ZM104.381 14.9454C104.381 14.3582 104.252 13.8546 103.996 13.4348C103.696 12.9272 103.265 12.6734 102.709 12.6734C102.131 12.6734 101.692 12.9272 101.392 13.4348C101.135 13.8546 101.007 14.3663 101.007 14.9711C101.007 15.5583 101.136 16.0619 101.392 16.4817C101.703 16.9893 102.136 17.2431 102.695 17.2431C103.244 17.2431 103.672 16.9853 103.982 16.4682C104.249 16.0403 104.381 15.5327 104.381 14.9454Z" fill="white"/>
<path d="M112.822 18.1341H111.533L111.426 17.4011H111.386C110.945 17.9856 110.316 18.2786 109.499 18.2786C108.889 18.2786 108.396 18.0855 108.025 17.7021C107.688 17.3538 107.519 16.9205 107.519 16.4061C107.519 15.6285 107.848 15.0359 108.51 14.6255C109.17 14.2151 110.099 14.0139 111.296 14.0234V13.9046C111.296 13.0662 110.849 12.6477 109.954 12.6477C109.317 12.6477 108.755 12.8057 108.27 13.1189L107.978 12.1901C108.578 11.8242 109.32 11.6406 110.194 11.6406C111.882 11.6406 112.729 12.5181 112.729 14.2731V16.6167C112.729 17.2526 112.761 17.7588 112.822 18.1341ZM111.331 15.9471V14.9657C109.747 14.9387 108.955 15.3666 108.955 16.2482C108.955 16.5803 109.046 16.8287 109.231 16.9947C109.416 17.1608 109.651 17.2431 109.932 17.2431C110.247 17.2431 110.542 17.1446 110.811 16.9488C111.081 16.7517 111.246 16.502 111.308 16.1955C111.323 16.1267 111.331 16.043 111.331 15.9471Z" fill="white"/>
<path d="M120.983 18.1345H119.708L119.641 17.1126H119.601C119.194 17.8902 118.501 18.279 117.527 18.279C116.748 18.279 116.1 17.9779 115.586 17.3758C115.072 16.7737 114.816 15.9921 114.816 15.0322C114.816 14.0022 115.094 13.1679 115.653 12.5307C116.195 11.9367 116.858 11.6397 117.647 11.6397C118.515 11.6397 119.122 11.9272 119.467 12.5037H119.494V8.85059H120.932V16.42C120.932 17.0397 120.948 17.6107 120.983 18.1345ZM119.494 15.4507V14.3896C119.494 14.206 119.481 14.0575 119.455 13.9441C119.374 13.6039 119.2 13.3177 118.935 13.0869C118.668 12.856 118.346 12.7399 117.975 12.7399C117.439 12.7399 117.019 12.9492 116.711 13.369C116.406 13.7889 116.251 14.3248 116.251 14.9796C116.251 15.6087 116.397 16.119 116.692 16.5118C117.003 16.9303 117.422 17.1396 117.947 17.1396C118.419 17.1396 118.795 16.9654 119.082 16.6158C119.359 16.2931 119.494 15.9043 119.494 15.4507Z" fill="white"/>
<path d="M133.265 14.8995C133.265 15.8783 132.982 16.6802 132.414 17.3093C131.82 17.9559 131.033 18.2786 130.048 18.2786C129.101 18.2786 128.346 17.9694 127.781 17.3484C127.219 16.7288 126.938 15.9471 126.938 15.0048C126.938 14.0193 127.228 13.2107 127.809 12.5829C128.39 11.9552 129.171 11.6406 130.156 11.6406C131.103 11.6406 131.866 11.9498 132.442 12.5694C132.99 13.1715 133.265 13.9491 133.265 14.8995ZM131.777 14.9454C131.777 14.3582 131.648 13.8546 131.392 13.4348C131.089 12.9272 130.662 12.6734 130.103 12.6734C129.527 12.6734 129.089 12.9272 128.786 13.4348C128.528 13.8546 128.401 14.3663 128.401 14.9711C128.401 15.5583 128.529 16.0619 128.786 16.4817C129.097 16.9893 129.53 17.2431 130.089 17.2431C130.637 17.2431 131.069 16.9853 131.378 16.4682C131.643 16.0403 131.777 15.5327 131.777 14.9454Z" fill="white"/>
<path d="M140.988 18.1343H139.553V14.4893C139.553 13.3661 139.12 12.8045 138.25 12.8045C137.823 12.8045 137.48 12.9584 137.214 13.2675C136.948 13.5767 136.815 13.9412 136.815 14.3583V18.1329H135.377V13.5888C135.377 13.0299 135.361 12.4238 135.327 11.7677H136.587L136.655 12.7626H136.694C136.863 12.4535 137.112 12.1983 137.438 11.9945C137.829 11.7569 138.263 11.6367 138.742 11.6367C139.343 11.6367 139.845 11.8284 140.244 12.2132C140.741 12.6843 140.988 13.3877 140.988 14.3219V18.1343Z" fill="white"/>
<path d="M150.653 12.8302H149.071V15.9217C149.071 16.7074 149.352 17.1002 149.908 17.1002C150.166 17.1002 150.38 17.0786 150.548 17.0341L150.585 18.1073C150.302 18.2126 149.929 18.2653 149.47 18.2653C148.903 18.2653 148.461 18.0952 148.142 17.755C147.821 17.4148 147.662 16.8424 147.662 16.0391V12.8302H146.718V11.7704H147.662V10.604L149.07 10.1855V11.7691H150.651V12.8302H150.653Z" fill="white"/>
<path d="M158.255 18.1345H156.818V14.5165C156.818 13.3758 156.385 12.8047 155.517 12.8047C154.851 12.8047 154.396 13.1355 154.147 13.797C154.104 13.936 154.08 14.1061 154.08 14.3059V18.1332H152.645V8.85059H154.08V12.6859H154.107C154.559 11.988 155.208 11.6397 156.048 11.6397C156.642 11.6397 157.134 11.8314 157.525 12.2161C158.011 12.6954 158.255 13.4082 158.255 14.3505V18.1345Z" fill="white"/>
<path d="M166.098 14.6516C166.098 14.9054 166.079 15.1187 166.045 15.2928H161.738C161.757 15.9219 161.962 16.4012 162.361 16.7333C162.726 17.0303 163.196 17.1788 163.771 17.1788C164.409 17.1788 164.99 17.0789 165.513 16.8777L165.738 17.8605C165.125 18.1224 164.404 18.2534 163.57 18.2534C162.569 18.2534 161.782 17.9631 161.211 17.3826C160.639 16.8021 160.355 16.0232 160.355 15.0458C160.355 14.0859 160.619 13.2867 161.153 12.6495C161.709 11.9691 162.461 11.6289 163.411 11.6289C164.34 11.6289 165.046 11.9691 165.523 12.6495C165.908 13.1895 166.098 13.8578 166.098 14.6516ZM164.728 14.2857C164.739 13.8659 164.644 13.5041 164.45 13.199C164.2 12.8061 163.821 12.609 163.307 12.609C162.838 12.609 162.456 12.8007 162.164 13.1855C161.925 13.4919 161.784 13.8578 161.738 14.2857H164.728Z" fill="white"/>
<path d="M73.5133 42.5312H70.4012L68.6964 37.2541H62.771L61.1471 42.5312H58.1172L63.9879 24.5654H67.6139L73.5133 42.5312ZM68.1826 35.0401L66.6409 30.3488C66.4778 29.8696 66.1722 28.741 65.7214 26.9644H65.6666C65.487 27.7285 65.1979 28.8571 64.8005 30.3488L63.2862 35.0401H68.1826Z" fill="white"/>
<path d="M88.6109 35.8945C88.6109 38.0977 88.0065 39.8392 86.7979 41.1176C85.7153 42.2557 84.3709 42.824 82.7662 42.824C81.0341 42.824 79.7898 42.2111 79.032 40.9853H78.9772V47.8096H76.0555V33.8411C76.0555 32.456 76.0185 31.0345 75.9473 29.5765H78.5167L78.6798 31.6298H78.7346C79.7089 30.0827 81.1876 29.3105 83.1719 29.3105C84.7231 29.3105 86.0181 29.914 87.0541 31.1222C88.0929 32.3318 88.6109 33.9221 88.6109 35.8945ZM85.6344 35.9998C85.6344 34.7389 85.3466 33.6994 84.7683 32.8813C84.1366 32.0281 83.2883 31.6015 82.2249 31.6015C81.5041 31.6015 80.8491 31.8391 80.2639 32.3075C79.6774 32.78 79.2937 33.397 79.1142 34.1611C79.0237 34.5175 78.9785 34.8091 78.9785 35.0386V37.1986C78.9785 38.1409 79.2718 38.936 79.8583 39.5854C80.4448 40.2347 81.2067 40.5587 82.1441 40.5587C83.2445 40.5587 84.101 40.1402 84.7135 39.3059C85.3274 38.4703 85.6344 37.3687 85.6344 35.9998Z" fill="white"/>
<path d="M103.735 35.8945C103.735 38.0977 103.131 39.8392 101.921 41.1176C100.84 42.2557 99.4955 42.824 97.8908 42.824C96.1587 42.824 94.9144 42.2111 94.1579 40.9853H94.1031V47.8096H91.1815V33.8411C91.1815 32.456 91.1445 31.0345 91.0732 29.5765H93.6427L93.8058 31.6298H93.8606C94.8335 30.0827 96.3122 29.3105 98.2978 29.3105C99.8477 29.3105 101.143 29.914 102.181 31.1222C103.216 32.3318 103.735 33.9221 103.735 35.8945ZM100.759 35.9998C100.759 34.7389 100.47 33.6994 99.8916 32.8813C99.2598 32.0281 98.4143 31.6015 97.3495 31.6015C96.6274 31.6015 95.9737 31.8391 95.3872 32.3075C94.8007 32.78 94.4183 33.397 94.2388 34.1611C94.1497 34.5175 94.1031 34.8091 94.1031 35.0386V37.1986C94.1031 38.1409 94.3964 38.936 94.9802 39.5854C95.5667 40.2334 96.3286 40.5587 97.2687 40.5587C98.3691 40.5587 99.2256 40.1402 99.8381 39.3059C100.452 38.4703 100.759 37.3687 100.759 35.9998Z" fill="white"/>
<path d="M120.646 37.4926C120.646 39.0208 120.107 40.2642 119.026 41.224C117.838 42.273 116.184 42.7968 114.058 42.7968C112.096 42.7968 110.523 42.4242 109.332 41.6776L110.009 39.2787C111.292 40.0428 112.699 40.4262 114.232 40.4262C115.333 40.4262 116.189 40.1805 116.805 39.6918C117.417 39.2031 117.723 38.547 117.723 37.7289C117.723 36.9999 117.471 36.3856 116.965 35.8875C116.462 35.3893 115.622 34.9263 114.449 34.4983C111.256 33.3252 109.661 31.6066 109.661 29.3467C109.661 27.8698 110.22 26.6589 111.34 25.7166C112.455 24.7729 113.943 24.3018 115.804 24.3018C117.464 24.3018 118.842 24.5866 119.943 25.155L119.212 27.5013C118.185 26.9505 117.023 26.6751 115.722 26.6751C114.694 26.6751 113.891 26.9248 113.316 27.4216C112.829 27.8658 112.585 28.4071 112.585 29.0484C112.585 29.7585 112.863 30.3457 113.423 30.8074C113.909 31.234 114.793 31.6957 116.076 32.1939C117.645 32.8162 118.797 33.5439 119.539 34.3782C120.277 35.2098 120.646 36.2506 120.646 37.4926Z" fill="white"/>
<path d="M130.305 31.7365H127.085V38.0261C127.085 39.6259 127.652 40.4251 128.79 40.4251C129.312 40.4251 129.745 40.3805 130.087 40.2914L130.168 42.4771C129.593 42.689 128.835 42.7957 127.896 42.7957C126.742 42.7957 125.841 42.4487 125.19 41.7562C124.542 41.0623 124.215 39.8986 124.215 38.2637V31.7338H122.297V29.5738H124.215V27.2018L127.085 26.3486V29.5738H130.305V31.7365Z" fill="white"/>
<path d="M144.836 35.9468C144.836 37.938 144.257 39.5729 143.104 40.8513C141.893 42.1676 140.287 42.8237 138.285 42.8237C136.356 42.8237 134.82 42.1932 133.674 40.9323C132.528 39.6714 131.956 38.0798 131.956 36.1614C131.956 34.154 132.545 32.5097 133.727 31.2312C134.907 29.9514 136.5 29.3115 138.502 29.3115C140.431 29.3115 141.984 29.942 143.156 31.2042C144.277 32.4287 144.836 34.0095 144.836 35.9468ZM141.804 36.0399C141.804 34.8452 141.545 33.8205 141.021 32.966C140.408 31.9319 139.532 31.4162 138.398 31.4162C137.223 31.4162 136.331 31.9332 135.719 32.966C135.194 33.8219 134.935 34.8627 134.935 36.0939C134.935 37.2887 135.194 38.3133 135.719 39.1665C136.35 40.2006 137.233 40.7163 138.372 40.7163C139.487 40.7163 140.363 40.1898 140.995 39.1395C141.533 38.2688 141.804 37.2333 141.804 36.0399Z" fill="white"/>
<path d="M154.332 32.1077C154.043 32.0551 153.735 32.0281 153.411 32.0281C152.384 32.0281 151.589 32.4101 151.03 33.1756C150.543 33.8506 150.299 34.7038 150.299 35.7338V42.5311H147.379L147.407 33.6562C147.407 32.1631 147.37 30.8036 147.297 29.5778H149.842L149.949 32.0564H150.029C150.338 31.2046 150.824 30.5188 151.49 30.0044C152.141 29.5414 152.844 29.3105 153.602 29.3105C153.872 29.3105 154.116 29.3294 154.332 29.3632V32.1077Z" fill="white"/>
<path d="M167.398 35.4408C167.398 35.9565 167.364 36.3912 167.292 36.7462H158.527C158.561 38.026 158.984 39.0048 159.798 39.6798C160.537 40.2832 161.492 40.5856 162.665 40.5856C163.963 40.5856 165.147 40.3818 166.212 39.9727L166.669 41.9707C165.425 42.5053 163.956 42.7713 162.261 42.7713C160.222 42.7713 158.621 42.18 157.456 40.9987C156.294 39.8175 155.712 38.2312 155.712 36.2413C155.712 34.2879 156.253 32.6611 157.337 31.3638C158.472 29.9787 160.005 29.2861 161.935 29.2861C163.83 29.2861 165.265 29.9787 166.239 31.3638C167.011 32.464 167.398 33.8248 167.398 35.4408ZM164.612 34.6942C164.632 33.841 164.441 33.1039 164.045 32.4816C163.539 31.681 162.762 31.2814 161.717 31.2814C160.762 31.2814 159.985 31.6716 159.391 32.4546C158.905 33.0769 158.616 33.8235 158.527 34.6929H164.612V34.6942Z" fill="white"/>
</svg>
