<svg width="28" height="20" viewBox="0 0 28 20" fill="none" xmlns="http://www.w3.org/2000/svg">
<g clip-path="url(#clip0_14274_21435)">
<path d="M32 0H0V20H32V0Z" fill="#FAFDFF"/>
<path d="M32 0H0V1.53895H32V0Z" fill="#B22234"/>
<path d="M32 3.07812H0V4.61707H32V3.07812Z" fill="#B22234"/>
<path d="M32 6.15234H0V7.69129H32V6.15234Z" fill="#B22234"/>
<path d="M32 9.23047H0V10.7694H32V9.23047Z" fill="#B22234"/>
<path d="M32 12.3086H0V13.8475H32V12.3086Z" fill="#B22234"/>
<path d="M32 15.3828H0V16.9218H32V15.3828Z" fill="#B22234"/>
<path d="M32 18.4609H0V19.9999H32V18.4609Z" fill="#B22234"/>
<path d="M12.8 0H0V10.7695H12.8V0Z" fill="#3C3B6E"/>
<path d="M0.600586 0.98259L0.905653 1.20154L0.789386 1.55522L1.09339 1.33627L1.39845 1.55522L1.28219 1.20154L1.58725 0.98259H1.21072L1.09339 0.628906L0.977119 0.98259H0.600586Z" fill="#FAFDFF"/>
<path d="M2.72363 0.98259L3.0287 1.20154L2.91243 1.55522L3.2175 1.33627L3.52257 1.55522L3.40523 1.20154L3.7103 0.98259H3.33377L3.2175 0.628906L3.10123 0.98259H2.72363Z" fill="#FAFDFF"/>
<path d="M4.84668 0.98259L5.15175 1.20154L5.03441 1.55522L5.33948 1.33627L5.64455 1.55522L5.52828 1.20154L5.83335 0.98259H5.45575L5.33948 0.628906L5.22321 0.98259H4.84668Z" fill="#FAFDFF"/>
<path d="M6.96777 0.98259L7.27284 1.20154L7.15657 1.55522L7.46164 1.33627L7.76671 1.55522L7.64937 1.20154L7.95444 0.98259H7.57791L7.46164 0.628906L7.34537 0.98259H6.96777Z" fill="#FAFDFF"/>
<path d="M9.09082 0.98259L9.39589 1.20154L9.27855 1.55522L9.58362 1.33627L9.88869 1.55522L9.77242 1.20154L10.0775 0.98259H9.69989L9.58362 0.628906L9.46735 0.98259H9.09082Z" fill="#FAFDFF"/>
<path d="M11.2119 0.98259L11.517 1.20154L11.4007 1.55522L11.7058 1.33627L12.0098 1.55522L11.8935 1.20154L12.1986 0.98259H11.822L11.7058 0.628906L11.5884 0.98259H11.2119Z" fill="#FAFDFF"/>
<path d="M1.66309 2.02556L1.96709 2.24451L1.85082 2.59819L2.15589 2.37924L2.46095 2.59819L2.34469 2.24451L2.64975 2.02556H2.27215L2.15589 1.67188L2.03962 2.02556H1.66309Z" fill="#FAFDFF"/>
<path d="M3.78418 2.02556L4.08925 2.24451L3.97298 2.59819L4.27698 2.37924L4.58205 2.59819L4.46578 2.24451L4.77085 2.02556H4.39431L4.27698 1.67188L4.16071 2.02556H3.78418Z" fill="#FAFDFF"/>
<path d="M5.90723 2.02556L6.21123 2.24451L6.09496 2.59819L6.40003 2.37924L6.70509 2.59819L6.58883 2.24451L6.89389 2.02556H6.51629L6.40003 1.67188L6.28376 2.02556H5.90723Z" fill="#FAFDFF"/>
<path d="M8.02832 2.02556L8.33339 2.24451L8.21712 2.59819L8.52112 2.37924L8.82619 2.59819L8.70992 2.24451L9.01499 2.02556H8.63845L8.52112 1.67188L8.40485 2.02556H8.02832Z" fill="#FAFDFF"/>
<path d="M10.1514 2.02556L10.4564 2.24451L10.3402 2.59819L10.6452 2.37924L10.9503 2.59819L10.834 2.24451L11.138 2.02556H10.7615L10.6452 1.67188L10.529 2.02556H10.1514Z" fill="#FAFDFF"/>
<path d="M0.600586 3.06657L0.905653 3.28552L0.789386 3.63921L1.09339 3.42026L1.39845 3.63921L1.28219 3.28552L1.58725 3.06657H1.21072L1.09339 2.71289L0.977119 3.06657H0.600586Z" fill="#FAFDFF"/>
<path d="M2.72363 3.06657L3.0287 3.28552L2.91243 3.63921L3.2175 3.42026L3.52257 3.63921L3.40523 3.28552L3.7103 3.06657H3.33377L3.2175 2.71289L3.10123 3.06657H2.72363Z" fill="#FAFDFF"/>
<path d="M4.84668 3.06657L5.15175 3.28552L5.03441 3.63921L5.33948 3.42026L5.64455 3.63921L5.52828 3.28552L5.83335 3.06657H5.45575L5.33948 2.71289L5.22321 3.06657H4.84668Z" fill="#FAFDFF"/>
<path d="M6.96777 3.06657L7.27284 3.28552L7.15657 3.63921L7.46164 3.42026L7.76671 3.63921L7.64937 3.28552L7.95444 3.06657H7.57791L7.46164 2.71289L7.34537 3.06657H6.96777Z" fill="#FAFDFF"/>
<path d="M9.09082 3.06657L9.39589 3.28552L9.27855 3.63921L9.58362 3.42026L9.88869 3.63921L9.77242 3.28552L10.0775 3.06657H9.69989L9.58362 2.71289L9.46735 3.06657H9.09082Z" fill="#FAFDFF"/>
<path d="M11.2119 3.06657L11.517 3.28552L11.4007 3.63921L11.7058 3.42026L12.0098 3.63921L11.8935 3.28552L12.1986 3.06657H11.822L11.7058 2.71289L11.5884 3.06657H11.2119Z" fill="#FAFDFF"/>
<path d="M1.68945 4.10735L1.99452 4.32629L1.87825 4.67998L2.18332 4.46103L2.48732 4.67998L2.37105 4.32629L2.67612 4.10735H2.29959L2.18332 3.75366L2.06599 4.10735H1.68945Z" fill="#FAFDFF"/>
<path d="M3.81055 4.10735L4.11455 4.32629L3.99828 4.67998L4.30335 4.46103L4.60841 4.67998L4.49215 4.32629L4.79721 4.10735H4.41961L4.30335 3.75366L4.18708 4.10735H3.81055Z" fill="#FAFDFF"/>
<path d="M5.93359 4.10735L6.23866 4.32629L6.12239 4.67998L6.42639 4.46103L6.73146 4.67998L6.61519 4.32629L6.92026 4.10735H6.54373L6.42639 3.75366L6.31013 4.10735H5.93359Z" fill="#FAFDFF"/>
<path d="M8.0542 4.10735L8.3582 4.32629L8.24193 4.67998L8.547 4.46103L8.85207 4.67998L8.7358 4.32629L9.04087 4.10735H8.66327L8.547 3.75366L8.43073 4.10735H8.0542Z" fill="#FAFDFF"/>
<path d="M10.1772 4.10735L10.4823 4.32629L10.366 4.67998L10.67 4.46103L10.9751 4.67998L10.8588 4.32629L11.1639 4.10735H10.7874L10.67 3.75366L10.5538 4.10735H10.1772Z" fill="#FAFDFF"/>
<path d="M0.633301 5.14861L0.938367 5.36755L0.822101 5.72124L1.1261 5.50229L1.43117 5.72124L1.3149 5.36755L1.61997 5.14861H1.24343L1.1261 4.79492L1.00983 5.14861H0.633301Z" fill="#FAFDFF"/>
<path d="M2.75586 5.14861L3.05986 5.36755L2.94359 5.72124L3.24866 5.50229L3.55373 5.72124L3.43746 5.36755L3.74253 5.14861H3.36493L3.24866 4.79492L3.13239 5.14861H2.75586Z" fill="#FAFDFF"/>
<path d="M4.87695 5.14861L5.18202 5.36755L5.06575 5.72124L5.36975 5.50229L5.67482 5.72124L5.55855 5.36755L5.86362 5.14861H5.48709L5.36975 4.79492L5.25349 5.14861H4.87695Z" fill="#FAFDFF"/>
<path d="M7 5.14861L7.30507 5.36755L7.1888 5.72124L7.49387 5.50229L7.79893 5.72124L7.68267 5.36755L7.98667 5.14861H7.61013L7.49387 4.79492L7.3776 5.14861H7Z" fill="#FAFDFF"/>
<path d="M9.12305 5.14861L9.42811 5.36755L9.31078 5.72124L9.61585 5.50229L9.92091 5.72124L9.80465 5.36755L10.1097 5.14861H9.73318L9.61585 4.79492L9.49958 5.14861H9.12305Z" fill="#FAFDFF"/>
<path d="M11.2441 5.14861L11.5492 5.36755L11.4329 5.72124L11.738 5.50229L12.0431 5.72124L11.9268 5.36755L12.2308 5.14861H11.8543L11.738 4.79492L11.6217 5.14861H11.2441Z" fill="#FAFDFF"/>
<path d="M0.65332 7.23259L0.95732 7.45049L0.841054 7.80522L1.14612 7.58627L1.45119 7.80522L1.33492 7.45049L1.63999 7.23259H1.26239L1.14612 6.87891L1.02985 7.23259H0.65332Z" fill="#FAFDFF"/>
<path d="M2.77637 7.23259L3.08143 7.45049L2.96517 7.80522L3.27023 7.58627L3.5753 7.80522L3.45797 7.45049L3.76303 7.23259H3.3865L3.27023 6.87891L3.1529 7.23259H2.77637Z" fill="#FAFDFF"/>
<path d="M4.89697 7.23259L5.20097 7.45049L5.08471 7.80522L5.38977 7.58627L5.69484 7.80522L5.57857 7.45049L5.88364 7.23259H5.50604L5.38977 6.87891L5.27351 7.23259H4.89697Z" fill="#FAFDFF"/>
<path d="M7.02002 7.23259L7.32509 7.45049L7.20882 7.80522L7.51389 7.58627L7.81789 7.80522L7.70162 7.45049L8.00669 7.23259H7.63015L7.51389 6.87891L7.39655 7.23259H7.02002Z" fill="#FAFDFF"/>
<path d="M9.14111 7.23259L9.44618 7.45049L9.32991 7.80522L9.63498 7.58627L9.94005 7.80522L9.82378 7.45049L10.1278 7.23259H9.75125L9.63498 6.87891L9.51871 7.23259H9.14111Z" fill="#FAFDFF"/>
<path d="M11.2642 7.23259L11.5692 7.45049L11.453 7.80522L11.757 7.58627L12.062 7.80522L11.9458 7.45049L12.2508 7.23259H11.8743L11.757 6.87891L11.6407 7.23259H11.2642Z" fill="#FAFDFF"/>
<path d="M0.626953 9.31657L0.93202 9.53552L0.815753 9.88921L1.12082 9.67026L1.42589 9.88921L1.30962 9.53552L1.61362 9.31657H1.23709L1.12082 8.96289L1.00455 9.31657H0.626953Z" fill="#FAFDFF"/>
<path d="M2.75 9.31657L3.05507 9.53552L2.9388 9.88921L3.2428 9.67026L3.54787 9.88921L3.4316 9.53552L3.73667 9.31657H3.36013L3.2428 8.96289L3.12653 9.31657H2.75Z" fill="#FAFDFF"/>
<path d="M4.87109 9.31657L5.17616 9.53552L5.05989 9.88921L5.36496 9.67026L5.67003 9.88921L5.55269 9.53552L5.85776 9.31657H5.48123L5.36496 8.96289L5.24869 9.31657H4.87109Z" fill="#FAFDFF"/>
<path d="M6.99414 9.31657L7.29921 9.53552L7.18187 9.88921L7.48694 9.67026L7.79201 9.88921L7.67574 9.53552L7.98081 9.31657H7.60321L7.48694 8.96289L7.37067 9.31657H6.99414Z" fill="#FAFDFF"/>
<path d="M9.11475 9.31657L9.41981 9.53552L9.30355 9.88921L9.60861 9.67026L9.91368 9.88921L9.79635 9.53552L10.1014 9.31657H9.72488L9.60861 8.96289L9.49235 9.31657H9.11475Z" fill="#FAFDFF"/>
<path d="M11.2378 9.31657L11.5429 9.53552L11.4255 9.88921L11.7306 9.67026L12.0357 9.88921L11.9194 9.53552L12.2245 9.31657H11.8469L11.7306 8.96289L11.6143 9.31657H11.2378Z" fill="#FAFDFF"/>
<path d="M1.6958 6.18962L2.00087 6.40857L1.8846 6.76225L2.18967 6.54331L2.49367 6.76225L2.3774 6.40857L2.68247 6.18962H2.30593L2.18967 5.83594L2.07233 6.18962H1.6958Z" fill="#FAFDFF"/>
<path d="M3.81641 6.18962L4.12147 6.40857L4.00521 6.76225L4.31027 6.54331L4.61534 6.76225L4.49907 6.40857L4.80307 6.18962H4.42654L4.31027 5.83594L4.19401 6.18962H3.81641Z" fill="#FAFDFF"/>
<path d="M5.93945 6.18962L6.24452 6.40857L6.12825 6.76225L6.43225 6.54331L6.73732 6.76225L6.62105 6.40857L6.92612 6.18962H6.54959L6.43225 5.83594L6.31599 6.18962H5.93945Z" fill="#FAFDFF"/>
<path d="M8.06055 6.18962L8.36561 6.40857L8.24935 6.76225L8.55441 6.54331L8.85948 6.76225L8.74321 6.40857L9.04721 6.18962H8.67068L8.55441 5.83594L8.43815 6.18962H8.06055Z" fill="#FAFDFF"/>
<path d="M10.1836 6.18962L10.4887 6.40857L10.3713 6.76225L10.6764 6.54331L10.9815 6.76225L10.8652 6.40857L11.1703 6.18962H10.7937L10.6764 5.83594L10.5601 6.18962H10.1836Z" fill="#FAFDFF"/>
<path d="M1.68945 8.27361L1.99452 8.49255L1.87825 8.84624L2.18332 8.62729L2.48732 8.84624L2.37105 8.49255L2.67612 8.27361H2.29959L2.18332 7.91992L2.06599 8.27361H1.68945Z" fill="#FAFDFF"/>
<path d="M3.81055 8.27361L4.11455 8.49255L3.99828 8.84624L4.30335 8.62729L4.60841 8.84624L4.49215 8.49255L4.79721 8.27361H4.41961L4.30335 7.91992L4.18708 8.27361H3.81055Z" fill="#FAFDFF"/>
<path d="M5.93359 8.27361L6.23866 8.49255L6.12239 8.84624L6.42746 8.62729L6.73146 8.84624L6.61519 8.49255L6.92026 8.27361H6.54373L6.42746 7.91992L6.31013 8.27361H5.93359Z" fill="#FAFDFF"/>
<path d="M8.0542 8.27361L8.3582 8.49255L8.24193 8.84624L8.547 8.62729L8.85207 8.84624L8.7358 8.49255L9.04087 8.27361H8.66327L8.547 7.91992L8.43073 8.27361H8.0542Z" fill="#FAFDFF"/>
<path d="M10.1772 8.27361L10.4823 8.49255L10.366 8.84624L10.67 8.62729L10.9751 8.84624L10.8588 8.49255L11.1639 8.27361H10.7874L10.67 7.91992L10.5538 8.27361H10.1772Z" fill="#FAFDFF"/>
</g>
<defs>
<clipPath id="clip0_14274_21435">
<rect width="28" height="20" rx="3" fill="white"/>
</clipPath>
</defs>
</svg>
