<svg width="28" height="20" viewBox="0 0 28 20" fill="none" xmlns="http://www.w3.org/2000/svg">
<g clip-path="url(#clip0_14274_21441)">
<path d="M30 0H-2V19.9997H30V0Z" fill="#FF9933"/>
<path d="M30 6.66602H-2V13.3322H30V6.66602Z" fill="#FAFDFF"/>
<path d="M30 13.334H-2V20.0002H30V13.334Z" fill="#128807"/>
<path d="M14.0001 12.8061C15.5712 12.8061 16.8449 11.5492 16.8449 9.99873C16.8449 8.44829 15.5712 7.19141 14.0001 7.19141C12.4289 7.19141 11.1553 8.44829 11.1553 9.99873C11.1553 11.5492 12.4289 12.8061 14.0001 12.8061Z" fill="#000088"/>
<path d="M13.9998 12.4545C15.3741 12.4545 16.4883 11.355 16.4883 9.99872C16.4883 8.64245 15.3741 7.54297 13.9998 7.54297C12.6254 7.54297 11.5112 8.64245 11.5112 9.99872C11.5112 11.355 12.6254 12.4545 13.9998 12.4545Z" fill="#FAFDFF"/>
<path d="M14.0001 10.4907C14.2752 10.4907 14.4982 10.2706 14.4982 9.99914C14.4982 9.72765 14.2752 9.50757 14.0001 9.50757C13.725 9.50757 13.502 9.72765 13.502 9.99914C13.502 10.2706 13.725 10.4907 14.0001 10.4907Z" fill="#000088"/>
<path d="M16.5924 10.3375C16.6014 10.2701 16.5533 10.2082 16.4849 10.1994C16.4166 10.1905 16.3539 10.238 16.3449 10.3054C16.3359 10.3728 16.384 10.4347 16.4523 10.4436C16.5207 10.4524 16.5834 10.405 16.5924 10.3375Z" fill="#000088"/>
<path d="M13.9999 12.4568L14.0852 10.9831L13.9999 10.281L13.9146 10.9831L13.9999 12.4568Z" fill="#000088"/>
<path d="M16.4156 10.9861C16.4419 10.9233 16.4117 10.8512 16.348 10.8252C16.2843 10.7992 16.2113 10.829 16.185 10.8918C16.1586 10.9547 16.1888 11.0267 16.2525 11.0527C16.3162 11.0788 16.3892 11.0489 16.4156 10.9861Z" fill="#000088"/>
<path d="M13.3599 12.3733L13.8292 10.9712L13.9359 10.2712L13.6692 10.927L13.3599 12.3733Z" fill="#000088"/>
<path d="M16.0733 11.5696C16.1153 11.5156 16.105 11.4383 16.0503 11.3969C15.9956 11.3555 15.9172 11.3657 15.8753 11.4196C15.8333 11.4736 15.8436 11.5509 15.8983 11.5923C15.953 11.6337 16.0314 11.6235 16.0733 11.5696Z" fill="#000088"/>
<path d="M12.7549 12.1261L13.573 10.8914L13.8546 10.2419L13.4279 10.8072L12.7549 12.1261Z" fill="#000088"/>
<path d="M15.5908 12.046C15.6455 12.0046 15.6558 11.9273 15.6138 11.8733C15.5719 11.8193 15.4935 11.8092 15.4389 11.8506C15.3842 11.892 15.3739 11.9693 15.4158 12.0232C15.4578 12.0772 15.5361 12.0874 15.5908 12.046Z" fill="#000088"/>
<path d="M12.2397 11.7368L13.3597 10.7548L13.8024 10.199L13.2349 10.6316L12.2397 11.7368Z" fill="#000088"/>
<path d="M15.0004 12.3833C15.064 12.3573 15.0943 12.2852 15.0679 12.2224C15.0415 12.1596 14.9685 12.1297 14.9049 12.1558C14.8412 12.1818 14.8109 12.2538 14.8373 12.3167C14.8637 12.3795 14.9367 12.4093 15.0004 12.3833Z" fill="#000088"/>
<path d="M11.8447 11.2295L13.1802 10.5653L13.753 10.1443L13.0959 10.4222L11.8447 11.2295Z" fill="#000088"/>
<path d="M14.3419 12.5558C14.4102 12.5469 14.4583 12.485 14.4493 12.4176C14.4403 12.3502 14.3776 12.3027 14.3093 12.3116C14.2409 12.3204 14.1928 12.3823 14.2018 12.4497C14.2108 12.5172 14.2735 12.5646 14.3419 12.5558Z" fill="#000088"/>
<path d="M11.5957 10.6315L13.0602 10.3315L13.7248 10.0684L13.0154 10.1736L11.5957 10.6315Z" fill="#000088"/>
<path d="M13.7979 12.4528C13.8069 12.3853 13.7588 12.3235 13.6905 12.3146C13.6222 12.3057 13.5595 12.3532 13.5505 12.4206C13.5415 12.4881 13.5896 12.5499 13.6579 12.5588C13.7262 12.5677 13.7889 12.5202 13.7979 12.4528Z" fill="#000088"/>
<path d="M11.5112 9.99998L13.0046 10.0842L13.716 9.99998L13.0046 9.91577L11.5112 9.99998Z" fill="#000088"/>
<path d="M13.1636 12.3162C13.19 12.2533 13.1598 12.1813 13.0961 12.1553C13.0324 12.1292 12.9594 12.1591 12.933 12.2219C12.9066 12.2848 12.9369 12.3568 13.0006 12.3828C13.0642 12.4089 13.1372 12.379 13.1636 12.3162Z" fill="#000088"/>
<path d="M11.5957 9.36694L13.0165 9.83009L13.7258 9.93536L13.0613 9.6722L11.5957 9.36694Z" fill="#000088"/>
<path d="M12.5836 12.0227C12.6255 11.9687 12.6152 11.8914 12.5605 11.85C12.5058 11.8086 12.4275 11.8188 12.3855 11.8728C12.3436 11.9267 12.3539 12.004 12.4086 12.0454C12.4633 12.0868 12.5416 12.0767 12.5836 12.0227Z" fill="#000088"/>
<path d="M11.8447 8.77148L13.0959 9.57884L13.7541 9.85673L13.1813 9.43568L11.8447 8.77148Z" fill="#000088"/>
<path d="M12.1006 11.5929C12.1552 11.5514 12.1656 11.4741 12.1236 11.4202C12.0816 11.3662 12.0033 11.356 11.9486 11.3974C11.8939 11.4388 11.8836 11.5162 11.9256 11.5701C11.9675 11.6241 12.0459 11.6343 12.1006 11.5929Z" fill="#000088"/>
<path d="M12.2397 8.26147L13.2349 9.36672L13.7981 9.80356L13.3597 9.24357L12.2397 8.26147Z" fill="#000088"/>
<path d="M11.7489 11.0532C11.8126 11.0272 11.8428 10.9552 11.8164 10.8923C11.7901 10.8295 11.7171 10.7996 11.6534 10.8257C11.5897 10.8517 11.5595 10.9237 11.5858 10.9866C11.6122 11.0494 11.6852 11.0793 11.7489 11.0532Z" fill="#000088"/>
<path d="M12.7549 7.87305L13.4279 9.19092L13.8546 9.75618L13.573 9.10776L12.7549 7.87305Z" fill="#000088"/>
<path d="M11.5494 10.4427C11.6177 10.4339 11.6658 10.372 11.6568 10.3046C11.6478 10.2371 11.5851 10.1896 11.5168 10.1985C11.4485 10.2074 11.4004 10.2693 11.4094 10.3367C11.4184 10.4041 11.481 10.4516 11.5494 10.4427Z" fill="#000088"/>
<path d="M13.3599 7.62695L13.6639 9.07219L13.9305 9.72797L13.8239 9.02798L13.3599 7.62695Z" fill="#000088"/>
<path d="M11.6344 9.71063C11.6434 9.6433 11.5953 9.58154 11.5271 9.5727C11.4589 9.56386 11.3963 9.61127 11.3873 9.67861C11.3784 9.74595 11.4264 9.80771 11.4946 9.81655C11.5629 9.82539 11.6255 9.77797 11.6344 9.71063Z" fill="#000088"/>
<path d="M13.9999 7.54297L13.9146 9.01663L13.9999 9.71873L14.0852 9.01663L13.9999 7.54297Z" fill="#000088"/>
<path d="M11.8164 9.10914C11.8428 9.0463 11.8126 8.97426 11.7489 8.94823C11.6852 8.9222 11.6122 8.95204 11.5858 9.01488C11.5595 9.07772 11.5897 9.14976 11.6534 9.17579C11.7171 9.20182 11.7901 9.17198 11.8164 9.10914Z" fill="#000088"/>
<path d="M14.6395 7.62695L14.1701 9.02904L14.0635 9.72903L14.3301 9.07325L14.6395 7.62695Z" fill="#000088"/>
<path d="M12.126 8.57934C12.168 8.52538 12.1577 8.44807 12.103 8.40666C12.0483 8.36525 11.97 8.37543 11.928 8.42939C11.8861 8.48336 11.8964 8.56067 11.9511 8.60207C12.0057 8.64348 12.0841 8.6333 12.126 8.57934Z" fill="#000088"/>
<path d="M15.2448 7.87305L14.4266 9.10776L14.145 9.75723L14.5717 9.19197L15.2448 7.87305Z" fill="#000088"/>
<path d="M12.5615 8.14778C12.6162 8.10638 12.6265 8.02907 12.5845 7.9751C12.5426 7.92114 12.4642 7.91096 12.4096 7.95237C12.3549 7.99378 12.3446 8.07109 12.3865 8.12505C12.4285 8.17901 12.5068 8.18919 12.5615 8.14778Z" fill="#000088"/>
<path d="M15.7604 8.26147L14.6404 9.24357L14.1978 9.79935L14.7652 9.36672L15.7604 8.26147Z" fill="#000088"/>
<path d="M13.0951 7.8445C13.1588 7.81847 13.189 7.74642 13.1626 7.68358C13.1363 7.62074 13.0633 7.5909 12.9996 7.61693C12.9359 7.64296 12.9057 7.715 12.932 7.77784C12.9584 7.84068 13.0314 7.87052 13.0951 7.8445Z" fill="#000088"/>
<path d="M16.1563 8.77148L14.8208 9.43568L14.248 9.85673L14.9051 9.57884L16.1563 8.77148Z" fill="#000088"/>
<path d="M13.6905 7.68907C13.7588 7.68019 13.8069 7.61833 13.7979 7.55089C13.7889 7.48346 13.7262 7.43598 13.6579 7.44486C13.5896 7.45374 13.5415 7.51561 13.5505 7.58304C13.5595 7.65048 13.6222 7.69795 13.6905 7.68907Z" fill="#000088"/>
<path d="M16.4045 9.36694L14.9399 9.66694L14.2754 9.93009L14.9847 9.82483L16.4045 9.36694Z" fill="#000088"/>
<path d="M14.4483 7.57997C14.4573 7.51253 14.4092 7.45067 14.3409 7.44179C14.2725 7.43291 14.2099 7.48038 14.2009 7.54782C14.1919 7.61525 14.24 7.67712 14.3083 7.686C14.3766 7.69488 14.4393 7.64741 14.4483 7.57997Z" fill="#000088"/>
<path d="M16.488 9.99998L14.9947 9.91577L14.2832 9.99998L14.9947 10.0842L16.488 9.99998Z" fill="#000088"/>
<path d="M15.0664 7.77735C15.0928 7.71451 15.0626 7.64247 14.9989 7.61644C14.9352 7.59041 14.8622 7.62025 14.8358 7.68309C14.8095 7.74593 14.8397 7.81798 14.9034 7.84401C14.9671 7.87003 15.0401 7.84019 15.0664 7.77735Z" fill="#000088"/>
<path d="M16.4045 10.6307L14.9837 10.1675L14.2744 10.0623L14.9389 10.3254L16.4045 10.6307Z" fill="#000088"/>
<path d="M15.6138 8.12646C15.6558 8.0725 15.6455 7.99519 15.5908 7.95378C15.5361 7.91237 15.4578 7.92255 15.4158 7.97651C15.3739 8.03047 15.3842 8.10779 15.4389 8.14919C15.4935 8.1906 15.5719 8.18042 15.6138 8.12646Z" fill="#000088"/>
<path d="M16.1554 11.2295L14.9042 10.4222L14.2461 10.1443L14.8189 10.5653L16.1554 11.2295Z" fill="#000088"/>
<path d="M16.0513 8.60457C16.1059 8.56316 16.1162 8.48585 16.0743 8.43189C16.0323 8.37793 15.954 8.36775 15.8993 8.40916C15.8446 8.45056 15.8343 8.52788 15.8763 8.58184C15.9182 8.6358 15.9966 8.64598 16.0513 8.60457Z" fill="#000088"/>
<path d="M15.7601 11.7372L14.7649 10.6319L14.2017 10.1951L14.6443 10.7508L15.7601 11.7372Z" fill="#000088"/>
<path d="M16.347 9.17238C16.4107 9.14635 16.441 9.0743 16.4146 9.01147C16.3882 8.94863 16.3152 8.91878 16.2515 8.94481C16.1879 8.97084 16.1576 9.04288 16.184 9.10572C16.2104 9.16856 16.2834 9.19841 16.347 9.17238Z" fill="#000088"/>
<path d="M15.2448 12.1273L14.5717 10.8094L14.145 10.2441L14.4266 10.8936L15.2448 12.1273Z" fill="#000088"/>
<path d="M16.4839 9.8004C16.5523 9.79152 16.6004 9.72965 16.5914 9.66222C16.5824 9.59478 16.5197 9.54731 16.4514 9.55619C16.383 9.56507 16.3349 9.62693 16.3439 9.69437C16.3529 9.7618 16.4156 9.80927 16.4839 9.8004Z" fill="#000088"/>
<path d="M14.64 12.3725L14.336 10.9273L14.0693 10.2715L14.176 10.9715L14.64 12.3725Z" fill="#000088"/>
</g>
<defs>
<clipPath id="clip0_14274_21441">
<rect width="28" height="20" rx="3" fill="white"/>
</clipPath>
</defs>
</svg>
