<svg width="28" height="20" viewBox="0 0 28 20" fill="none" xmlns="http://www.w3.org/2000/svg">
<g clip-path="url(#clip0_14274_23649)">
<path d="M28 0H0V20H28V0Z" fill="#FAFDFF"/>
<path d="M6.88059 1.48407L4.29199 5.86328L6.88034 7.8094L9.46893 3.43018L6.88059 1.48407Z" fill="#1F1F1F"/>
<path d="M7.74398 1.608L4.72412 6.7168L5.04796 6.96028L8.06781 1.85149L7.74398 1.608Z" fill="#FAFDFF"/>
<path d="M8.71615 2.33652L5.69629 7.44531L6.02012 7.6888L9.03998 2.58L8.71615 2.33652Z" fill="#FAFDFF"/>
<path d="M20.9841 12.1804L18.4175 16.5488L20.9994 18.4785L23.5661 14.11L20.9841 12.1804Z" fill="#1F1F1F"/>
<path d="M21.9803 12.3131L18.9604 17.4219L19.2843 17.6654L22.3041 12.5566L21.9803 12.3131Z" fill="#FAFDFF"/>
<path d="M22.9525 13.0436L19.9326 18.1523L20.2565 18.3958L23.2763 13.287L22.9525 13.0436Z" fill="#FAFDFF"/>
<path d="M19.609 13.9531L19.3931 14.3184L22.6291 16.7514L22.845 16.3862L19.609 13.9531Z" fill="#FAFDFF"/>
<g clip-path="url(#clip1_14274_23649)">
<path d="M18.68 12.9207C20.2927 10.5021 19.639 7.23435 17.22 5.62198C14.801 4.0096 11.5327 4.66315 9.92 7.08172C8.30733 9.5003 8.96099 12.768 11.38 14.3804C13.799 15.9928 17.0673 15.3392 18.68 12.9207Z" fill="#C60C30"/>
<path d="M9.91893 7.08008C9.72717 7.3676 9.59392 7.69008 9.52681 8.02909C9.45969 8.3681 9.46002 8.71701 9.52777 9.05589C9.66459 9.7403 10.0677 10.3423 10.6485 10.7296C11.2293 11.1168 11.9402 11.2574 12.6247 11.1206C13.3092 10.9838 13.9114 10.5808 14.2987 10.0001C14.686 9.41939 15.2881 9.01631 15.9726 8.87951C16.6572 8.74271 17.368 8.88339 17.9488 9.2706C18.5296 9.65782 18.9327 10.2599 19.0696 10.9443C19.2064 11.6287 19.0657 12.3394 18.6784 12.9201C18.298 13.502 17.806 14.0029 17.2309 14.3937C16.6558 14.7845 16.009 15.0575 15.3278 15.1969C14.6466 15.3364 13.9445 15.3395 13.262 15.2061C12.5796 15.0727 11.9304 14.8055 11.3518 14.4198C10.7732 14.0342 10.2768 13.5378 9.89126 12.9592C9.50568 12.3807 9.23856 11.7315 9.10534 11.0491C8.97211 10.3668 8.97541 9.6648 9.11506 8.98374C9.2547 8.30268 9.52792 7.65602 9.91893 7.08113" fill="#003478"/>
</g>
<path d="M6.81048 12.2071L4.22852 14.1367L6.79518 18.5051L9.37715 16.5755L6.81048 12.2071Z" fill="#1F1F1F"/>
<path d="M5.04796 13.0417L4.72412 13.2852L7.74398 18.3939L8.06781 18.1505L5.04796 13.0417Z" fill="#FAFDFF"/>
<path d="M6.01817 12.3112L5.69434 12.5547L8.71419 17.6635L9.03803 17.42L6.01817 12.3112Z" fill="#FAFDFF"/>
<path d="M21.1186 1.48528L18.5303 3.4314L21.1189 7.81061L23.7072 5.86449L21.1186 1.48528Z" fill="#1F1F1F"/>
<path d="M19.2843 2.33659L18.9604 2.58008L21.9803 7.68887L22.3041 7.44539L19.2843 2.33659Z" fill="#FAFDFF"/>
<path d="M20.2565 1.60637L19.9326 1.84985L22.9525 6.95865L23.2763 6.71516L20.2565 1.60637Z" fill="#FAFDFF"/>
<path d="M22.6291 3.24855L19.3931 5.68164L19.609 6.04687L22.845 3.61378L22.6291 3.24855Z" fill="#FAFDFF"/>
<path d="M21.2255 4.04096L20.5786 4.52734L21.0099 5.25692L21.6568 4.77054L21.2255 4.04096Z" fill="#1F1F1F"/>
<path d="M7.42151 14.6829L6.12695 15.6562L6.34284 16.0215L7.6374 15.0481L7.42151 14.6829Z" fill="#FAFDFF"/>
</g>
<defs>
<clipPath id="clip0_14274_23649">
<rect width="28" height="20" rx="3" fill="white"/>
</clipPath>
<clipPath id="clip1_14274_23649">
<rect width="14.6" height="14.5974" fill="white" transform="translate(7 2.70239)"/>
</clipPath>
</defs>
</svg>
