<svg width="28" height="20" viewBox="0 0 28 20" fill="none" xmlns="http://www.w3.org/2000/svg">
<g clip-path="url(#clip0_14274_23650)">
<rect width="28" height="20" rx="3" fill="#FAFDFF"/>
<path d="M32 0H0V20H32V0Z" fill="#DE2910"/>
<path d="M5.33373 1.57812L7.21426 7.29076L2.29053 3.76023H8.37693L3.45319 7.29076L5.33373 1.57812Z" fill="#FFDE00"/>
<path d="M9.75195 2.11885L11.0842 0.609375L10.9061 2.60411L9.86289 0.88727L11.7296 1.67043L9.75195 2.11885Z" fill="#FFDE00"/>
<path d="M11.7441 3.83197L13.566 2.95091L12.6177 4.72039L12.3308 2.73828L13.7431 4.17512L11.7441 3.83197Z" fill="#FFDE00"/>
<path d="M11.7744 6.55117L13.8011 6.47959L12.2043 7.71433L12.7611 5.78906L13.4565 7.66906L11.7744 6.55117Z" fill="#FFDE00"/>
<path d="M9.83397 8.29026L11.7326 8.99657L9.77637 9.5271L11.0436 7.96289L10.9486 9.96289L9.83397 8.29026Z" fill="#FFDE00"/>
</g>
<defs>
<clipPath id="clip0_14274_23650">
<rect width="28" height="20" rx="3" fill="white"/>
</clipPath>
</defs>
</svg>
