<svg width="28" height="20" viewBox="0 0 28 20" fill="none" xmlns="http://www.w3.org/2000/svg">
<g clip-path="url(#clip0_14274_23863)">
<path d="M32 0H0V20H32V0Z" fill="#E30A17"/>
<path d="M11.3333 15.2636C14.2789 15.2636 16.6667 12.9072 16.6667 10.0005C16.6667 7.0937 14.2789 4.7373 11.3333 4.7373C8.38781 4.7373 6 7.0937 6 10.0005C6 12.9072 8.38781 15.2636 11.3333 15.2636Z" fill="#FAFDFF"/>
<path d="M12.6661 14.2101C15.0225 14.2101 16.9327 12.325 16.9327 9.99959C16.9327 7.67418 15.0225 5.78906 12.6661 5.78906C10.3097 5.78906 8.39941 7.67418 8.39941 9.99959C8.39941 12.325 10.3097 14.2101 12.6661 14.2101Z" fill="#E30A17"/>
<path d="M15.5542 10.0002L20.3787 11.5465L17.3974 7.49707V12.5034L20.3787 8.45391L15.5542 10.0002Z" fill="#FAFDFF"/>
</g>
<defs>
<clipPath id="clip0_14274_23863">
<rect width="28" height="20" rx="3" fill="white"/>
</clipPath>
</defs>
</svg>
