<svg width="28" height="20" viewBox="0 0 28 20" fill="none" xmlns="http://www.w3.org/2000/svg">
<g clip-path="url(#clip0_14274_23655)">
<path d="M26 0H2C-0.209139 0 -2 1.79086 -2 4V15.9997C-2 18.2088 -0.209139 19.9997 2 19.9997H26C28.2091 19.9997 30 18.2088 30 15.9997V4C30 1.79086 28.2091 0 26 0Z" fill="#239F40"/>
<path d="M30 6.66602H-2V13.3322H30V6.66602Z" fill="#FAFDFF"/>
<path d="M30 13.334H-2V20.0002H30V13.334Z" fill="#DA0000"/>
<path d="M12.7197 5.75195H14.4264H12.7197ZM12.8758 6.26436C12.799 6.28986 12.7197 6.23265 12.7197 6.1517C12.7197 6.08615 12.7729 6.033 12.8384 6.033H13.1467C13.2249 6.033 13.2883 6.09639 13.2883 6.17458C13.2883 6.25277 13.3516 6.31616 13.4298 6.31616H13.7152C13.7934 6.31616 13.8568 6.25277 13.8568 6.17458C13.8568 6.09639 13.7934 6.033 13.7152 6.033H13.6125C13.5864 6.033 13.5604 6.0372 13.5356 6.04543L12.8758 6.26436ZM14.4626 6.24416C14.4404 6.2883 14.3952 6.31616 14.3458 6.31616H14.2832C14.205 6.31616 14.1416 6.25277 14.1416 6.17458C14.1416 6.09639 14.205 6.033 14.2832 6.033H14.6562C14.686 6.033 14.7101 6.00887 14.7101 5.9791C14.7101 5.92229 14.6336 5.90413 14.6081 5.95489L14.4626 6.24416ZM14.8069 5.98611C14.7476 6.01547 14.7101 6.07592 14.7101 6.14209C14.7101 6.23822 14.7881 6.31616 14.8842 6.31616H15.0637C15.183 6.31616 15.2797 6.21942 15.2797 6.10008C15.2797 5.93982 15.1114 5.83533 14.9678 5.90646L14.8069 5.98611ZM14.9949 5.75195V6.31616V5.75195Z" stroke="#FAFDFF" stroke-width="0.15" stroke-linecap="square"/>
<path d="M14.1427 6.63281H15.2797M12.7197 6.63281H13.8579H12.7197Z" stroke="#FAFDFF" stroke-width="0.15" stroke-linecap="square"/>
<path d="M15.5645 5.75195H17.2711H15.5645ZM15.7199 6.26364C15.6434 6.28898 15.5645 6.23197 15.5645 6.15131C15.5645 6.08597 15.6174 6.033 15.6828 6.033H15.9914C16.0696 6.033 16.133 6.09639 16.133 6.17458C16.133 6.25277 16.1964 6.31616 16.2746 6.31616H16.5599C16.6381 6.31616 16.7015 6.25277 16.7015 6.17458C16.7015 6.09639 16.6381 6.033 16.5599 6.033H16.4563C16.4301 6.033 16.404 6.0372 16.3792 6.04543L15.7199 6.26364ZM17.3065 6.24308C17.2841 6.28726 17.2388 6.3151 17.1893 6.3151H17.1274C17.0495 6.3151 16.9863 6.25195 16.9863 6.17405C16.9863 6.09615 17.0495 6.033 17.1274 6.033H17.5007C17.5306 6.033 17.5549 6.00877 17.5549 5.97888C17.5549 5.92191 17.4782 5.90362 17.4524 5.95446L17.3065 6.24308ZM17.6516 5.98606C17.5923 6.01546 17.5549 6.07589 17.5549 6.14203C17.5549 6.2382 17.6328 6.31616 17.729 6.31616H17.9074C18.0267 6.31616 18.1234 6.21947 18.1234 6.10019C18.1234 5.93994 17.955 5.83551 17.8114 5.90674L17.6516 5.98606ZM17.8386 5.75195V6.31616V5.75195Z" stroke="#FAFDFF" stroke-width="0.15" stroke-linecap="square"/>
<path d="M16.9863 6.63281H18.1245M15.5645 6.63281H16.7026H15.5645Z" stroke="#FAFDFF" stroke-width="0.15" stroke-linecap="square"/>
<path d="M7.03125 5.75195H8.73792H7.03125ZM7.18733 6.26436C7.1105 6.28986 7.03125 6.23265 7.03125 6.1517C7.03125 6.08615 7.08439 6.033 7.14995 6.033H7.45821C7.5364 6.033 7.59978 6.09639 7.59978 6.17458C7.59978 6.25277 7.66317 6.31616 7.74136 6.31616H8.02674C8.10493 6.31616 8.16832 6.25277 8.16832 6.17458C8.16832 6.09639 8.10493 6.033 8.02674 6.033H7.92405C7.89791 6.033 7.87194 6.0372 7.84712 6.04543L7.18733 6.26436ZM8.77415 6.24319C8.75193 6.28728 8.70677 6.3151 8.65739 6.3151H8.59417C8.51627 6.3151 8.45312 6.25195 8.45312 6.17405C8.45312 6.09615 8.51627 6.033 8.59417 6.033H8.96768C8.99749 6.033 9.02165 6.00884 9.02165 5.97903C9.02165 5.92217 8.94506 5.90396 8.91948 5.95474L8.77415 6.24319ZM9.11838 5.98606C9.05913 6.01546 9.02165 6.07589 9.02165 6.14203C9.02165 6.2382 9.09961 6.31616 9.19577 6.31616H9.37422C9.4935 6.31616 9.59018 6.21947 9.59018 6.10019C9.59018 5.93994 9.42179 5.83551 9.27823 5.90674L9.11838 5.98606ZM9.30538 5.75195V6.31616V5.75195Z" stroke="#FAFDFF" stroke-width="0.15" stroke-linecap="square"/>
<path d="M8.45312 6.63281H9.59125M7.03125 6.63281H8.16832H7.03125Z" stroke="#FAFDFF" stroke-width="0.15" stroke-linecap="square"/>
<path d="M9.875 5.75195H11.5817H9.875ZM10.0305 6.2637C9.95391 6.28902 9.875 6.23199 9.875 6.15134C9.875 6.08598 9.92798 6.033 9.99334 6.033H10.302C10.3801 6.033 10.4435 6.09639 10.4435 6.17458C10.4435 6.25277 10.5069 6.31616 10.5851 6.31616H10.8716C10.9497 6.31616 11.0131 6.25277 11.0131 6.17458C11.0131 6.09639 10.9497 6.033 10.8716 6.033H10.7678C10.7417 6.033 10.7157 6.03719 10.6908 6.0454L10.0305 6.2637ZM11.6181 6.24308C11.5957 6.28726 11.5505 6.3151 11.501 6.3151H11.4379C11.36 6.3151 11.2969 6.25195 11.2969 6.17405C11.2969 6.09615 11.36 6.033 11.4379 6.033H11.8123C11.8422 6.033 11.8665 6.00877 11.8665 5.97888C11.8665 5.92191 11.7898 5.90362 11.7641 5.95446L11.6181 6.24308ZM11.9632 5.98606C11.9039 6.01546 11.8665 6.07589 11.8665 6.14203C11.8665 6.2382 11.9444 6.31616 12.0406 6.31616H12.219C12.3383 6.31616 12.435 6.21947 12.435 6.10019C12.435 5.93994 12.2666 5.83551 12.123 5.90674L11.9632 5.98606ZM12.1502 5.75195V6.31616V5.75195Z" stroke="#FAFDFF" stroke-width="0.15" stroke-linecap="square"/>
<path d="M11.2979 6.63281H12.4361M9.875 6.63281H11.0131H9.875Z" stroke="#FAFDFF" stroke-width="0.15" stroke-linecap="square"/>
<path d="M24.0977 5.75195H25.8043H24.0977ZM24.2531 6.26364C24.1766 6.28898 24.0977 6.23197 24.0977 6.15131C24.0977 6.08597 24.1506 6.033 24.216 6.033H24.5246C24.6028 6.033 24.6662 6.09639 24.6662 6.17458C24.6662 6.25277 24.7296 6.31616 24.8078 6.31616H25.0931C25.1713 6.31616 25.2347 6.25277 25.2347 6.17458C25.2347 6.09639 25.1713 6.033 25.0931 6.033H24.9895C24.9633 6.033 24.9373 6.0372 24.9124 6.04543L24.2531 6.26364ZM25.8397 6.24308C25.8173 6.28726 25.7721 6.3151 25.7226 6.3151H25.6606C25.5827 6.3151 25.5195 6.25195 25.5195 6.17405C25.5195 6.09615 25.5827 6.033 25.6606 6.033H26.0339C26.0638 6.033 26.0881 6.00877 26.0881 5.97888C26.0881 5.92191 26.0114 5.90362 25.9856 5.95446L25.8397 6.24308ZM26.1848 5.98606C26.1255 6.01546 26.0881 6.07589 26.0881 6.14203C26.0881 6.2382 26.166 6.31616 26.2622 6.31616H26.4406C26.5599 6.31616 26.6566 6.21947 26.6566 6.10019C26.6566 5.93994 26.4882 5.83551 26.3446 5.90674L26.1848 5.98606ZM26.3718 5.75195V6.31616V5.75195Z" stroke="#FAFDFF" stroke-width="0.15" stroke-linecap="square"/>
<path d="M25.5195 6.63281H26.6577M24.0977 6.63281H25.2358H24.0977Z" stroke="#FAFDFF" stroke-width="0.15" stroke-linecap="square"/>
<path d="M26.9414 5.75195H28.6481H26.9414ZM27.0969 6.2637C27.0203 6.28902 26.9414 6.23199 26.9414 6.15134C26.9414 6.08598 26.9944 6.033 27.0597 6.033H27.3684C27.4466 6.033 27.5099 6.09639 27.5099 6.17458C27.5099 6.25277 27.5733 6.31616 27.6515 6.31616H27.938C28.0162 6.31616 28.0795 6.25277 28.0795 6.17458C28.0795 6.09639 28.0162 6.033 27.938 6.033H27.8342C27.8081 6.033 27.7821 6.03719 27.7572 6.0454L27.0969 6.2637ZM28.6845 6.24308C28.6622 6.28726 28.6169 6.3151 28.5674 6.3151H28.5043C28.4264 6.3151 28.3633 6.25195 28.3633 6.17405C28.3633 6.09615 28.4264 6.033 28.5043 6.033H28.8788C28.9086 6.033 28.9329 6.00877 28.9329 5.97888C28.9329 5.92191 28.8562 5.90362 28.8305 5.95446L28.6845 6.24308ZM29.0296 5.98606C28.9704 6.01546 28.9329 6.07589 28.9329 6.14203C28.9329 6.2382 29.0108 6.31616 29.107 6.31616H29.2854C29.4047 6.31616 29.5014 6.21947 29.5014 6.1002C29.5014 5.93994 29.333 5.83551 29.1895 5.90674L29.0296 5.98606ZM29.2166 5.75195V6.31616V5.75195Z" stroke="#FAFDFF" stroke-width="0.15" stroke-linecap="square"/>
<path d="M28.3643 6.63281H29.5025M26.9414 6.63281H28.0795H26.9414Z" stroke="#FAFDFF" stroke-width="0.15" stroke-linecap="square"/>
<path d="M18.4082 5.75195H20.1149H18.4082ZM18.5637 6.2637C18.4871 6.28902 18.4082 6.23199 18.4082 6.15134C18.4082 6.08598 18.4612 6.033 18.5265 6.033H18.8352C18.9134 6.033 18.9767 6.09639 18.9767 6.17458C18.9767 6.25277 19.0401 6.31616 19.1183 6.31616H19.4048C19.483 6.31616 19.5463 6.25277 19.5463 6.17458C19.5463 6.09639 19.483 6.033 19.4048 6.033H19.301C19.2749 6.033 19.2489 6.03719 19.224 6.0454L18.5637 6.2637ZM20.1513 6.24308C20.129 6.28726 20.0837 6.3151 20.0342 6.3151H19.9711C19.8932 6.3151 19.8301 6.25195 19.8301 6.17405C19.8301 6.09615 19.8932 6.033 19.9711 6.033H20.3456C20.3754 6.033 20.3997 6.00877 20.3997 5.97888C20.3997 5.92191 20.323 5.90362 20.2973 5.95446L20.1513 6.24308ZM20.4964 5.98606C20.4371 6.01546 20.3997 6.07589 20.3997 6.14203C20.3997 6.2382 20.4776 6.31616 20.5738 6.31616H20.7522C20.8715 6.31616 20.9682 6.21947 20.9682 6.10019C20.9682 5.93994 20.7998 5.83551 20.6563 5.90674L20.4964 5.98606ZM20.6834 5.75195V6.31616V5.75195Z" stroke="#FAFDFF" stroke-width="0.15" stroke-linecap="square"/>
<path d="M19.8311 6.63281H20.9693M18.4082 6.63281H19.5463H18.4082Z" stroke="#FAFDFF" stroke-width="0.15" stroke-linecap="square"/>
<path d="M21.2529 5.75195H22.9596H21.2529ZM21.409 6.26436C21.3322 6.28986 21.2529 6.23265 21.2529 6.1517C21.2529 6.08615 21.3061 6.033 21.3716 6.033H21.6799C21.7581 6.033 21.8215 6.09639 21.8215 6.17458C21.8215 6.25277 21.8848 6.31616 21.963 6.31616H22.2484C22.3266 6.31616 22.39 6.25277 22.39 6.17458C22.39 6.09639 22.3266 6.033 22.2484 6.033H22.1457C22.1196 6.033 22.0936 6.0372 22.0688 6.04543L21.409 6.26436ZM22.9958 6.24416C22.9736 6.2883 22.9284 6.31616 22.879 6.31616H22.8164C22.7382 6.31616 22.6748 6.25277 22.6748 6.17458C22.6748 6.09639 22.7382 6.033 22.8164 6.033H23.1894C23.2192 6.033 23.2433 6.00887 23.2433 5.9791C23.2433 5.92229 23.1668 5.90413 23.1413 5.95489L22.9958 6.24416ZM23.3401 5.98611C23.2808 6.01547 23.2433 6.07592 23.2433 6.14209C23.2433 6.23822 23.3213 6.31616 23.4174 6.31616H23.5969C23.7162 6.31616 23.8129 6.21942 23.8129 6.10008C23.8129 5.93982 23.6446 5.83533 23.501 5.90646L23.3401 5.98611ZM23.5281 5.75195V6.31616V5.75195Z" stroke="#FAFDFF" stroke-width="0.15" stroke-linecap="square"/>
<path d="M22.6759 6.63281H23.8129M21.2529 6.63281H22.3911H21.2529Z" stroke="#FAFDFF" stroke-width="0.15" stroke-linecap="square"/>
<path d="M4.18652 5.75195H5.89319H4.18652ZM4.34261 6.26436C4.26577 6.28986 4.18652 6.23265 4.18652 6.1517C4.18652 6.08615 4.23967 6.033 4.30522 6.033H4.61348C4.69167 6.033 4.75506 6.09639 4.75506 6.17458C4.75506 6.25277 4.81844 6.31616 4.89663 6.31616H5.18201C5.2602 6.31616 5.32359 6.25277 5.32359 6.17458C5.32359 6.09639 5.2602 6.033 5.18201 6.033H5.07932C5.05318 6.033 5.02721 6.0372 5.0024 6.04543L4.34261 6.26436ZM5.9294 6.24416C5.9072 6.2883 5.86201 6.31616 5.8126 6.31616H5.74997C5.67178 6.31616 5.60839 6.25277 5.60839 6.17458C5.60839 6.09639 5.67178 6.033 5.74997 6.033H6.12302C6.15279 6.033 6.17692 6.00887 6.17692 5.9791C6.17692 5.92229 6.10039 5.90413 6.07487 5.95489L5.9294 6.24416ZM6.27374 5.98611C6.21444 6.01547 6.17692 6.07592 6.17692 6.14209C6.17692 6.23822 6.25486 6.31616 6.35099 6.31616H6.53045C6.64978 6.31616 6.74652 6.21942 6.74652 6.10008C6.74652 5.93982 6.57817 5.83533 6.43456 5.90646L6.27374 5.98611ZM6.46172 5.75195V6.31616V5.75195Z" stroke="#FAFDFF" stroke-width="0.15" stroke-linecap="square"/>
<path d="M5.60946 6.63281H6.74652M4.18652 6.63281H5.32466H4.18652Z" stroke="#FAFDFF" stroke-width="0.15" stroke-linecap="square"/>
<path d="M-1.50195 5.75195H0.204714H-1.50195ZM-1.34587 6.26436C-1.4227 6.28986 -1.50195 6.23265 -1.50195 6.1517C-1.50195 6.08615 -1.44881 6.033 -1.38325 6.033H-1.075C-0.996806 6.033 -0.93342 6.09639 -0.93342 6.17458C-0.93342 6.25277 -0.870034 6.31616 -0.791843 6.31616H-0.506463C-0.428273 6.31616 -0.364886 6.25277 -0.364886 6.17458C-0.364886 6.09639 -0.428272 6.033 -0.506463 6.033H-0.609152C-0.635294 6.033 -0.661267 6.0372 -0.686079 6.04543L-1.34587 6.26436ZM0.240947 6.24319C0.218729 6.28728 0.173564 6.3151 0.124187 6.3151H0.0609642C-0.0169358 6.3151 -0.0800863 6.25195 -0.0800863 6.17405C-0.0800863 6.09615 -0.0169359 6.033 0.0609642 6.033H0.434474C0.464283 6.033 0.488447 6.00884 0.488447 5.97903C0.488447 5.92217 0.41186 5.90396 0.386274 5.95474L0.240947 6.24319ZM0.585174 5.98606C0.525924 6.01546 0.488447 6.07589 0.488447 6.14203C0.488447 6.2382 0.566404 6.31616 0.662568 6.31616H0.84102C0.960292 6.31616 1.05698 6.21947 1.05698 6.10019C1.05698 5.93994 0.888582 5.83551 0.74503 5.90674L0.585174 5.98606ZM0.77218 5.75195V6.31616V5.75195Z" stroke="#FAFDFF" stroke-width="0.15" stroke-linecap="square"/>
<path d="M-0.0800865 6.63281H1.05805M-1.50195 6.63281H-0.364887H-1.50195Z" stroke="#FAFDFF" stroke-width="0.15" stroke-linecap="square"/>
<path d="M1.3418 5.75195H3.04846H1.3418ZM1.49788 6.26436C1.42105 6.28986 1.3418 6.23265 1.3418 6.1517C1.3418 6.08615 1.39494 6.033 1.4605 6.033H1.76875C1.84694 6.033 1.91033 6.09639 1.91033 6.17458C1.91033 6.25277 1.97372 6.31616 2.05191 6.31616H2.33835C2.41654 6.31616 2.47993 6.25277 2.47993 6.17458C2.47993 6.09639 2.41654 6.033 2.33835 6.033H2.23475C2.20851 6.033 2.18244 6.03721 2.15753 6.04548L1.49788 6.26436ZM3.08489 6.24308C3.06255 6.28726 3.01726 6.3151 2.96776 6.3151H2.90578C2.82788 6.3151 2.76473 6.25195 2.76473 6.17405C2.76473 6.09615 2.82788 6.033 2.90578 6.033H3.27914C3.30903 6.033 3.33326 6.00877 3.33326 5.97888C3.33326 5.92191 3.25656 5.90362 3.23085 5.95446L3.08489 6.24308ZM3.42999 5.98606C3.37074 6.01546 3.33326 6.07589 3.33326 6.14203C3.33326 6.2382 3.41122 6.31616 3.50738 6.31616H3.68584C3.80511 6.31616 3.9018 6.21947 3.9018 6.10019C3.9018 5.93994 3.7334 5.83551 3.58985 5.90674L3.42999 5.98606ZM3.617 5.75195V6.31616V5.75195Z" stroke="#FAFDFF" stroke-width="0.15" stroke-linecap="square"/>
<path d="M2.76473 6.63281H3.9018M1.3418 6.63281H2.47993H1.3418Z" stroke="#FAFDFF" stroke-width="0.15" stroke-linecap="square"/>
<path d="M12.7197 13.6833H14.4264H12.7197ZM12.8752 14.1951C12.7986 14.2204 12.7197 14.1634 12.7197 14.0827C12.7197 14.0174 12.7727 13.9644 12.8381 13.9644H13.1472C13.2251 13.9644 13.2883 14.0275 13.2883 14.1054C13.2883 14.1833 13.3514 14.2465 13.4293 14.2465H13.7157C13.7936 14.2465 13.8568 14.1833 13.8568 14.1054C13.8568 14.0275 13.7936 13.9644 13.7157 13.9644H13.6124C13.5863 13.9644 13.5604 13.9686 13.5357 13.9767L12.8752 14.1951ZM14.4626 14.1746C14.4404 14.2187 14.3952 14.2465 14.3459 14.2465H14.2826C14.2047 14.2465 14.1416 14.1833 14.1416 14.1054C14.1416 14.0275 14.2047 13.9644 14.2826 13.9644H14.6562C14.686 13.9644 14.7101 13.9402 14.7101 13.9104C14.7101 13.8536 14.6335 13.8354 14.608 13.8861L14.4626 14.1746ZM14.8069 13.9175C14.7476 13.9469 14.7101 14.0073 14.7101 14.0735C14.7101 14.1696 14.7881 14.2476 14.8842 14.2476H15.0637C15.183 14.2476 15.2797 14.1508 15.2797 14.0315C15.2797 13.8712 15.1114 13.7667 14.9678 13.8379L14.8069 13.9175ZM14.9949 13.6833V14.2465V13.6833Z" stroke="#FAFDFF" stroke-width="0.15" stroke-linecap="square"/>
<path d="M14.1427 13.3669H15.2797M12.7197 13.3669H13.8579H12.7197Z" stroke="#FAFDFF" stroke-width="0.15" stroke-linecap="square"/>
<path d="M15.5645 13.6833H17.2711H15.5645ZM15.7199 14.195C15.6434 14.2204 15.5645 14.1634 15.5645 14.0827C15.5645 14.0174 15.6174 13.9644 15.6828 13.9644H15.9919C16.0698 13.9644 16.133 14.0275 16.133 14.1054C16.133 14.1833 16.1961 14.2465 16.274 14.2465H16.5605C16.6384 14.2465 16.7015 14.1833 16.7015 14.1054C16.7015 14.0275 16.6384 13.9644 16.5605 13.9644H16.4563C16.4301 13.9644 16.404 13.9686 16.3792 13.9768L15.7199 14.195ZM17.3065 14.1745C17.2841 14.2187 17.2388 14.2465 17.1893 14.2465H17.1274C17.0495 14.2465 16.9863 14.1833 16.9863 14.1054C16.9863 14.0275 17.0495 13.9644 17.1274 13.9644H17.5007C17.5306 13.9644 17.5549 13.9402 17.5549 13.9103C17.5549 13.8533 17.4782 13.835 17.4524 13.8859L17.3065 14.1745ZM17.6516 13.9175C17.5923 13.9469 17.5549 14.0073 17.5549 14.0734C17.5549 14.1696 17.6328 14.2476 17.729 14.2476H17.9074C18.0267 14.2476 18.1234 14.1509 18.1234 14.0316C18.1234 13.8713 17.955 13.7669 17.8114 13.8381L17.6516 13.9175ZM17.8397 13.6833V14.2465V13.6833Z" stroke="#FAFDFF" stroke-width="0.15" stroke-linecap="square"/>
<path d="M16.9874 13.3669H18.1255M15.5645 13.3669H16.7026H15.5645Z" stroke="#FAFDFF" stroke-width="0.15" stroke-linecap="square"/>
<path d="M7.03125 13.6833H8.73792H7.03125ZM7.18674 14.1951C7.11016 14.2204 7.03125 14.1634 7.03125 14.0827C7.03125 14.0174 7.08423 13.9644 7.14959 13.9644H7.45873C7.53663 13.9644 7.59978 14.0275 7.59978 14.1054C7.59978 14.1833 7.66293 14.2465 7.74083 14.2465H8.02727C8.10517 14.2465 8.16832 14.1833 8.16832 14.1054C8.16832 14.0275 8.10517 13.9644 8.02727 13.9644H7.92393C7.89787 13.9644 7.87197 13.9686 7.84722 13.9767L7.18674 14.1951ZM8.77415 14.1746C8.75193 14.2187 8.70677 14.2465 8.65739 14.2465H8.59417C8.51627 14.2465 8.45312 14.1833 8.45312 14.1054C8.45312 14.0275 8.51627 13.9644 8.59417 13.9644H8.96768C8.99749 13.9644 9.02165 13.9402 9.02165 13.9104C9.02165 13.8536 8.94506 13.8354 8.91948 13.8861L8.77415 14.1746ZM9.11838 13.9175C9.05913 13.9469 9.02165 14.0073 9.02165 14.0734C9.02165 14.1696 9.09961 14.2476 9.19577 14.2476H9.37422C9.4935 14.2476 9.59018 14.1509 9.59018 14.0316C9.59018 13.8713 9.42179 13.7669 9.27823 13.8381L9.11838 13.9175ZM9.30645 13.6833V14.2465V13.6833Z" stroke="#FAFDFF" stroke-width="0.15" stroke-linecap="square"/>
<path d="M8.45312 13.3669H9.59125M7.03125 13.3669H8.16832H7.03125Z" stroke="#FAFDFF" stroke-width="0.15" stroke-linecap="square"/>
<path d="M9.875 13.6833H11.5817H9.875ZM10.0305 14.1951C9.95391 14.2204 9.875 14.1634 9.875 14.0827C9.875 14.0174 9.92798 13.9644 9.99334 13.9644H10.3025C10.3804 13.9644 10.4435 14.0275 10.4435 14.1054C10.4435 14.1833 10.5067 14.2465 10.5846 14.2465H10.8721C10.95 14.2465 11.0131 14.1833 11.0131 14.1054C11.0131 14.0275 10.95 13.9644 10.8721 13.9644H10.7678C10.7417 13.9644 10.7157 13.9686 10.6908 13.9768L10.0305 14.1951ZM11.6181 14.1745C11.5957 14.2187 11.5505 14.2465 11.501 14.2465H11.4379C11.36 14.2465 11.2969 14.1833 11.2969 14.1054C11.2969 14.0275 11.36 13.9644 11.4379 13.9644H11.8123C11.8422 13.9644 11.8665 13.9402 11.8665 13.9103C11.8665 13.8533 11.7898 13.835 11.7641 13.8859L11.6181 14.1745ZM11.9632 13.9175C11.9039 13.9469 11.8665 14.0073 11.8665 14.0734C11.8665 14.1696 11.9444 14.2476 12.0406 14.2476H12.219C12.3383 14.2476 12.435 14.1509 12.435 14.0316C12.435 13.8713 12.2666 13.7669 12.123 13.8381L11.9632 13.9175ZM12.1502 13.6833V14.2465V13.6833Z" stroke="#FAFDFF" stroke-width="0.15" stroke-linecap="square"/>
<path d="M11.2979 13.3669H12.4361M9.875 13.3669H11.0131H9.875Z" stroke="#FAFDFF" stroke-width="0.15" stroke-linecap="square"/>
<path d="M24.0977 13.6833H25.8043H24.0977ZM24.2531 14.195C24.1766 14.2204 24.0977 14.1634 24.0977 14.0827C24.0977 14.0174 24.1506 13.9644 24.216 13.9644H24.5251C24.603 13.9644 24.6662 14.0275 24.6662 14.1054C24.6662 14.1833 24.7293 14.2465 24.8072 14.2465H25.0937C25.1716 14.2465 25.2347 14.1833 25.2347 14.1054C25.2347 14.0275 25.1716 13.9644 25.0937 13.9644H24.9895C24.9633 13.9644 24.9373 13.9686 24.9124 13.9768L24.2531 14.195ZM25.8397 14.1745C25.8173 14.2187 25.7721 14.2465 25.7226 14.2465H25.6606C25.5827 14.2465 25.5195 14.1833 25.5195 14.1054C25.5195 14.0275 25.5827 13.9644 25.6606 13.9644H26.0339C26.0638 13.9644 26.0881 13.9402 26.0881 13.9103C26.0881 13.8533 26.0114 13.835 25.9856 13.8859L25.8397 14.1745ZM26.1848 13.9175C26.1255 13.9469 26.0881 14.0073 26.0881 14.0734C26.0881 14.1696 26.166 14.2476 26.2622 14.2476H26.4406C26.5599 14.2476 26.6566 14.1509 26.6566 14.0316C26.6566 13.8713 26.4882 13.7669 26.3446 13.8381L26.1848 13.9175ZM26.3729 13.6833V14.2465V13.6833Z" stroke="#FAFDFF" stroke-width="0.15" stroke-linecap="square"/>
<path d="M25.5206 13.3669H26.6587M24.0977 13.3669H25.2358H24.0977Z" stroke="#FAFDFF" stroke-width="0.15" stroke-linecap="square"/>
<path d="M26.9414 13.6833H28.6481H26.9414ZM27.0969 14.1951C27.0203 14.2204 26.9414 14.1634 26.9414 14.0827C26.9414 14.0174 26.9944 13.9644 27.0597 13.9644H27.3689C27.4468 13.9644 27.5099 14.0275 27.5099 14.1054C27.5099 14.1833 27.5731 14.2465 27.651 14.2465H27.9385C28.0164 14.2465 28.0795 14.1833 28.0795 14.1054C28.0795 14.0275 28.0164 13.9644 27.9385 13.9644H27.8342C27.8081 13.9644 27.7821 13.9686 27.7572 13.9768L27.0969 14.1951ZM28.6845 14.1745C28.6622 14.2187 28.6169 14.2465 28.5674 14.2465H28.5043C28.4264 14.2465 28.3633 14.1833 28.3633 14.1054C28.3633 14.0275 28.4264 13.9644 28.5043 13.9644H28.8788C28.9086 13.9644 28.9329 13.9402 28.9329 13.9103C28.9329 13.8533 28.8562 13.835 28.8305 13.8859L28.6845 14.1745ZM29.0296 13.9175C28.9704 13.9469 28.9329 14.0073 28.9329 14.0734C28.9329 14.1696 29.0108 14.2476 29.107 14.2476H29.2854C29.4047 14.2476 29.5014 14.1509 29.5014 14.0316C29.5014 13.8713 29.333 13.7669 29.1895 13.8381L29.0296 13.9175ZM29.2166 13.6833V14.2465V13.6833Z" stroke="#FAFDFF" stroke-width="0.15" stroke-linecap="square"/>
<path d="M28.3643 13.3669H29.5025M26.9414 13.3669H28.0795H26.9414Z" stroke="#FAFDFF" stroke-width="0.15" stroke-linecap="square"/>
<path d="M18.4082 13.6833H20.1149H18.4082ZM18.5637 14.1951C18.4871 14.2204 18.4082 14.1634 18.4082 14.0827C18.4082 14.0174 18.4612 13.9644 18.5265 13.9644H18.8357C18.9136 13.9644 18.9767 14.0275 18.9767 14.1054C18.9767 14.1833 19.0399 14.2465 19.1178 14.2465H19.4053C19.4832 14.2465 19.5463 14.1833 19.5463 14.1054C19.5463 14.0275 19.4832 13.9644 19.4053 13.9644H19.301C19.2749 13.9644 19.2489 13.9686 19.224 13.9768L18.5637 14.1951ZM20.1513 14.1745C20.129 14.2187 20.0837 14.2465 20.0342 14.2465H19.9711C19.8932 14.2465 19.8301 14.1833 19.8301 14.1054C19.8301 14.0275 19.8932 13.9644 19.9711 13.9644H20.3456C20.3754 13.9644 20.3997 13.9402 20.3997 13.9103C20.3997 13.8533 20.323 13.835 20.2973 13.8859L20.1513 14.1745ZM20.4964 13.9175C20.4371 13.9469 20.3997 14.0073 20.3997 14.0734C20.3997 14.1696 20.4776 14.2476 20.5738 14.2476H20.7522C20.8715 14.2476 20.9682 14.1509 20.9682 14.0316C20.9682 13.8713 20.7998 13.7669 20.6563 13.8381L20.4964 13.9175ZM20.6834 13.6833V14.2465V13.6833Z" stroke="#FAFDFF" stroke-width="0.15" stroke-linecap="square"/>
<path d="M19.8311 13.3669H20.9693M18.4082 13.3669H19.5463H18.4082Z" stroke="#FAFDFF" stroke-width="0.15" stroke-linecap="square"/>
<path d="M21.2529 13.6833H22.9596H21.2529ZM21.4084 14.1951C21.3318 14.2204 21.2529 14.1634 21.2529 14.0827C21.2529 14.0174 21.3059 13.9644 21.3713 13.9644H21.6804C21.7583 13.9644 21.8215 14.0275 21.8215 14.1054C21.8215 14.1833 21.8846 14.2465 21.9625 14.2465H22.2489C22.3268 14.2465 22.39 14.1833 22.39 14.1054C22.39 14.0275 22.3268 13.9644 22.2489 13.9644H22.1456C22.1195 13.9644 22.0937 13.9686 22.0689 13.9767L21.4084 14.1951ZM22.9958 14.1746C22.9736 14.2187 22.9284 14.2465 22.8791 14.2465H22.8158C22.7379 14.2465 22.6748 14.1833 22.6748 14.1054C22.6748 14.0275 22.7379 13.9644 22.8158 13.9644H23.1894C23.2192 13.9644 23.2433 13.9402 23.2433 13.9104C23.2433 13.8536 23.1667 13.8354 23.1412 13.8861L22.9958 14.1746ZM23.3401 13.9175C23.2808 13.9469 23.2433 14.0073 23.2433 14.0735C23.2433 14.1696 23.3213 14.2476 23.4174 14.2476H23.5969C23.7162 14.2476 23.8129 14.1508 23.8129 14.0315C23.8129 13.8712 23.6446 13.7667 23.501 13.8379L23.3401 13.9175ZM23.5281 13.6833V14.2465V13.6833Z" stroke="#FAFDFF" stroke-width="0.15" stroke-linecap="square"/>
<path d="M22.6759 13.3669H23.8129M21.2529 13.3669H22.3911H21.2529Z" stroke="#FAFDFF" stroke-width="0.15" stroke-linecap="square"/>
<path d="M4.18652 13.6833H5.89319H4.18652ZM4.34201 14.1951C4.26543 14.2204 4.18652 14.1634 4.18652 14.0827C4.18652 14.0174 4.23951 13.9644 4.30486 13.9644H4.61401C4.69191 13.9644 4.75506 14.0275 4.75506 14.1054C4.75506 14.1833 4.81821 14.2465 4.89611 14.2465H5.18254C5.26044 14.2465 5.32359 14.1833 5.32359 14.1054C5.32359 14.0275 5.26044 13.9644 5.18254 13.9644H5.07921C5.05314 13.9644 5.02724 13.9686 5.0025 13.9767L4.34201 14.1951ZM5.92942 14.1746C5.90721 14.2187 5.86204 14.2465 5.81266 14.2465H5.74944C5.67154 14.2465 5.60839 14.1833 5.60839 14.1054C5.60839 14.0275 5.67154 13.9644 5.74944 13.9644H6.12295C6.15276 13.9644 6.17692 13.9402 6.17692 13.9104C6.17692 13.8536 6.10034 13.8354 6.07475 13.8861L5.92942 14.1746ZM6.27374 13.9175C6.21444 13.9469 6.17692 14.0073 6.17692 14.0735C6.17692 14.1696 6.25486 14.2476 6.35099 14.2476H6.53045C6.64978 14.2476 6.74652 14.1508 6.74652 14.0315C6.74652 13.8712 6.57817 13.7667 6.43456 13.8379L6.27374 13.9175ZM6.46172 13.6833V14.2465V13.6833Z" stroke="#FAFDFF" stroke-width="0.15" stroke-linecap="square"/>
<path d="M5.60946 13.3669H6.74652M4.18652 13.3669H5.32466H4.18652Z" stroke="#FAFDFF" stroke-width="0.15" stroke-linecap="square"/>
<path d="M-1.50195 13.6833H0.204714H-1.50195ZM-1.34647 14.1951C-1.42304 14.2204 -1.50195 14.1634 -1.50195 14.0827C-1.50195 14.0174 -1.44897 13.9644 -1.38361 13.9644H-1.07447C-0.99657 13.9644 -0.93342 14.0275 -0.93342 14.1054C-0.93342 14.1833 -0.870269 14.2465 -0.792369 14.2465H-0.505937C-0.428037 14.2465 -0.364886 14.1833 -0.364886 14.1054C-0.364886 14.0275 -0.428037 13.9644 -0.505937 13.9644H-0.609271C-0.635336 13.9644 -0.661232 13.9686 -0.685979 13.9767L-1.34647 14.1951ZM0.240947 14.1746C0.218729 14.2187 0.173564 14.2465 0.124187 14.2465H0.0609646C-0.0169357 14.2465 -0.0800863 14.1833 -0.0800863 14.1054C-0.0800863 14.0275 -0.0169357 13.9644 0.0609645 13.9644H0.434475C0.464283 13.9644 0.488447 13.9402 0.488447 13.9104C0.488447 13.8536 0.41186 13.8354 0.386274 13.8861L0.240947 14.1746ZM0.585175 13.9175C0.525924 13.9469 0.488447 14.0073 0.488447 14.0734C0.488447 14.1696 0.566404 14.2476 0.662568 14.2476H0.84102C0.960291 14.2476 1.05698 14.1509 1.05698 14.0316C1.05698 13.8713 0.888583 13.7669 0.74503 13.8381L0.585175 13.9175ZM0.773247 13.6833V14.2465V13.6833Z" stroke="#FAFDFF" stroke-width="0.15" stroke-linecap="square"/>
<path d="M-0.0800865 13.3669H1.05805M-1.50195 13.3669H-0.364887H-1.50195Z" stroke="#FAFDFF" stroke-width="0.15" stroke-linecap="square"/>
<path d="M1.3418 13.6833H3.04846H1.3418ZM1.49728 14.1951C1.42071 14.2204 1.3418 14.1634 1.3418 14.0827C1.3418 14.0174 1.39478 13.9644 1.46014 13.9644H1.76928C1.84718 13.9644 1.91033 14.0275 1.91033 14.1054C1.91033 14.1833 1.97348 14.2465 2.05138 14.2465H2.33888C2.41678 14.2465 2.47993 14.1833 2.47993 14.1054C2.47993 14.0275 2.41678 13.9644 2.33888 13.9644H2.23463C2.20846 13.9644 2.18247 13.9686 2.15763 13.9768L1.49728 14.1951ZM3.08489 14.1745C3.06255 14.2187 3.01726 14.2465 2.96776 14.2465H2.90578C2.82788 14.2465 2.76473 14.1833 2.76473 14.1054C2.76473 14.0275 2.82788 13.9644 2.90578 13.9644H3.27914C3.30903 13.9644 3.33326 13.9402 3.33326 13.9103C3.33326 13.8533 3.25656 13.835 3.23085 13.8859L3.08489 14.1745ZM3.42999 13.9175C3.37074 13.9469 3.33326 14.0073 3.33326 14.0734C3.33326 14.1696 3.41122 14.2476 3.50738 14.2476H3.68584C3.80511 14.2476 3.9018 14.1509 3.9018 14.0316C3.9018 13.8713 3.7334 13.7669 3.58985 13.8381L3.42999 13.9175ZM3.617 13.6833V14.2465V13.6833Z" stroke="#FAFDFF" stroke-width="0.15" stroke-linecap="square"/>
<path d="M2.76473 13.3669H3.9018M1.3418 13.3669H2.47993H1.3418Z" stroke="#FAFDFF" stroke-width="0.15" stroke-linecap="square"/>
<path d="M16.1911 9.71272C16.1258 9.32909 15.5512 9.07685 15.6861 9.4419C15.8152 9.7914 16.1413 10.6169 16.1958 10.2484C16.2221 10.0708 16.2212 9.88971 16.1911 9.71272Z" fill="#DA0000"/>
<path d="M14.309 8.3172C14.127 8.34513 13.8724 8.34394 13.6904 8.31569C13.6339 8.30692 13.5806 8.28418 13.5359 8.25129C13.3938 8.14684 13.7183 8.17425 13.8718 8.08751C14 8.01506 14 8.01506 14.1283 8.08751C14.2818 8.17425 14.6065 8.14664 14.465 8.25181C14.4199 8.28532 14.3661 8.30845 14.309 8.3172Z" fill="#DA0000"/>
<path d="M14.128 12.0273C14.0638 12.1089 13.9388 12.1096 13.8754 12.0272C13.8366 11.9769 13.7717 11.955 13.7093 11.9668C13.6083 11.986 13.5061 11.9961 13.404 11.9972C13.2763 11.9985 13.3905 11.8369 13.5128 11.8C13.6037 11.7726 13.5161 11.6854 13.4397 11.6291C13.1279 11.3994 12.5511 10.8565 12.5667 9.99271C12.5897 9.56242 12.847 9.70721 12.9358 10.1289C12.9665 10.2747 13.0152 10.4244 13.0868 10.5756C13.277 10.9772 13.7763 10.7565 13.7569 10.3125L13.7326 9.75587V8.64527C13.7326 8.56068 13.8083 8.46639 13.8716 8.41032C13.9544 8.33697 14.0505 8.33697 14.1333 8.41032C14.1966 8.46639 14.2723 8.56068 14.2723 8.64527V9.75587L14.2476 10.32C14.2283 10.7615 14.7251 10.9818 14.9161 10.5833C14.9901 10.429 15.0401 10.2762 15.0713 10.1275C15.1591 9.70894 15.4142 9.56566 15.4382 9.99271C15.4539 10.8628 14.8696 11.4067 14.5593 11.6336C14.4833 11.6892 14.3933 11.771 14.4833 11.799C14.6067 11.8373 14.7224 11.999 14.5931 11.9971C14.4936 11.9955 14.3941 11.9855 14.2957 11.9669C14.2331 11.955 14.1675 11.9772 14.128 12.0273Z" fill="#DA0000"/>
<path d="M11.8087 9.71272C11.8741 9.32909 12.4486 9.07685 12.3137 9.4419C12.1846 9.7914 11.8585 10.6169 11.804 10.2484C11.7777 10.0708 11.7786 9.88971 11.8087 9.71272Z" fill="#DA0000"/>
</g>
<defs>
<clipPath id="clip0_14274_23655">
<rect width="28" height="20" rx="3" fill="white"/>
</clipPath>
</defs>
</svg>
