<svg width="28" height="20" viewBox="0 0 28 20" fill="none" xmlns="http://www.w3.org/2000/svg">
<g clip-path="url(#clip0_14274_23651)">
<path d="M32 0H0V20H32V0Z" fill="#00AFCA"/>
<path d="M15.7637 6.36964C15.7866 6.37645 15.8108 6.37815 15.8344 6.37462C15.858 6.37108 15.8806 6.36239 15.9004 6.34919C15.9202 6.33599 15.9368 6.3186 15.9489 6.29828C15.9611 6.27797 15.9685 6.25524 15.9707 6.23174C15.9761 5.98228 15.9665 5.73271 15.9419 5.48438C15.8216 5.70454 15.7147 5.93161 15.6219 6.16437C15.6148 6.18719 15.6129 6.21129 15.6166 6.23489C15.6202 6.25849 15.6291 6.28098 15.6427 6.3007C15.6564 6.32042 15.6743 6.33685 15.6953 6.34879C15.7162 6.36072 15.7396 6.36785 15.7637 6.36964Z" fill="#FEC50C"/>
<path d="M16.2229 6.50646C16.244 6.51758 16.2674 6.5239 16.2914 6.52498C16.3153 6.52605 16.3391 6.52185 16.3612 6.51268C16.3833 6.5035 16.403 6.48958 16.4189 6.47194C16.4349 6.45429 16.4466 6.43336 16.4533 6.41067C16.5079 6.16761 16.5478 5.92156 16.5728 5.67383C16.4143 5.86648 16.2676 6.06824 16.1333 6.27804C16.1217 6.29845 16.1149 6.32114 16.1132 6.34448C16.1115 6.36782 16.1151 6.39123 16.1237 6.41305C16.1322 6.43487 16.1455 6.45456 16.1627 6.4707C16.1799 6.48685 16.2004 6.49906 16.2229 6.50646Z" fill="#FEC50C"/>
<path d="M16.6462 6.73099C16.6647 6.74605 16.6864 6.75683 16.7097 6.76254C16.733 6.76826 16.7573 6.76876 16.7808 6.76402C16.8043 6.75928 16.8264 6.74941 16.8456 6.73513C16.8648 6.72086 16.8804 6.70254 16.8915 6.68152C16.9933 6.45321 17.0813 6.21911 17.155 5.98047C16.9596 6.13888 16.7741 6.30865 16.5992 6.48889C16.5838 6.50697 16.5727 6.5282 16.5667 6.55104C16.5607 6.57389 16.5599 6.59777 16.5644 6.62095C16.5689 6.64413 16.5786 6.66604 16.5927 6.68507C16.6068 6.70411 16.6251 6.71979 16.6462 6.73099Z" fill="#FEC50C"/>
<path d="M17.0166 7.03137C17.0317 7.04964 17.0507 7.06437 17.0723 7.07448C17.0939 7.08459 17.1175 7.08984 17.1414 7.08984C17.1653 7.08984 17.1889 7.08459 17.2104 7.07448C17.232 7.06437 17.2511 7.04964 17.2662 7.03137C17.4111 6.82707 17.5436 6.61441 17.663 6.39453C17.4402 6.51228 17.2247 6.64304 17.0176 6.78611C16.9992 6.80094 16.9844 6.81961 16.9742 6.84077C16.964 6.86193 16.9586 6.88505 16.9585 6.90849C16.9584 6.93193 16.9635 6.95511 16.9736 6.97635C16.9836 6.99759 16.9983 7.01638 17.0166 7.03137Z" fill="#FEC50C"/>
<path d="M17.3205 7.39583C17.3317 7.41669 17.3475 7.43481 17.3668 7.44887C17.386 7.46293 17.4082 7.47258 17.4317 7.47712C17.4552 7.48166 17.4794 7.48097 17.5026 7.4751C17.5258 7.46923 17.5474 7.45833 17.5658 7.4432C17.7484 7.27066 17.9205 7.08753 18.081 6.89478C17.8391 6.96845 17.6019 7.05632 17.3706 7.15793C17.35 7.16894 17.332 7.18426 17.318 7.20282C17.304 7.22138 17.2943 7.24273 17.2895 7.26538C17.2847 7.28804 17.285 7.31145 17.2904 7.33398C17.2957 7.35651 17.306 7.37762 17.3205 7.39583Z" fill="#FEC50C"/>
<path d="M17.5471 7.81401C17.554 7.83667 17.566 7.85751 17.5821 7.87503C17.5982 7.89255 17.6181 7.9063 17.6402 7.91527C17.6624 7.92425 17.6863 7.92823 17.7103 7.92692C17.7342 7.92561 17.7575 7.91904 17.7786 7.9077C17.9917 7.77354 18.1965 7.62696 18.3919 7.46875C18.1409 7.49338 17.8915 7.53275 17.6452 7.58665C17.6222 7.59314 17.6008 7.60464 17.5828 7.62031C17.5648 7.63598 17.5506 7.65543 17.5412 7.67722C17.5318 7.69902 17.5274 7.72261 17.5285 7.74628C17.5295 7.76995 17.5359 7.79309 17.5471 7.81401Z" fill="#FEC50C"/>
<path d="M17.6853 8.26628C17.6875 8.29033 17.6952 8.31357 17.7079 8.33423C17.7206 8.35489 17.7379 8.37243 17.7584 8.38552C17.779 8.39861 17.8023 8.40691 17.8266 8.40977C17.8509 8.41264 17.8755 8.41001 17.8986 8.40207C18.1345 8.31046 18.3646 8.20501 18.5877 8.08628C18.3361 8.06196 18.0832 8.05247 17.8304 8.05786C17.8056 8.05907 17.7815 8.0659 17.7598 8.07783C17.7382 8.08976 17.7196 8.10645 17.7055 8.12662C17.6915 8.1468 17.6824 8.16989 17.6789 8.19412C17.6754 8.21834 17.6776 8.24304 17.6853 8.26628Z" fill="#FEC50C"/>
<path d="M17.7337 8.7368C17.7313 8.76028 17.7343 8.78397 17.7424 8.80617C17.7505 8.82837 17.7635 8.84851 17.7804 8.86514C17.7974 8.88177 17.8179 8.89446 17.8404 8.90231C17.863 8.91015 17.887 8.91295 17.9108 8.91049C18.1597 8.86711 18.4059 8.80912 18.6478 8.7368C18.4059 8.66449 18.1597 8.6065 17.9108 8.56312C17.887 8.56066 17.863 8.56346 17.8404 8.5713C17.8179 8.57915 17.7974 8.59184 17.7804 8.60847C17.7635 8.6251 17.7505 8.64524 17.7424 8.66744C17.7343 8.68964 17.7313 8.71333 17.7337 8.7368Z" fill="#FEC50C"/>
<path d="M17.6851 9.20734C17.6782 9.22992 17.6765 9.25374 17.68 9.27707C17.6836 9.3004 17.6924 9.32264 17.7058 9.34219C17.7192 9.36174 17.7368 9.37811 17.7574 9.39011C17.778 9.4021 17.801 9.40943 17.8248 9.41155C18.0776 9.41694 18.3305 9.40745 18.5822 9.38313C18.3591 9.2644 18.129 9.15895 17.8931 9.06734C17.87 9.06031 17.8455 9.05852 17.8216 9.06209C17.7977 9.06565 17.7749 9.07449 17.7549 9.08794C17.735 9.10139 17.7183 9.1191 17.7062 9.13977C17.6941 9.16044 17.6869 9.18354 17.6851 9.20734Z" fill="#FEC50C"/>
<path d="M17.5463 9.65953C17.535 9.68039 17.5286 9.70346 17.5275 9.72707C17.5264 9.75068 17.5307 9.77423 17.54 9.79601C17.5493 9.81779 17.5634 9.83725 17.5813 9.85298C17.5991 9.8687 17.6204 9.88029 17.6433 9.8869C17.8896 9.94079 18.139 9.98016 18.39 10.0048C18.1946 9.84658 17.9898 9.70001 17.7767 9.56585C17.7557 9.5547 17.7324 9.54829 17.7086 9.54708C17.6848 9.54588 17.661 9.5499 17.639 9.55886C17.617 9.56782 17.5972 9.5815 17.5812 9.59891C17.5651 9.61632 17.5532 9.63703 17.5463 9.65953Z" fill="#FEC50C"/>
<path d="M17.3209 10.0779C17.3056 10.0962 17.2947 10.1176 17.2889 10.1406C17.2831 10.1636 17.2826 10.1876 17.2874 10.2108C17.2922 10.234 17.3022 10.2558 17.3167 10.2747C17.3312 10.2936 17.3497 10.3091 17.371 10.32C17.6024 10.4206 17.8396 10.5074 18.0814 10.58C17.9209 10.3873 17.7489 10.2041 17.5662 10.0316C17.5479 10.0164 17.5264 10.0055 17.5033 9.99951C17.4801 9.99356 17.4559 9.99278 17.4324 9.99722C17.4089 10.0017 17.3867 10.0112 17.3674 10.0252C17.3482 10.0391 17.3323 10.0571 17.3209 10.0779Z" fill="#FEC50C"/>
<path d="M17.0168 10.444C16.9983 10.4589 16.9833 10.4777 16.9731 10.499C16.9628 10.5203 16.9575 10.5436 16.9575 10.5672C16.9575 10.5908 16.9628 10.614 16.9731 10.6353C16.9833 10.6566 16.9983 10.6754 17.0168 10.6903C17.2238 10.8334 17.4393 10.9642 17.6621 11.0819C17.5428 10.862 17.4103 10.6494 17.2653 10.4451C17.2503 10.4269 17.2314 10.4123 17.2099 10.4022C17.1885 10.3921 17.165 10.3868 17.1413 10.3867C17.1175 10.3866 17.0941 10.3917 17.0725 10.4016C17.051 10.4115 17.032 10.426 17.0168 10.444Z" fill="#FEC50C"/>
<path d="M16.6469 10.7427C16.6258 10.7538 16.6074 10.7694 16.5931 10.7884C16.5789 10.8074 16.5691 10.8293 16.5645 10.8525C16.5599 10.8756 16.5606 10.8996 16.5666 10.9224C16.5725 10.9453 16.5836 10.9666 16.5989 10.9848C16.7737 11.165 16.9593 11.3348 17.1546 11.4932C17.081 11.2546 16.993 11.0205 16.8912 10.7921C16.8801 10.7713 16.8644 10.7531 16.8454 10.739C16.8263 10.7248 16.8043 10.715 16.7809 10.7103C16.7575 10.7055 16.7334 10.706 16.7102 10.7116C16.687 10.7172 16.6654 10.7278 16.6469 10.7427Z" fill="#FEC50C"/>
<path d="M16.2226 10.9678C16.1996 10.9746 16.1785 10.9864 16.1607 11.0023C16.143 11.0182 16.1291 11.0378 16.12 11.0597C16.1109 11.0815 16.1068 11.1052 16.1082 11.1288C16.1095 11.1524 16.1161 11.1754 16.1276 11.1962C16.2636 11.4065 16.4121 11.6086 16.5724 11.8014C16.5475 11.5537 16.5076 11.3077 16.453 11.0646C16.4464 11.0418 16.4347 11.0208 16.4189 11.003C16.403 10.9853 16.3833 10.9712 16.3612 10.9619C16.3391 10.9526 16.3152 10.9484 16.2912 10.9494C16.2672 10.9504 16.2438 10.9567 16.2226 10.9678Z" fill="#FEC50C"/>
<path d="M13.9282 10.7433C13.9097 10.7282 13.888 10.7174 13.8647 10.7117C13.8414 10.706 13.8171 10.7055 13.7936 10.7102C13.7701 10.715 13.7479 10.7249 13.7288 10.7391C13.7096 10.7534 13.694 10.7717 13.6829 10.7927C13.581 11.0211 13.4931 11.2552 13.4194 11.4938C13.6148 11.3354 13.8003 11.1656 13.9752 10.9854C13.9905 10.9673 14.0017 10.9461 14.0077 10.9232C14.0137 10.9004 14.0145 10.8765 14.01 10.8533C14.0055 10.8301 13.9958 10.8082 13.9817 10.7892C13.9675 10.7702 13.9493 10.7545 13.9282 10.7433Z" fill="#FEC50C"/>
<path d="M13.5585 10.4432C13.5434 10.425 13.5244 10.4102 13.5028 10.4001C13.4812 10.39 13.4576 10.3848 13.4337 10.3848C13.4098 10.3848 13.3862 10.39 13.3646 10.4001C13.343 10.4102 13.324 10.425 13.3089 10.4432C13.1639 10.6475 13.0314 10.8602 12.9121 11.0801C13.1349 10.9623 13.3504 10.8316 13.5574 10.6885C13.5758 10.6737 13.5907 10.655 13.6009 10.6338C13.6111 10.6127 13.6165 10.5896 13.6166 10.5661C13.6167 10.5427 13.6115 10.5195 13.6015 10.4983C13.5914 10.477 13.5768 10.4582 13.5585 10.4432Z" fill="#FEC50C"/>
<path d="M13.2537 10.0764C13.2424 10.0556 13.2266 10.0375 13.2074 10.0234C13.1881 10.0093 13.166 9.99968 13.1425 9.99515C13.119 9.99061 13.0947 9.9913 13.0715 9.99717C13.0483 10.003 13.0268 10.0139 13.0084 10.0291C12.8257 10.2016 12.6537 10.3847 12.4932 10.5775C12.7354 10.5038 12.973 10.416 13.2046 10.3143C13.2252 10.3032 13.243 10.2878 13.2569 10.2692C13.2708 10.2506 13.2804 10.2293 13.2851 10.2066C13.2898 10.184 13.2894 10.1606 13.284 10.1381C13.2785 10.1156 13.2682 10.0946 13.2537 10.0764Z" fill="#FEC50C"/>
<path d="M13.0281 9.66002C13.0212 9.63737 13.0093 9.61652 12.9932 9.59901C12.9771 9.58149 12.9572 9.56774 12.935 9.55876C12.9128 9.54979 12.8889 9.54581 12.865 9.54712C12.841 9.54843 12.8177 9.555 12.7967 9.56634C12.5846 9.7006 12.3809 9.84718 12.1865 10.0053C12.4376 9.98065 12.6869 9.94129 12.9332 9.88739C12.956 9.88054 12.977 9.86878 12.9946 9.85295C13.0123 9.83713 13.0261 9.81764 13.0352 9.79589C13.0443 9.77414 13.0484 9.75066 13.0471 9.72717C13.0459 9.70367 13.0394 9.68074 13.0281 9.66002Z" fill="#FEC50C"/>
<path d="M12.8892 9.20736C12.887 9.18331 12.8793 9.16007 12.8666 9.13941C12.8539 9.11875 12.8367 9.10121 12.8161 9.08812C12.7955 9.07503 12.7722 9.06674 12.7479 9.06387C12.7236 9.061 12.699 9.06363 12.6759 9.07157C12.44 9.16318 12.2099 9.26863 11.9868 9.38736C12.2385 9.41168 12.4914 9.42117 12.7441 9.41578C12.7689 9.41457 12.7931 9.40774 12.8147 9.39581C12.8364 9.38389 12.8549 9.36719 12.869 9.34702C12.883 9.32685 12.8921 9.30375 12.8957 9.27953C12.8992 9.2553 12.897 9.2306 12.8892 9.20736Z" fill="#FEC50C"/>
<path d="M12.8424 8.7368C12.8448 8.71333 12.8418 8.68964 12.8337 8.66744C12.8256 8.64524 12.8127 8.6251 12.7957 8.60847C12.7788 8.59184 12.7583 8.57915 12.7357 8.5713C12.7132 8.56346 12.6892 8.56066 12.6654 8.56312C12.416 8.60645 12.1696 8.66445 11.9272 8.7368C12.1692 8.80912 12.4153 8.86711 12.6643 8.91049C12.6882 8.91312 12.7123 8.91045 12.735 8.90268C12.7577 8.89491 12.7783 8.88224 12.7954 8.86559C12.8124 8.84894 12.8255 8.82874 12.8337 8.80645C12.8418 8.78417 12.8448 8.76038 12.8424 8.7368Z" fill="#FEC50C"/>
<path d="M12.8902 8.26622C12.8971 8.24364 12.8989 8.21982 12.8953 8.19649C12.8917 8.17317 12.8829 8.15092 12.8695 8.13137C12.8561 8.11182 12.8385 8.09545 12.8179 8.08345C12.7973 8.07146 12.7743 8.06413 12.7505 8.06201C12.4977 8.05662 12.2448 8.06611 11.9932 8.09044C12.2163 8.20916 12.4464 8.31461 12.6822 8.40622C12.7053 8.41325 12.7298 8.41504 12.7537 8.41147C12.7776 8.40791 12.8004 8.39907 12.8204 8.38562C12.8404 8.37218 12.857 8.35446 12.8691 8.33379C12.8812 8.31312 12.8884 8.29003 12.8902 8.26622Z" fill="#FEC50C"/>
<path d="M13.0283 7.81401C13.0396 7.79316 13.046 7.77008 13.0471 7.74648C13.0482 7.72287 13.0439 7.69931 13.0346 7.67753C13.0253 7.65575 13.0112 7.63629 12.9933 7.62057C12.9754 7.60485 12.9542 7.59326 12.9312 7.58665C12.6849 7.53275 12.4356 7.49338 12.1846 7.46875C12.38 7.62696 12.5848 7.77354 12.7979 7.9077C12.8189 7.91884 12.8421 7.92525 12.8659 7.92646C12.8898 7.92767 12.9135 7.92365 12.9356 7.91468C12.9576 7.90572 12.9774 7.89204 12.9934 7.87463C13.0094 7.85722 13.0214 7.83652 13.0283 7.81401Z" fill="#FEC50C"/>
<path d="M13.2537 7.39664C13.269 7.37835 13.2799 7.35693 13.2857 7.33395C13.2915 7.31096 13.292 7.28699 13.2872 7.26378C13.2824 7.24057 13.2724 7.21872 13.2579 7.19982C13.2434 7.18092 13.2249 7.16544 13.2036 7.15453C12.9722 7.054 12.735 6.96718 12.4932 6.89453C12.6537 7.08728 12.8257 7.27042 13.0084 7.44295C13.0267 7.45813 13.0482 7.46909 13.0713 7.47503C13.0945 7.48098 13.1187 7.48176 13.1422 7.47733C13.1657 7.47289 13.1879 7.46335 13.2072 7.44939C13.2265 7.43544 13.2423 7.41741 13.2537 7.39664Z" fill="#FEC50C"/>
<path d="M13.5584 7.03047C13.5769 7.01557 13.5919 6.99678 13.6021 6.97548C13.6124 6.95418 13.6177 6.9309 13.6177 6.90732C13.6177 6.88374 13.6124 6.86045 13.6021 6.83915C13.5919 6.81785 13.5769 6.79906 13.5584 6.78416C13.3514 6.64109 13.1359 6.51033 12.9131 6.39258C13.0324 6.61246 13.1649 6.82511 13.3099 7.02942C13.3249 7.04757 13.3438 7.06221 13.3653 7.0723C13.3867 7.08239 13.4101 7.08767 13.4339 7.08777C13.4577 7.08787 13.4811 7.08279 13.5027 7.07288C13.5242 7.06298 13.5432 7.04849 13.5584 7.03047Z" fill="#FEC50C"/>
<path d="M15.2844 10.8656C16.4732 10.8656 17.4369 9.91457 17.4369 8.7414C17.4369 7.56823 16.4732 6.61719 15.2844 6.61719C14.0956 6.61719 13.1318 7.56823 13.1318 8.7414C13.1318 9.91457 14.0956 10.8656 15.2844 10.8656Z" fill="#FEC50C"/>
<path d="M15.2877 6.32422C15.3115 6.32654 15.3355 6.3236 15.358 6.31562C15.3805 6.30764 15.4009 6.29483 15.4178 6.2781C15.4346 6.26137 15.4475 6.24115 15.4554 6.2189C15.4634 6.19666 15.4662 6.17295 15.4637 6.14949C15.4198 5.90379 15.361 5.6609 15.2877 5.42212C15.2144 5.66091 15.1557 5.90379 15.1117 6.14949C15.1092 6.17295 15.1121 6.19666 15.12 6.2189C15.128 6.24115 15.1408 6.26137 15.1577 6.2781C15.1745 6.29483 15.1949 6.30764 15.2174 6.31562C15.2399 6.3236 15.2639 6.32654 15.2877 6.32422Z" fill="#FEC50C"/>
<path d="M15.7647 11.1017C15.7403 11.1039 15.7168 11.1115 15.6959 11.124C15.6749 11.1365 15.6571 11.1536 15.6439 11.1739C15.6306 11.1941 15.6222 11.2172 15.6193 11.2411C15.6164 11.2651 15.6191 11.2894 15.6271 11.3122C15.7199 11.545 15.8268 11.7721 15.9471 11.9922C15.9718 11.7439 15.9814 11.4943 15.9759 11.2449C15.9747 11.2204 15.9678 11.1966 15.9557 11.1752C15.9436 11.1539 15.9267 11.1355 15.9062 11.1217C15.8858 11.1078 15.8624 11.0988 15.8378 11.0954C15.8133 11.0919 15.7883 11.0941 15.7647 11.1017Z" fill="#FEC50C"/>
<path d="M15.2877 11.1492C15.2639 11.1469 15.2399 11.1498 15.2174 11.1578C15.1949 11.1658 15.1745 11.1786 15.1577 11.1953C15.1408 11.2121 15.128 11.2323 15.12 11.2545C15.1121 11.2768 15.1092 11.3005 15.1117 11.3239C15.1557 11.5696 15.2144 11.8125 15.2877 12.0513C15.361 11.8125 15.4198 11.5696 15.4637 11.3239C15.4662 11.3005 15.4634 11.2768 15.4554 11.2545C15.4475 11.2323 15.4346 11.2121 15.4178 11.1953C15.4009 11.1786 15.3805 11.1658 15.358 11.1578C15.3355 11.1498 15.3115 11.1469 15.2877 11.1492Z" fill="#FEC50C"/>
<path d="M14.8105 11.1044C14.7876 11.0976 14.7635 11.0959 14.7398 11.0995C14.7162 11.103 14.6936 11.1117 14.6738 11.1249C14.654 11.1381 14.6374 11.1555 14.6253 11.1758C14.6131 11.1961 14.6057 11.2188 14.6035 11.2423C14.5981 11.4918 14.6077 11.7414 14.6323 11.9897C14.7527 11.7695 14.8595 11.5425 14.9523 11.3097C14.9595 11.2869 14.9613 11.2628 14.9577 11.2392C14.9541 11.2156 14.9451 11.1931 14.9315 11.1734C14.9178 11.1536 14.8999 11.1372 14.8789 11.1253C14.858 11.1133 14.8346 11.1062 14.8105 11.1044Z" fill="#FEC50C"/>
<path d="M14.3518 10.9659C14.3307 10.9548 14.3073 10.9485 14.2834 10.9474C14.2595 10.9464 14.2356 10.9506 14.2135 10.9597C14.1914 10.9689 14.1717 10.9828 14.1558 11.0005C14.1399 11.0181 14.1281 11.039 14.1214 11.0617C14.0668 11.3048 14.0269 11.5508 14.002 11.7986C14.1623 11.6057 14.3108 11.4036 14.4468 11.1933C14.458 11.1726 14.4645 11.1497 14.4658 11.1262C14.467 11.1027 14.4629 11.0792 14.4538 11.0575C14.4448 11.0357 14.4309 11.0162 14.4132 11.0004C14.3956 10.9846 14.3746 10.9728 14.3518 10.9659Z" fill="#FEC50C"/>
<path d="M13.9281 6.73099C13.9493 6.71989 13.9676 6.70427 13.9819 6.68528C13.9961 6.66629 14.0059 6.6444 14.0105 6.62121C14.0151 6.59802 14.0144 6.57411 14.0085 6.55122C14.0025 6.52833 13.9915 6.50704 13.9761 6.48889C13.8013 6.30866 13.6157 6.13889 13.4204 5.98047C13.4926 6.21902 13.5792 6.45312 13.6796 6.68152C13.6906 6.70306 13.7064 6.72185 13.7258 6.73648C13.7452 6.75111 13.7677 6.76119 13.7917 6.76595C13.8156 6.77072 13.8403 6.77005 13.864 6.76399C13.8876 6.75794 13.9096 6.74665 13.9281 6.73099Z" fill="#FEC50C"/>
<path d="M14.352 6.50751C14.375 6.5007 14.3961 6.48891 14.4138 6.47301C14.4316 6.45711 14.4455 6.43751 14.4546 6.41562C14.4637 6.39373 14.4677 6.37012 14.4664 6.3465C14.4651 6.32288 14.4584 6.29985 14.4469 6.27909C14.3103 6.06873 14.1611 5.86662 14 5.67383C14.025 5.92156 14.0649 6.16761 14.1195 6.41067C14.126 6.43375 14.1377 6.45507 14.1537 6.47306C14.1697 6.49104 14.1897 6.50522 14.212 6.51454C14.2344 6.52385 14.2586 6.52805 14.2828 6.52684C14.3071 6.52562 14.3307 6.51901 14.352 6.50751Z" fill="#FEC50C"/>
<path d="M14.8104 6.37099C14.8347 6.36882 14.8583 6.36119 14.8792 6.34869C14.9001 6.33619 14.9179 6.31914 14.9312 6.29885C14.9444 6.27856 14.9529 6.25555 14.9558 6.23157C14.9587 6.20759 14.956 6.18328 14.948 6.16047C14.8551 5.92771 14.7483 5.70063 14.628 5.48047C14.6033 5.7288 14.5937 5.97837 14.5992 6.22784C14.6004 6.25228 14.6073 6.27611 14.6194 6.29748C14.6315 6.31884 14.6484 6.33717 14.6688 6.35102C14.6893 6.36488 14.7127 6.37389 14.7372 6.37735C14.7618 6.38082 14.7868 6.37864 14.8104 6.37099Z" fill="#FEC50C"/>
<path d="M15.2121 12.446L15.1748 12.5197L15.1332 12.6134L15.1086 12.6586L15.0884 12.6997L15.0724 12.7323L15.0521 12.7523L15.003 12.7112L14.9497 12.6744L14.8921 12.646L14.8302 12.6218L14.7641 12.606L14.698 12.5902L14.6318 12.5776L14.5614 12.5691L14.4174 12.5565H14.2734L14.1326 12.5481L13.9993 12.526L13.9246 12.5134L13.8542 12.4976L13.8169 12.4849L13.7796 12.4723L13.7465 12.4555L13.7177 12.4397L13.6718 12.4113L13.626 12.3786L13.5769 12.3418L13.531 12.3007L13.4361 12.2112L13.3412 12.1218L13.2462 12.0365L13.1598 11.9586L13.1182 11.9302L13.0766 11.9018L13.0393 11.886L13.002 11.8734L12.9316 11.8576L12.8697 11.8376L12.8078 11.8176L12.746 11.7891L12.6926 11.7649L12.6393 11.7323L12.5902 11.6997L12.5444 11.667L12.4953 11.6302L12.4537 11.5934L12.4121 11.5523L12.3705 11.5112L12.2926 11.426L12.218 11.3365L12.0697 11.1449L11.914 10.947L11.8233 10.8534L11.7284 10.7597L11.675 10.7112L11.6217 10.666L11.5641 10.6249L11.5022 10.5797H11.4894L11.4766 10.5923L11.4638 10.6091L11.4553 10.6291L11.4425 10.666V10.6818L11.4137 10.6691L11.3892 10.6565L11.3604 10.6439L11.3358 10.6355H11.2825L11.2537 10.6439L11.2249 10.6565L11.2537 10.6934L11.291 10.7418L11.3284 10.7986L11.3614 10.8597L11.3945 10.9249L11.419 10.986L11.4276 11.0186L11.4361 11.0428V11.0712V11.0955H11.2132L11.2462 11.1439L11.2836 11.1923L11.3252 11.2407L11.371 11.286L11.4169 11.3312L11.4628 11.3765L11.5086 11.4134L11.5502 11.4418H11.5044H11.4425L11.3806 11.4502H11.3348L11.3721 11.4828L11.418 11.5155L11.467 11.5523L11.5204 11.5891L11.5737 11.6218L11.627 11.6502L11.6761 11.666L11.722 11.6786H11.7422H11.7582H11.771L11.7796 11.687V11.7039V11.7123L11.771 11.7365V11.7607V11.7776V11.7902V11.8102V11.826L11.7796 11.8344L11.7924 11.8428L11.8084 11.8512H11.8286L11.8489 11.8597L11.8692 11.8681L11.8894 11.8765L11.9054 11.8891V11.8976L11.8894 11.9102L11.8734 11.9228L11.8574 11.9386L11.8414 11.9586V11.9744V11.9902V12.0102V12.0344L11.9118 12.0586L11.9865 12.0828L12.0196 12.0912L12.0526 12.1039L12.0772 12.1165L12.0974 12.1291L11.9609 12.2344L11.9982 12.267L12.0441 12.2912L12.1017 12.3197L12.1593 12.3397L12.2254 12.3597L12.2873 12.3723L12.3406 12.3849H12.3897L12.3438 12.4176L12.2862 12.4544L12.2244 12.487L12.1785 12.5197L12.2201 12.5481L12.2777 12.5765L12.3438 12.6091L12.4228 12.646L12.6041 12.7239L12.8025 12.8018L13.0084 12.8755L13.211 12.9407L13.3017 12.9691L13.3838 12.9891L13.4585 13.0091L13.5246 13.0218L13.3924 13.0091L13.2686 12.9923L13.146 13.0207L13.0308 12.9965L12.9156 12.9639L12.8089 12.9312L12.7022 12.8944L12.5956 12.8534L12.3929 12.7723L12.203 12.6912L12.1124 12.6544L12.0217 12.6176L11.9353 12.5849L11.8489 12.5523L11.8692 12.5397L11.8937 12.5312L11.9268 12.5186L11.9641 12.5102L12.043 12.486L12.1134 12.4618L11.9897 12.4418L11.8201 12.4091L11.738 12.3849L11.6676 12.3649L11.6388 12.3523L11.6142 12.3397L11.594 12.327L11.5812 12.3144H11.594L11.6068 12.306L11.6398 12.2934L11.6857 12.2807L11.7849 12.2523L11.866 12.2102L11.6633 12.1734L11.5065 12.1491L11.4489 12.1365L11.403 12.1197L11.387 12.1112L11.371 12.0986L11.3582 12.0902L11.3497 12.0776L11.3625 12.0691L11.3998 12.0607L11.4532 12.0523L11.515 12.0397L11.5812 12.0312L11.6388 12.0155L11.6676 12.007L11.6921 11.9986L11.7081 11.986L11.7241 11.9734L11.691 11.9607L11.658 11.9481L11.6164 11.9397L11.5748 11.9312L11.4798 11.9186L11.3849 11.906L11.3358 11.8934L11.29 11.8849L11.2441 11.8691L11.1982 11.8523L11.1566 11.8323L11.1193 11.8039L11.0862 11.7755L11.0617 11.7386H11.0702H11.0862H11.1065H11.1396H11.2142H11.2964L11.387 11.747H11.5022H11.5353L11.5598 11.7386L11.5758 11.7302L11.4766 11.6891L11.3444 11.6323L11.2697 11.5955L11.1908 11.5586L11.1118 11.5176L11.034 11.4765L10.9593 11.4312L10.8889 11.3828L10.8228 11.3344L10.7652 11.286L10.7406 11.2576L10.7161 11.2334L10.7001 11.2091L10.6841 11.1807L10.6681 11.1565L10.6596 11.1281V11.1039V11.0755H10.6926H10.7257L10.7588 11.0881L10.7918 11.1007L10.858 11.1418L10.9326 11.1828L10.9657 11.2028L11.003 11.2228L11.0404 11.2386L11.0734 11.2512L11.1108 11.2597H11.1438H11.1812L11.2142 11.247L11.115 11.1734L11.0084 11.0797L10.8804 10.9744L10.7524 10.8523L10.6244 10.7218L10.5049 10.5912L10.4516 10.5218L10.3982 10.4565L10.3524 10.3912L10.3108 10.3302L10.3022 10.3144V10.286V10.2734V10.2607L10.315 10.2523L10.3278 10.2397L10.3406 10.2312H10.3566H10.3726H10.4057H10.426H10.442L10.458 10.2439L10.4708 10.2565L10.5454 10.3302L10.6318 10.4155L10.7225 10.5091L10.8217 10.6028L10.9209 10.6881L11.0201 10.7691L11.0692 10.8018L11.115 10.8302L11.1641 10.8544L11.21 10.8702L11.1769 10.8502L11.1396 10.8134L11.0905 10.7649L11.0372 10.7039L10.9177 10.5618L10.7854 10.3944L10.7193 10.3049L10.6574 10.2155L10.5998 10.126L10.5422 10.0407L10.4932 9.95967L10.4516 9.88599L10.4228 9.81651L10.3982 9.75967V9.73967V9.70704V9.69441L10.4068 9.68178L10.4153 9.66914L10.4238 9.66072L10.4366 9.6523L10.4654 9.64388L10.49 9.63546H10.5476H10.5636H10.5764L10.5924 9.64388L10.6052 9.65651L10.6382 9.68493L10.6713 9.72599L10.746 9.81967L10.8249 9.93757L10.9156 10.0639L11.0105 10.1944L11.0596 10.2555L11.1086 10.3165L11.162 10.3691L11.2196 10.4176L11.1492 10.2828L11.0702 10.1281L11.0286 10.0428L10.9913 9.95757L10.954 9.86809L10.9209 9.77862L10.8921 9.68493L10.8633 9.59546L10.843 9.50599L10.827 9.41651L10.8185 9.33125V9.2502V9.20914V9.1723V9.13546L10.827 9.09862L10.8356 9.08599V9.07335L10.8484 9.06072L10.8569 9.0523L10.8857 9.03967L10.9145 9.03125H10.9433H10.9678H10.9806H10.9892V9.03967V9.0523L11.0308 9.18283L11.0681 9.32178L11.1054 9.46388L11.1428 9.60283L11.1801 9.74178L11.2292 9.8723L11.2537 9.93336L11.2825 9.99441L11.3156 10.0512L11.3529 10.1081L11.3284 9.9902L11.3124 9.88493L11.2964 9.78704L11.2878 9.69757L11.2793 9.61967V9.5502V9.49336V9.44493L11.2878 9.40388L11.3006 9.37125L11.3092 9.35862L11.3177 9.34599L11.3262 9.33757L11.339 9.32914H11.3518H11.3892L11.4222 9.34178L11.4553 9.35757L11.4841 9.48809L11.5129 9.61441L11.546 9.7323L11.5833 9.84599L11.6249 9.95967L11.6708 10.0734L11.7198 10.1912L11.7774 10.3091L11.819 10.387L11.8606 10.4649L11.9065 10.5418L11.9524 10.6197L12.0014 10.6934L12.0505 10.767L12.1038 10.8407L12.1572 10.9144L12.2564 11.0365L12.363 11.1502L12.4697 11.2639L12.5764 11.3691L12.6916 11.4744L12.811 11.5723L12.9348 11.666L13.0628 11.7555L13.1492 11.8123L13.2398 11.8649L13.3348 11.9176L13.4254 11.966L13.5694 12.0355L13.7102 12.1007L13.8585 12.1576L14.0068 12.2102L14.1476 12.2555L14.2916 12.2923L14.4398 12.3249L14.5838 12.3534L14.7364 12.3734L14.8846 12.3891L15.0372 12.4018L15.1897 12.4102" fill="#FEC50C"/>
<path d="M15.5889 13.6843L15.6593 13.6927L15.6923 13.7053H15.7009H15.6923H15.6838L15.6177 13.718H15.5643L15.3915 13.7053H15.1782H14.951H14.7153H14.6086L14.5019 13.7138L14.4027 13.7222L14.3078 13.7306L14.2289 13.7432L14.1585 13.7601L14.1339 13.7685L14.1073 13.7895L14.087 13.798L14.071 13.8106L14.0795 13.7695L14.0955 13.7285L14.0667 13.7369L14.0379 13.7453L14.0134 13.758L13.9889 13.7706L13.9686 13.7832L13.9526 13.799L13.9398 13.819V13.839L13.927 13.8106L13.9185 13.7864V13.758V13.7338V13.7138V13.6895V13.6695L13.9313 13.6495L13.9398 13.6338L13.9558 13.6138L13.9718 13.5969L13.9878 13.5811L14.0337 13.5527L14.0827 13.5243C14.1099 13.54 14.1389 13.5524 14.1691 13.5611C14.1982 13.5635 14.2275 13.5606 14.2555 13.5527C14.2661 13.5636 14.279 13.5721 14.2932 13.5776C14.3075 13.5832 14.3227 13.5856 14.338 13.5848C14.3533 13.584 14.3682 13.58 14.3818 13.573C14.3953 13.566 14.4072 13.5562 14.4166 13.5443C14.4255 13.5349 14.4324 13.5238 14.4369 13.5117C14.443 13.485 14.443 13.4573 14.4369 13.4306H14.4859L14.5435 13.4222L14.6054 13.4064L14.6715 13.3906L14.7377 13.378L14.7995 13.3622L14.8571 13.3538H14.9062L14.8859 13.3695L14.8369 13.4064L14.7793 13.4517L14.7377 13.4801L14.791 13.4927L14.8369 13.5011L14.8038 13.538L14.7707 13.5748L14.7377 13.6117L14.7131 13.6443L14.7462 13.6569L14.7793 13.6653L14.8166 13.6738H14.8913L14.9286 13.6653L14.9659 13.6569L14.9947 13.6401L15.0278 13.6569L15.0609 13.6695L15.0939 13.678L15.127 13.6864L15.2017 13.6948L15.2806 13.7032H15.5942" fill="#FEC50C"/>
<path d="M14.3202 13.4531H14.333H14.3458V13.4658V13.4784V13.491V13.5037L14.333 13.5121H14.3042L14.2956 13.5037L14.2871 13.491V13.4784V13.4658L14.2956 13.4531H14.3042H14.3202Z" fill="#FEC50C"/>
<path d="M14.3198 13.4746H14.3281V13.483V13.4915H14.3198H14.3115V13.483V13.4746H14.3198Z" fill="#FEC50C"/>
<path d="M14.3196 13.5249C14.3122 13.5249 14.305 13.5227 14.2988 13.5186C14.2927 13.5146 14.2879 13.5088 14.2851 13.5021C14.2822 13.4954 14.2815 13.488 14.2829 13.4808C14.2844 13.4737 14.2879 13.4671 14.2932 13.462C14.2984 13.4568 14.305 13.4533 14.3123 13.4519C14.3195 13.4505 14.327 13.4512 14.3338 13.454C14.3407 13.4568 14.3465 13.4615 14.3506 13.4675C14.3547 13.4736 14.3569 13.4807 14.3569 13.488C14.3569 13.4978 14.353 13.5072 14.346 13.5141C14.339 13.521 14.3295 13.5249 14.3196 13.5249Z" fill="#FEC50C"/>
<path d="M17.3956 13.8837L17.3668 13.8963H17.338H17.3135H17.2932H17.2729L17.2527 13.8879L17.2367 13.8795L17.2164 13.8669L17.1833 13.8427L17.1503 13.8185L17.1343 13.8058L17.114 13.7974H17.098H17.0777L17.0404 13.8742L16.9913 13.9721L16.9753 13.9963L16.9593 14.0163L16.9433 14.029L16.9273 14.0416L16.9071 14.05H16.8804L16.8601 14.0416L16.8356 14.029L16.8271 14.0163L16.8185 14.0037L16.81 13.9879L16.8015 13.9679L16.7929 13.9311V13.9069L16.7684 13.9269L16.7439 13.9553L16.7236 13.9879L16.6991 14.0248L16.6703 14.0616L16.6415 14.09L16.6255 14.1069L16.6052 14.1195L16.5849 14.1279L16.5604 14.1363H16.5476H16.5273H16.5071L16.4911 14.1279L16.442 14.0711L16.3887 14.0142L16.3513 14.0711L16.3097 14.1195L16.2895 14.1395L16.2692 14.1595L16.2489 14.1753L16.2287 14.1879L16.2127 14.1963H16.1924H16.1721H16.1561L16.1401 14.1879L16.1273 14.1753L16.1113 14.1553L16.1028 14.1311L16.0943 14.1069L16.0783 14.0658V14.0458L16.0697 14.03L16.0612 14.0216H16.0527L15.946 14.2006L15.93 14.2163L15.9012 14.229L15.8681 14.2374L15.8351 14.2458H15.7977L15.7689 14.2374H15.7604L15.7476 14.2248V14.2163V14.2006L15.7636 14.0216H15.7508L15.7348 14.03L15.7188 14.0385L15.7028 14.0553L15.6697 14.0921L15.6324 14.1332L15.5951 14.1785L15.5492 14.2153L15.5289 14.2311L15.5087 14.2479L15.4841 14.2606H15.4639H15.4351H15.4148H15.4063L15.3977 14.2521V14.2395V14.2269V14.1742L15.4063 14.1216V14.0932V14.069V14.0448L15.3903 14.0163L15.3657 14.0532L15.3241 14.1058L15.2751 14.1585L15.2217 14.2111L15.1929 14.2311L15.1641 14.2511L15.1396 14.2595L15.1193 14.2679H15.1108H15.0671L15.0585 14.2595L15.05 14.2469V14.2342V14.21V14.19V14.0353L14.9433 14.1048L14.8196 14.1827L14.7908 14.1953L14.7577 14.2111L14.7289 14.2195L14.6959 14.2279L14.6671 14.2363H14.6383H14.6095L14.5849 14.2279L14.5977 14.1953L14.6105 14.1669L14.6233 14.1385L14.6393 14.1142L14.6553 14.09L14.6713 14.0658L14.6916 14.0458L14.7119 14.0258L14.7577 13.9932L14.8111 13.9606L14.8644 13.9363L14.9263 13.9163L14.9881 13.9006L15.0585 13.8879L15.1289 13.8753L15.1993 13.8669L15.3519 13.8585H15.5087H15.8137H15.8927H15.9673H16.042L16.1124 13.85L16.1828 13.8374L16.2447 13.8248L16.3065 13.809L16.3641 13.7848L16.4175 13.7606L16.4633 13.7279L16.5092 13.6953L16.5465 13.65L16.5049 13.569H16.538L16.5711 13.5606L16.6041 13.5448L16.6329 13.5248L16.6457 13.5163L16.6585 13.5037L16.6671 13.4879L16.6756 13.4753V13.4585V13.43L16.6671 13.4142L16.7375 13.4016L16.8121 13.3932H16.8911H16.9732L17.1428 13.4016L17.3167 13.4142L17.4937 13.4342L17.6676 13.45L17.8372 13.4658L17.994 13.4742V13.5311V13.5553L17.9855 13.5795L17.9769 13.6037L17.9684 13.6237L17.9556 13.6406L17.9396 13.6606L17.9108 13.689L17.8735 13.7132L17.8361 13.729L17.7945 13.7374L17.7487 13.7458H17.7028H17.6612L17.6153 13.7332L17.5737 13.7132L17.5321 13.6932L17.4991 13.6648L17.466 13.6321V13.7016L17.4532 13.7911L17.4447 13.8363L17.4319 13.8774L17.4233 13.8932L17.4105 13.9058L17.402 13.9185L17.3892 13.9269L17.3956 13.8837ZM14.0708 13.5437L14.1657 13.5848L14.1903 13.5648L14.2233 13.5406L14.2607 13.5206L14.2937 13.5006L14.4175 13.4521L14.5241 13.4037L14.5775 13.3837L14.6233 13.3595L14.6692 13.3353L14.7065 13.3111L14.8015 13.25L14.8964 13.189L14.9871 13.1321L15.0692 13.0753L15.1311 13.0269L15.1801 12.9816L15.2335 12.9332L15.2911 12.8806L15.3113 12.8606L15.3359 12.8448L15.3647 12.829L15.3977 12.8132L15.4681 12.7806L15.5385 12.7563L15.6335 12.7321L15.7401 12.7079L15.8468 12.6879L15.9663 12.6679L16.1103 12.6521L16.2543 12.6321L16.4025 12.6163L16.5465 12.5921L16.5956 12.5837L16.6415 12.5711L16.6905 12.5585L16.7396 12.5458L16.7887 12.4848L16.8676 12.3995L16.9209 12.3469L16.9828 12.2985L17.0532 12.2458L17.1353 12.1932L17.2591 12.1195L17.3913 12.0542L17.5279 11.9848L17.6601 11.9237L17.7839 11.8627L17.8991 11.8058L17.994 11.7574L18.0687 11.709L18.0889 11.6479L18.1177 11.5869L18.1604 11.4732L18.2063 11.4121L18.2553 11.3469L18.3172 11.2816L18.3833 11.2079L18.4655 11.1311L18.5401 11.0658L18.6191 11.0006L18.6607 10.9721L18.7023 10.9437L18.7481 10.9195L18.794 10.8953L18.8399 10.8753L18.8857 10.8595L18.9348 10.8469L18.9807 10.8342H19.0297H19.0756H19.1247L19.1705 10.8427V10.8911L19.1577 10.9395L19.1417 10.9879L19.1215 11.0406L19.0927 11.0932L19.0553 11.1458L19.0095 11.2027L18.9561 11.2595H18.9977L19.0351 11.2511L19.0639 11.2427L19.0927 11.23L19.1172 11.2216L19.146 11.2132H19.1833H19.2249V11.2416V11.27V11.2985L19.2164 11.3227L19.2036 11.3469L19.1876 11.3711L19.1716 11.3911L19.1513 11.4111L19.0649 11.4921L18.9785 11.57H19.0276L19.0809 11.5858L19.1343 11.6016L19.1759 11.61L19.1268 11.6469L19.0692 11.6837L19.0116 11.7206L18.9455 11.7574L18.8793 11.7942L18.8132 11.8353L18.7471 11.8806L18.6852 11.929H18.714L18.7513 11.9448H18.7673L18.7833 11.9532H18.7961H18.8089L18.7268 11.9985L18.6201 12.0469L18.5711 12.0711L18.5295 12.0953L18.5092 12.1079L18.4964 12.1206L18.4879 12.1332L18.4793 12.1458V12.1627L18.4879 12.1753L18.5039 12.1879L18.5167 12.2006V12.2163L18.5081 12.229L18.4921 12.2416L18.4761 12.2542L18.4388 12.2742L18.3897 12.2942L18.3407 12.31L18.2948 12.3269L18.2617 12.3427L18.2372 12.3553L18.3193 12.4363L18.2905 12.4648L18.2617 12.4848L18.2372 12.4974L18.2084 12.51L18.1508 12.5185H18.0719L18.0804 12.5553L18.0932 12.5921L18.1017 12.6332L18.1103 12.6742L18.0399 12.7269L17.9535 12.7879L17.8585 12.849L17.7519 12.91L17.69 12.9427L17.6281 12.9711L17.562 12.9953L17.4916 13.0195L17.4169 13.0437L17.3391 13.0606L17.2569 13.0763L17.1705 13.089H17.3231H17.4553L17.5791 13.0763L17.6857 13.0637L17.7924 13.0437L17.8831 13.0195L17.9737 12.9869L18.0601 12.9542L18.1753 12.9016L18.282 12.8406L18.3887 12.7753L18.4953 12.71L18.4292 12.6774L18.3631 12.6574L18.33 12.6448L18.2969 12.6279L18.2596 12.6121L18.2223 12.5921L18.2553 12.5679L18.2927 12.5521L18.3385 12.5363L18.3876 12.5237L18.4868 12.5037L18.5935 12.4911L18.6841 12.4785L18.7663 12.47L18.7993 12.4616L18.8281 12.4532L18.8441 12.4448L18.8569 12.4321L18.8484 12.4237H18.8356L18.8196 12.4153L18.7737 12.4069L18.7161 12.3985H18.6585L18.6009 12.39L18.5519 12.3774L18.5188 12.3648L18.6255 12.3406L18.7321 12.3163L18.8313 12.2963L18.9135 12.2763L18.9839 12.2563L19.0457 12.2321L19.0745 12.2195L19.0948 12.2069L19.1151 12.1942L19.1311 12.1785L19.1225 12.17H19.1065H19.0863H19.0329H18.9711H18.9049H18.8431L18.7897 12.1616L18.7567 12.1532L18.7855 12.1406L18.8143 12.1279L18.9135 12.0995L18.9999 12.0753L19.0777 12.0553L19.1524 12.0311L19.2303 12.0069L19.3092 11.9742L19.3465 11.9542L19.3796 11.9342L19.3924 11.9216L19.4052 11.9058L19.418 11.8932V11.8806V11.8679L19.4052 11.8595H19.3924H19.2772H19.2239H19.1492H19.1289L19.1129 11.8511L19.0969 11.8427L19.2623 11.7374L19.4148 11.6395L19.5513 11.5542L19.6708 11.4732L19.7199 11.4321L19.7657 11.3911L19.8031 11.35L19.8361 11.309L19.8607 11.2637L19.8809 11.2185L19.8937 11.17V11.1174H19.8671H19.8383L19.8052 11.13L19.7721 11.1427L19.706 11.1837L19.6356 11.2248L19.5983 11.2448L19.5652 11.2648L19.5279 11.2806L19.4905 11.2932L19.4575 11.3016H19.4244H19.3871L19.354 11.289L19.4532 11.2153L19.5599 11.1216L19.6879 11.0163L19.8159 10.8942L19.9439 10.7637L20.0633 10.6332L20.1167 10.5637L20.17 10.4985L20.2159 10.4332L20.2575 10.3721L20.266 10.3553V10.3427V10.3269V10.3142V10.3016L20.2532 10.2932L20.2404 10.2806H20.2276L20.2116 10.2721H20.1956H20.1625H20.1465H20.1263L20.1135 10.2848L20.0975 10.2974L20.0228 10.3711L19.9364 10.4563L19.8457 10.55L19.7465 10.6437L19.6473 10.729L19.5481 10.81L19.4991 10.8427L19.4532 10.8711L19.4041 10.8953L19.3625 10.9153L19.3913 10.8911L19.4287 10.8542L19.4777 10.8058L19.5311 10.7448L19.6505 10.6027L19.7828 10.4353L19.8489 10.3458L19.9108 10.2563L19.9727 10.1711L20.026 10.0816L20.0751 10.0006L20.1167 9.92687L20.1497 9.8574L20.17 9.80056V9.78056V9.74793V9.7353L20.1615 9.72267L20.1529 9.71003L20.1444 9.70161H20.1316L20.1071 9.68898L20.0783 9.68056H20.0207H20.0047H19.9919L19.9759 9.68898L19.9631 9.70161L19.93 9.73003L19.8969 9.77109L19.8223 9.86477L19.7433 9.98266L19.6537 10.0837L19.562 10.21L19.5087 10.2711L19.4596 10.3321L19.4063 10.3848L19.3487 10.4332L19.4233 10.2985L19.498 10.1437L19.5396 10.0585L19.5769 9.97319L19.6143 9.88372L19.6473 9.79424L19.6761 9.70056L19.7049 9.61109L19.7252 9.52161L19.7412 9.43214L19.7497 9.34688V9.26582V9.22477V9.18793V9.15109L19.7412 9.11424V9.10161L19.7327 9.08898L19.7199 9.07635L19.7113 9.06793L19.6825 9.0553L19.6537 9.04688H19.6249H19.6004H19.5919H19.5791V9.0553V9.06793L19.5375 9.20266L19.5001 9.3374L19.4404 9.4974L19.4031 9.63635L19.3657 9.7753L19.3167 9.90582L19.2921 9.97109L19.2633 10.0279L19.2303 10.089L19.1929 10.1416L19.2175 10.0237L19.2335 9.91845L19.2495 9.82056L19.258 9.73109L19.2665 9.65319V9.58372V9.52688V9.47845L19.258 9.4374L19.2452 9.40477L19.2367 9.39214L19.2281 9.37951L19.2196 9.37109H19.2068H19.194H19.1812H19.1684H19.1556L19.1204 9.36793L19.0873 9.38372L19.0585 9.51424L19.0297 9.64056L18.9967 9.75845L18.9593 9.87214L18.9177 9.98582L18.8772 10.1048L18.8281 10.2227L18.7705 10.3406L18.7289 10.4185L18.6873 10.4953L18.6415 10.5732L18.5956 10.6511L18.5465 10.7248L18.4975 10.7985L18.4441 10.8721L18.3908 10.9458L18.2916 11.0679L18.1849 11.1816L18.0783 11.2953L17.9716 11.4006L17.8564 11.5058L17.7369 11.6037L17.6132 11.6974L17.4852 11.7869L17.3988 11.8437L17.3081 11.9006L17.2175 11.9532L17.1268 12.0058L16.9828 12.0711L16.8388 12.1363L16.6905 12.189L16.5423 12.2416L16.4185 12.2785L16.2948 12.3153L16.1668 12.3437L16.0388 12.3721L15.9108 12.3921L15.7785 12.409L15.6505 12.4248L15.5183 12.4332H15.5055H15.4927L15.4681 12.4458L15.4393 12.4658L15.3977 12.5027L15.3444 12.5511L15.2783 12.6163L15.1993 12.7016L15.1247 12.7869L15.0383 12.8806L14.9924 12.9258L14.9465 12.9711L14.8932 13.0121L14.8399 13.0532L14.7983 13.0816L14.7567 13.1058L14.7108 13.1258L14.6649 13.1458L14.5657 13.1869L14.4665 13.2237L14.3673 13.2606L14.2809 13.2932L14.2436 13.309L14.2063 13.329L14.1732 13.3448L14.1487 13.3606L14.1241 13.3848L14.1039 13.4048L14.0911 13.4248L14.0825 13.4448V13.4732V13.489" fill="#FEC50C"/>
<path d="M16.3201 13.4982C16.3173 13.4982 16.3145 13.4974 16.3121 13.4957C16.3097 13.4941 16.3079 13.4918 16.3068 13.4891C16.3057 13.4864 16.3054 13.4835 16.3059 13.4806C16.3065 13.4778 16.3079 13.4751 16.3099 13.4731C16.3119 13.471 16.3145 13.4696 16.3173 13.469C16.3201 13.4685 16.323 13.4688 16.3257 13.4699C16.3283 13.471 16.3306 13.4729 16.3322 13.4753C16.3337 13.4777 16.3346 13.4806 16.3346 13.4835C16.3346 13.4874 16.3331 13.4911 16.3304 13.4939C16.3276 13.4967 16.324 13.4982 16.3201 13.4982Z" fill="#FEC50C" stroke="#00AFCA" stroke-width="0.19"/>
<path d="M2.10872 5.99952C2.10872 6.39636 2.46926 6.59952 2.74872 6.59952C3.13059 6.59952 3.33326 6.37426 3.33326 6.07952C3.33578 5.92901 3.29905 5.7804 3.22659 5.64794C3.22659 5.64794 2.59726 4.35531 2.35192 3.85847C2.32009 3.78366 2.30622 3.7026 2.31139 3.62162C2.3121 3.53787 2.34649 3.45783 2.407 3.3991C2.46751 3.34037 2.54919 3.30777 2.63406 3.30847C2.71893 3.30916 2.80004 3.3431 2.85955 3.40282C2.91906 3.46254 2.9521 3.54313 2.95139 3.62689C2.95139 3.82478 2.84472 3.91215 2.73806 3.91215C2.60686 3.91215 2.55459 3.85847 2.55459 3.76794C2.55459 3.70478 2.58552 3.67741 2.63032 3.67741C2.74232 3.67741 2.71139 3.82689 2.71139 3.82689C2.72692 3.82399 2.7416 3.81772 2.75437 3.80853C2.76714 3.79934 2.77769 3.78747 2.78524 3.77377C2.7928 3.76007 2.79717 3.74489 2.79805 3.72931C2.79893 3.71374 2.79629 3.69817 2.79032 3.68373C2.83184 3.67395 2.86917 3.65147 2.89699 3.61952C2.86835 3.58961 2.83113 3.56905 2.79032 3.56057C2.79671 3.54557 2.79949 3.52932 2.79844 3.51308C2.79739 3.49684 2.79254 3.48107 2.78427 3.46699C2.776 3.45292 2.76454 3.44093 2.75078 3.43196C2.73703 3.42299 2.72135 3.41729 2.70499 3.41531C2.71823 3.44396 2.72197 3.47601 2.71566 3.50689C2.68034 3.49504 2.64262 3.49187 2.60578 3.49766C2.56894 3.50345 2.53408 3.51802 2.50424 3.54011C2.47439 3.56219 2.45046 3.59113 2.43451 3.62442C2.41856 3.6577 2.41109 3.69432 2.41272 3.7311C2.4094 3.78204 2.41844 3.83304 2.43909 3.87985C2.45974 3.92665 2.4914 3.96793 2.53144 4.00025C2.57149 4.03256 2.61877 4.05499 2.66936 4.06566C2.71995 4.07634 2.77239 4.07495 2.82232 4.06162C2.7916 4.07636 2.76548 4.099 2.74671 4.12716C2.72794 4.15532 2.71721 4.18795 2.71566 4.22162C2.74998 4.20952 2.78592 4.20243 2.82232 4.20057C2.77492 4.26074 2.74937 4.33488 2.74979 4.4111C2.79886 4.38899 2.84579 4.34794 2.90872 4.37426C2.80952 4.56794 2.93112 4.83426 3.24259 4.90057C3.13583 4.78538 3.07551 4.6356 3.07299 4.47952C3.07299 4.02057 3.20206 3.94268 3.20206 3.62373C3.19989 3.54934 3.17992 3.47651 3.14377 3.41119C3.10762 3.34588 3.05632 3.28994 2.99406 3.24794V3.2532C3.03205 3.24569 3.06803 3.23038 3.09963 3.20825C3.13124 3.18613 3.15778 3.15769 3.17752 3.12478C2.95649 3.06571 2.72324 3.06789 2.50339 3.1311C2.43027 3.14221 2.36056 3.16923 2.29931 3.21019C2.23807 3.25115 2.18681 3.30503 2.14926 3.36794C2.11007 3.45715 2.08984 3.55334 2.08984 3.65057C2.08984 3.7478 2.11007 3.844 2.14926 3.9332C2.27299 4.18899 2.85646 5.40689 3.03886 5.79426C3.07886 5.87566 3.09999 5.96484 3.10072 6.05531C3.09935 6.09826 3.08939 6.14052 3.07142 6.17966C3.05345 6.2188 3.02782 6.25406 2.996 6.2834C2.96419 6.31274 2.92681 6.33559 2.88603 6.35064C2.84524 6.36569 2.80184 6.37264 2.75832 6.3711C2.68563 6.37403 2.61448 6.3499 2.55896 6.3035C2.50345 6.2571 2.46762 6.19181 2.45859 6.12057C2.45859 6.03215 2.50659 5.97952 2.57699 5.97952C2.74446 5.97952 2.73486 6.12057 2.70072 6.20899C2.74549 6.19514 2.78439 6.16711 2.81138 6.12924C2.83838 6.09138 2.85197 6.04578 2.85006 5.99952C2.91575 5.98996 2.97547 5.95655 3.01752 5.90583C2.99865 5.87894 2.9737 5.85676 2.94463 5.84105C2.91556 5.82534 2.88318 5.81652 2.85006 5.81531C2.88312 5.68057 2.79139 5.62268 2.70179 5.5911C2.73059 5.69005 2.74872 5.80162 2.57806 5.80162C2.52614 5.7952 2.47342 5.80144 2.42451 5.81979C2.3756 5.83814 2.332 5.86805 2.29752 5.90689C2.29752 5.80162 2.28366 5.38057 2.28366 5.38057C2.27619 5.22268 2.49699 5.22689 2.63992 5.27531C2.58659 5.0932 2.47779 4.99426 2.22499 5.01952C2.26421 5.00332 2.29716 4.97518 2.31904 4.93921C2.34091 4.90323 2.35057 4.86129 2.34659 4.81952C2.34081 4.74842 2.31975 4.67935 2.2848 4.61691C2.24985 4.55448 2.20183 4.5001 2.14392 4.45741L2.10872 5.99952Z" fill="#FEC50C"/>
<path d="M2.14952 18.4197C2.14952 18.4197 1.95859 18.5776 1.89459 18.4986C1.78792 18.3712 2.21459 17.7365 2.21459 17.5134C2.21459 17.147 1.96606 17.047 1.65992 16.9944C1.48009 16.9772 1.29878 16.9821 1.12019 17.0091C1.14157 17.0458 1.17282 17.0759 1.21046 17.0962C1.24811 17.1164 1.2907 17.126 1.33352 17.1239C1.26012 17.1614 1.19883 17.2185 1.1566 17.2886C1.11438 17.3587 1.09289 17.4392 1.09459 17.5207C1.09459 17.8365 1.22579 17.966 1.22579 18.3218C1.20651 18.4817 1.15032 18.6351 1.06152 18.7702C1.12168 18.7675 1.18039 18.7512 1.23305 18.7223C1.2857 18.6935 1.33086 18.653 1.36498 18.604C1.39909 18.5551 1.42123 18.499 1.42965 18.4401C1.43808 18.3813 1.43256 18.3213 1.41352 18.2649C1.43563 18.261 1.45838 18.2622 1.47989 18.2686C1.5014 18.275 1.52106 18.2864 1.53726 18.3018C1.54339 18.2686 1.54137 18.2345 1.53134 18.2022C1.52132 18.17 1.50359 18.1406 1.47966 18.1165C1.51592 18.0976 1.54259 18.1091 1.60019 18.1165C1.59389 18.0777 1.57871 18.0409 1.55578 18.0088C1.53286 17.9767 1.50281 17.9501 1.46792 17.9312C1.51607 17.9471 1.56735 17.9514 1.61752 17.9439C1.6677 17.9363 1.71533 17.9171 1.75649 17.8878C1.79766 17.8585 1.83116 17.8199 1.85425 17.7753C1.87733 17.7307 1.88933 17.6813 1.88926 17.6312C1.89386 17.5732 1.87575 17.5157 1.83864 17.4704C1.80153 17.4252 1.74826 17.3957 1.68979 17.3881C1.65183 17.3888 1.61486 17.4001 1.58312 17.4207C1.57531 17.3995 1.57213 17.3769 1.57378 17.3544C1.57544 17.3319 1.58189 17.3101 1.59272 17.2902C1.52019 17.3091 1.47539 17.3512 1.50739 17.4397C1.48297 17.4405 1.45897 17.4461 1.4368 17.4562C1.41462 17.4663 1.39474 17.4808 1.37832 17.4986C1.39349 17.5179 1.41313 17.5333 1.43558 17.5436C1.45804 17.5539 1.48267 17.5586 1.50739 17.5576C1.46686 17.6397 1.50739 17.686 1.57779 17.7228C1.57779 17.7228 1.53619 17.5576 1.64286 17.5576C1.69086 17.5576 1.73459 17.5734 1.73459 17.6428C1.73396 17.6644 1.72867 17.6856 1.71906 17.705C1.70946 17.7244 1.69576 17.7416 1.6789 17.7553C1.66203 17.7691 1.64238 17.7791 1.62127 17.7848C1.60015 17.7904 1.57805 17.7915 1.55646 17.7881C1.43272 17.7828 1.33139 17.7039 1.33139 17.5081C1.33139 17.3123 1.47859 17.2386 1.67272 17.2323C1.71125 17.2264 1.75062 17.229 1.78804 17.2398C1.82546 17.2505 1.86004 17.2693 1.88933 17.2947C1.91861 17.3201 1.94191 17.3515 1.95756 17.3867C1.97321 17.422 1.98085 17.4602 1.97992 17.4986C1.97992 17.7355 1.63326 18.2765 1.63326 18.4881C1.63514 18.5231 1.64411 18.5574 1.65965 18.5889C1.6752 18.6204 1.69699 18.6486 1.72374 18.6716C1.7505 18.6947 1.78167 18.7122 1.81541 18.7232C1.84915 18.7341 1.88478 18.7383 1.92019 18.7355C2.05149 18.7193 2.17201 18.6555 2.25832 18.5565L2.15166 18.4228L2.14952 18.4197Z" fill="#FEC50C"/>
<path d="M2.10869 14.1352C2.10869 13.7383 2.46922 13.5352 2.74869 13.5352C3.13055 13.5352 3.33322 13.7604 3.33322 14.0552C3.33574 14.2057 3.29901 14.3543 3.22655 14.4867C3.22655 14.4867 2.59722 15.7794 2.35189 16.2762C2.32006 16.351 2.30618 16.4321 2.31135 16.5131C2.31206 16.5968 2.34645 16.6768 2.40696 16.7356C2.46748 16.7943 2.54915 16.8269 2.63402 16.8262C2.71889 16.8255 2.8 16.7916 2.85951 16.7319C2.91902 16.6721 2.95206 16.5915 2.95135 16.5078C2.95135 16.3099 2.84469 16.2225 2.73802 16.2225C2.60682 16.2225 2.55455 16.2762 2.55455 16.3667C2.55455 16.4299 2.58549 16.4573 2.63029 16.4573C2.74229 16.4573 2.71135 16.3078 2.71135 16.3078C2.72607 16.3112 2.73989 16.3176 2.75189 16.3267C2.76389 16.3358 2.7738 16.3473 2.78096 16.3604C2.78812 16.3736 2.79237 16.388 2.79343 16.4029C2.79448 16.4178 2.79232 16.4327 2.78709 16.4467C2.82863 16.4564 2.86598 16.4789 2.89375 16.5109C2.86511 16.5409 2.82789 16.5614 2.78709 16.5699C2.79347 16.5849 2.79625 16.6011 2.7952 16.6174C2.79415 16.6336 2.7893 16.6494 2.78103 16.6635C2.77276 16.6775 2.7613 16.6895 2.74755 16.6985C2.73379 16.7075 2.71812 16.7132 2.70175 16.7152C2.715 16.6865 2.71873 16.6544 2.71242 16.6236C2.6771 16.6354 2.63938 16.6386 2.60254 16.6328C2.5657 16.627 2.53084 16.6124 2.501 16.5904C2.47115 16.5683 2.44722 16.5393 2.43127 16.506C2.41533 16.4728 2.40785 16.4361 2.40949 16.3994C2.40617 16.3484 2.4152 16.2974 2.43585 16.2506C2.4565 16.2038 2.48816 16.1625 2.52821 16.1302C2.56825 16.0979 2.61553 16.0755 2.66612 16.0648C2.71671 16.0541 2.76915 16.0555 2.81909 16.0688C2.78837 16.0541 2.76224 16.0315 2.74347 16.0033C2.7247 15.9751 2.71397 15.9425 2.71242 15.9088C2.74675 15.9209 2.78268 15.928 2.81909 15.9299C2.77168 15.8697 2.74614 15.7956 2.74655 15.7194C2.79562 15.7415 2.84255 15.7825 2.90549 15.7573C2.80629 15.5636 2.92789 15.2973 3.23935 15.2309C3.1326 15.3461 3.07227 15.4959 3.06975 15.652C3.06975 16.1109 3.19882 16.1888 3.19882 16.5078C3.19666 16.5822 3.17668 16.655 3.14053 16.7203C3.10438 16.7856 3.05308 16.8416 2.99082 16.8836V16.8783C3.02882 16.8858 3.06479 16.9011 3.0964 16.9233C3.128 16.9454 3.15454 16.9738 3.17429 17.0067C2.95326 17.0658 2.72001 17.0636 2.50015 17.0004C2.42684 16.9898 2.35683 16.9633 2.29521 16.9227C2.23359 16.8821 2.18189 16.8284 2.14389 16.7657C2.10469 16.6765 2.08447 16.5803 2.08447 16.483C2.08447 16.3858 2.10469 16.2896 2.14389 16.2004C2.26762 15.9446 2.85109 14.7267 3.03349 14.3383C3.07349 14.2569 3.09462 14.1677 3.09535 14.0773C3.09398 14.0343 3.08402 13.9921 3.06605 13.9529C3.04807 13.9138 3.02245 13.8785 2.99063 13.8492C2.95882 13.8198 2.92144 13.797 2.88066 13.7819C2.83987 13.7669 2.79647 13.7599 2.75295 13.7615C2.68026 13.7585 2.60911 13.7827 2.55359 13.8291C2.49808 13.8755 2.46225 13.9408 2.45322 14.012C2.45322 14.1004 2.50122 14.1531 2.57162 14.1531C2.73909 14.1531 2.72949 14.012 2.69535 13.9236C2.74104 13.9379 2.78051 13.9669 2.80741 14.0061C2.83431 14.0452 2.84706 14.0922 2.84362 14.1394C2.90928 14.149 2.96896 14.1824 3.01109 14.233C2.99222 14.2599 2.96726 14.2821 2.93819 14.2978C2.90912 14.3135 2.87674 14.3224 2.84362 14.3236C2.87669 14.4583 2.78495 14.5162 2.69535 14.5478C2.72415 14.4488 2.74229 14.3373 2.57162 14.3373C2.5197 14.3437 2.46698 14.3374 2.41807 14.3191C2.36916 14.3007 2.32556 14.2708 2.29109 14.232C2.29109 14.3373 2.27722 14.7583 2.27722 14.7583C2.26975 14.9162 2.49055 14.912 2.63349 14.8636C2.58015 15.0457 2.47135 15.1446 2.21855 15.1194C2.25897 15.1345 2.29331 15.1622 2.31639 15.1983C2.33948 15.2343 2.35006 15.2768 2.34655 15.3194C2.34063 15.3903 2.31949 15.4591 2.28455 15.5214C2.24961 15.5836 2.20166 15.6378 2.14389 15.6804L2.10335 14.1352H2.10869Z" fill="#FEC50C"/>
<path d="M2.18853 14.1352C2.18853 13.7383 1.82799 13.5352 1.54853 13.5352C1.16666 13.5352 0.963994 13.7604 0.963994 14.0552C0.96142 14.2057 0.998155 14.3543 1.07066 14.4867C1.07066 14.4867 1.69999 15.7794 1.94533 16.2762C1.97716 16.351 1.99103 16.4321 1.98586 16.5131C1.98515 16.5968 1.95076 16.6768 1.89025 16.7356C1.82974 16.7943 1.74806 16.8269 1.66319 16.8262C1.57832 16.8255 1.49721 16.7916 1.4377 16.7319C1.37819 16.6721 1.34515 16.5915 1.34586 16.5078C1.34586 16.3099 1.45253 16.2225 1.55919 16.2225C1.69039 16.2225 1.74266 16.2762 1.74266 16.3667C1.74266 16.4299 1.71173 16.4573 1.66693 16.4573C1.55493 16.4573 1.58586 16.3078 1.58586 16.3078C1.57114 16.3112 1.55732 16.3176 1.54532 16.3267C1.53332 16.3358 1.52341 16.3473 1.51625 16.3604C1.50909 16.3736 1.50484 16.388 1.50379 16.4029C1.50273 16.4178 1.50489 16.4327 1.51013 16.4467C1.46858 16.4564 1.43123 16.4789 1.40346 16.5109C1.43206 16.5409 1.4693 16.5615 1.51013 16.5699C1.50374 16.5849 1.50096 16.6011 1.50201 16.6174C1.50306 16.6336 1.50791 16.6494 1.51618 16.6635C1.52445 16.6775 1.53591 16.6895 1.54967 16.6985C1.56342 16.7075 1.5791 16.7132 1.59546 16.7152C1.58222 16.6865 1.57848 16.6544 1.58479 16.6236C1.62011 16.6354 1.65783 16.6386 1.69467 16.6328C1.73152 16.627 1.76637 16.6124 1.79622 16.5904C1.82606 16.5683 1.84999 16.5393 1.86594 16.506C1.88189 16.4728 1.88937 16.4361 1.88773 16.3994C1.89105 16.3484 1.88201 16.2974 1.86136 16.2506C1.84071 16.2038 1.80905 16.1625 1.76901 16.1302C1.72896 16.0979 1.68168 16.0755 1.63109 16.0648C1.5805 16.0541 1.52806 16.0555 1.47813 16.0688C1.50878 16.054 1.53484 16.0314 1.5536 16.0032C1.57236 15.9751 1.58313 15.9425 1.58479 15.9088C1.55047 15.9209 1.51453 15.928 1.47813 15.9299C1.52553 15.8697 1.55108 15.7956 1.55066 15.7194C1.50159 15.7415 1.45466 15.7825 1.39173 15.7573C1.49093 15.5636 1.36933 15.2973 1.05786 15.2309C1.16462 15.3461 1.22495 15.4959 1.22746 15.652C1.22746 16.1109 1.09839 16.1888 1.09839 16.5078C1.10056 16.5822 1.12053 16.655 1.15668 16.7203C1.19283 16.7856 1.24414 16.8416 1.30639 16.8836V16.8783C1.2684 16.8858 1.23242 16.9011 1.20082 16.9233C1.16921 16.9454 1.14267 16.9738 1.12293 17.0067C1.34396 17.0658 1.57721 17.0636 1.79706 17.0004C1.87038 16.9898 1.94038 16.9633 2.00201 16.9227C2.06363 16.8821 2.11532 16.8284 2.15333 16.7657C2.19252 16.6765 2.21274 16.5803 2.21274 16.483C2.21274 16.3858 2.19252 16.2896 2.15333 16.2004C2.02959 15.9446 1.44613 14.7267 1.26373 14.3383C1.22376 14.2569 1.20263 14.1677 1.20186 14.0773C1.2031 14.0343 1.21296 13.9919 1.23088 13.9527C1.24881 13.9135 1.27443 13.8782 1.30628 13.8488C1.33812 13.8195 1.37555 13.7966 1.4164 13.7816C1.45725 13.7666 1.50071 13.7598 1.54426 13.7615C1.61695 13.7585 1.68811 13.7827 1.74362 13.8291C1.79914 13.8755 1.83496 13.9408 1.84399 14.012C1.84399 14.1004 1.79599 14.1531 1.72559 14.1531C1.55813 14.1531 1.56773 14.012 1.60186 13.9236C1.55618 13.9379 1.5167 13.9669 1.48981 14.0061C1.46291 14.0452 1.45015 14.0922 1.45359 14.1394C1.38793 14.149 1.32825 14.1824 1.28613 14.233C1.305 14.2599 1.32996 14.2821 1.35902 14.2978C1.38809 14.3135 1.42047 14.3224 1.45359 14.3236C1.42053 14.4583 1.51226 14.5162 1.60186 14.5478C1.57306 14.4488 1.55493 14.3373 1.72559 14.3373C1.77751 14.3437 1.83023 14.3374 1.87914 14.3191C1.92805 14.3007 1.97165 14.2708 2.00613 14.232C2.00613 14.3373 2.01999 14.7583 2.01999 14.7583C2.02746 14.9162 1.80666 14.912 1.66373 14.8636C1.71706 15.0457 1.82586 15.1446 2.07866 15.1194C2.0399 15.1343 2.00683 15.1607 1.98408 15.1951C1.96132 15.2294 1.95001 15.2699 1.95173 15.3109C1.95772 15.3818 1.97888 15.4507 2.01382 15.5129C2.04875 15.5752 2.09667 15.6294 2.15439 15.672L2.19493 14.1267L2.18853 14.1352Z" fill="#FEC50C"/>
<path d="M2.14933 18.4197C2.14933 18.4197 2.34026 18.5776 2.40426 18.4986C2.51093 18.3712 2.08426 17.7365 2.08426 17.5134C2.08426 17.147 2.33279 17.047 2.63893 16.9944C2.81876 16.9772 3.00007 16.9821 3.17866 17.0091C3.15728 17.0458 3.12603 17.0759 3.08839 17.0962C3.05074 17.1164 3.00815 17.126 2.96533 17.1239C3.03873 17.1614 3.10002 17.2185 3.14225 17.2886C3.18448 17.3587 3.20596 17.4392 3.20426 17.5207C3.20426 17.8365 3.07306 17.966 3.07306 18.3218C3.09234 18.4817 3.14854 18.6351 3.23733 18.7702C3.17717 18.7675 3.11846 18.7512 3.0658 18.7223C3.01315 18.6935 2.96799 18.653 2.93388 18.604C2.89976 18.5551 2.87762 18.499 2.8692 18.4401C2.86077 18.3813 2.86629 18.3213 2.88533 18.2649C2.86322 18.261 2.84047 18.2622 2.81896 18.2686C2.79745 18.275 2.77779 18.2864 2.76159 18.3018C2.75546 18.2686 2.75749 18.2345 2.76751 18.2022C2.77753 18.17 2.79526 18.1406 2.81919 18.1165C2.78293 18.0976 2.75626 18.1091 2.69866 18.1165C2.70496 18.0777 2.72015 18.0409 2.74307 18.0088C2.76599 17.9767 2.79604 17.9501 2.83093 17.9312C2.78278 17.9471 2.73151 17.9514 2.68133 17.9439C2.63115 17.9363 2.58352 17.9171 2.54236 17.8878C2.5012 17.8585 2.46769 17.8199 2.4446 17.7753C2.42152 17.7307 2.40952 17.6813 2.40959 17.6312C2.40499 17.5732 2.42311 17.5157 2.46021 17.4704C2.49732 17.4252 2.55059 17.3957 2.60906 17.3881C2.64702 17.3888 2.68399 17.4001 2.71573 17.4207C2.72354 17.3995 2.72672 17.3769 2.72507 17.3544C2.72341 17.3319 2.71696 17.3101 2.70613 17.2902C2.77866 17.3091 2.82346 17.3512 2.79146 17.4397C2.81588 17.4405 2.83988 17.4461 2.86206 17.4562C2.88423 17.4663 2.90411 17.4808 2.92053 17.4986C2.90536 17.5179 2.88573 17.5333 2.86327 17.5436C2.84081 17.5539 2.81618 17.5586 2.79146 17.5576C2.83199 17.6397 2.79146 17.686 2.72106 17.7228C2.72106 17.7228 2.76266 17.5576 2.65599 17.5576C2.60799 17.5576 2.56426 17.5734 2.56426 17.6428C2.56489 17.6644 2.57018 17.6856 2.57979 17.705C2.58939 17.7244 2.60309 17.7416 2.61995 17.7553C2.63682 17.7691 2.65647 17.7791 2.67758 17.7848C2.6987 17.7904 2.7208 17.7915 2.74239 17.7881C2.86613 17.7828 2.96639 17.7039 2.96639 17.5081C2.96639 17.3123 2.81919 17.2386 2.62506 17.2323C2.58653 17.2264 2.54717 17.229 2.50974 17.2398C2.47232 17.2505 2.43775 17.2693 2.40846 17.2947C2.37917 17.3201 2.35588 17.3515 2.34023 17.3867C2.32457 17.422 2.31694 17.4602 2.31786 17.4986C2.31786 17.7355 2.66453 18.2765 2.66453 18.4881C2.66264 18.523 2.6537 18.5572 2.63822 18.5886C2.62275 18.6201 2.60105 18.6482 2.57441 18.6712C2.54778 18.6943 2.51673 18.7118 2.48312 18.7229C2.4495 18.7339 2.41398 18.7382 2.37866 18.7355C2.24736 18.7193 2.12684 18.6555 2.04053 18.5565L2.14719 18.4228L2.14933 18.4197Z" fill="#FEC50C"/>
<path d="M2.10899 7.1918C2.10899 6.79495 2.46953 6.5918 2.74899 6.5918C3.13086 6.5918 3.33353 6.81706 3.33353 7.1118C3.33605 7.2623 3.29932 7.41092 3.22686 7.54338C3.22686 7.54338 2.59753 8.83601 2.35219 9.33285C2.31977 9.41041 2.3066 9.49451 2.31379 9.57811C2.3145 9.66187 2.34889 9.74191 2.40941 9.80064C2.46992 9.85937 2.55159 9.89197 2.63646 9.89127C2.72133 9.89057 2.80244 9.85663 2.86195 9.79692C2.92147 9.7372 2.9545 9.6566 2.95379 9.57285C2.95379 9.37495 2.84713 9.28759 2.74046 9.28759C2.60926 9.28759 2.55699 9.34127 2.55699 9.4318C2.55699 9.49495 2.58793 9.52232 2.63273 9.52232C2.74473 9.52232 2.71379 9.37285 2.71379 9.37285C2.72851 9.37625 2.74233 9.3827 2.75433 9.39178C2.76633 9.40085 2.77624 9.41234 2.7834 9.42547C2.79056 9.43861 2.79481 9.4531 2.79587 9.46799C2.79693 9.48287 2.79476 9.4978 2.78953 9.5118C2.83105 9.52158 2.86838 9.54405 2.89619 9.57601C2.86755 9.60592 2.83033 9.62648 2.78953 9.63495C2.79591 9.64995 2.79869 9.66621 2.79764 9.68245C2.79659 9.69868 2.79174 9.71446 2.78347 9.72853C2.77521 9.74261 2.76374 9.7546 2.74999 9.76357C2.73623 9.77254 2.72056 9.77823 2.70419 9.78022C2.71744 9.75156 2.72117 9.71951 2.71486 9.68864C2.67954 9.70049 2.64182 9.70366 2.60498 9.69787C2.56814 9.69208 2.53328 9.67751 2.50344 9.65542C2.47359 9.63333 2.44966 9.60439 2.43371 9.57111C2.41777 9.53783 2.41029 9.50121 2.41193 9.46443C2.40861 9.41348 2.41764 9.36249 2.43829 9.31568C2.45894 9.26887 2.4906 9.2276 2.53065 9.19528C2.5707 9.16296 2.61797 9.14054 2.66856 9.12986C2.71915 9.11919 2.77159 9.12057 2.82153 9.1339C2.79081 9.11917 2.76469 9.09653 2.74591 9.06837C2.72714 9.04021 2.71641 9.00757 2.71486 8.9739C2.74919 8.98601 2.78512 8.9931 2.82153 8.99495C2.77405 8.93482 2.74849 8.86066 2.74899 8.78443C2.79806 8.80653 2.84499 8.84759 2.90793 8.82127C2.80873 8.62759 2.93033 8.36127 3.24179 8.29495C3.13504 8.41015 3.07471 8.55992 3.07219 8.71601C3.07219 9.17495 3.20126 9.25285 3.20126 9.5718C3.1991 9.64619 3.17912 9.71902 3.14297 9.78433C3.10682 9.84965 3.05552 9.90559 2.99326 9.94759V9.94232C3.03126 9.94983 3.06723 9.96515 3.09884 9.98727C3.13045 10.0094 3.15698 10.0378 3.17673 10.0707C2.9557 10.1298 2.72245 10.1276 2.50259 10.0644C2.42928 10.0538 2.35927 10.0273 2.29765 9.98669C2.23603 9.94609 2.18434 9.89246 2.14633 9.82969C2.10714 9.74048 2.08691 9.64429 2.08691 9.54706C2.08691 9.44983 2.10714 9.35363 2.14633 9.26443C2.27006 9.00864 2.85353 7.79074 3.03593 7.40338C3.07593 7.32197 3.09706 7.23279 3.09779 7.14232C3.09642 7.09937 3.08646 7.05711 3.06849 7.01797C3.05052 6.97883 3.02489 6.94357 2.99307 6.91423C2.96126 6.88489 2.92388 6.86204 2.8831 6.84699C2.84231 6.83194 2.79891 6.82499 2.75539 6.82653C2.6827 6.8236 2.61155 6.84773 2.55603 6.89413C2.50052 6.94053 2.46469 7.00582 2.45566 7.07706C2.45566 7.16548 2.50366 7.21811 2.57406 7.21811C2.74153 7.21811 2.73193 7.07706 2.69779 6.98864C2.74348 7.00294 2.78295 7.03201 2.80985 7.07116C2.83675 7.11031 2.8495 7.15725 2.84606 7.20443C2.91176 7.21399 2.97147 7.2474 3.01353 7.29811C2.99466 7.325 2.9697 7.34718 2.94063 7.3629C2.91156 7.37861 2.87918 7.38742 2.84606 7.38864C2.87913 7.52338 2.78739 7.58127 2.69779 7.61285C2.72659 7.5139 2.74473 7.40232 2.57406 7.40232C2.52214 7.40875 2.46942 7.40251 2.42051 7.38416C2.37161 7.36581 2.328 7.3359 2.29353 7.29706C2.29353 7.40232 2.27966 7.82338 2.27966 7.82338C2.27219 7.98127 2.49299 7.97706 2.63593 7.92864C2.58259 8.11074 2.47379 8.20969 2.22099 8.18443C2.25955 8.19949 2.29239 8.22603 2.31495 8.26037C2.33751 8.2947 2.34866 8.33513 2.34686 8.37601C2.34143 8.44632 2.32105 8.51472 2.28705 8.57675C2.25305 8.63878 2.20619 8.69304 2.14953 8.73601L2.10899 7.18969V7.1918Z" fill="#FEC50C"/>
<path d="M2.18839 7.1918C2.18839 6.79495 1.82786 6.5918 1.54839 6.5918C1.16333 6.5918 0.959595 6.81706 0.959595 7.1118C0.957069 7.2623 0.993801 7.41092 1.06626 7.54338C1.06626 7.54338 1.69559 8.83601 1.94093 9.33285C1.97481 9.41006 1.98944 9.49417 1.98359 9.57811C1.98289 9.66187 1.94849 9.74191 1.88798 9.80064C1.82747 9.85937 1.7458 9.89197 1.66093 9.89127C1.57606 9.89057 1.49495 9.85663 1.43543 9.79692C1.37592 9.7372 1.34289 9.6566 1.34359 9.57285C1.34359 9.37495 1.45026 9.28759 1.55693 9.28759C1.68813 9.28759 1.74039 9.34127 1.74039 9.4318C1.74039 9.49495 1.70946 9.52232 1.66466 9.52232C1.55266 9.52232 1.58359 9.37285 1.58359 9.37285C1.56888 9.37625 1.55506 9.3827 1.54306 9.39178C1.53106 9.40085 1.52115 9.41234 1.51399 9.42547C1.50682 9.43861 1.50257 9.4531 1.50152 9.46799C1.50046 9.48287 1.50263 9.4978 1.50786 9.5118C1.46634 9.52158 1.42901 9.54405 1.40119 9.57601C1.42984 9.60592 1.46705 9.62648 1.50786 9.63495C1.50147 9.64995 1.4987 9.66621 1.49975 9.68245C1.5008 9.69868 1.50565 9.71446 1.51391 9.72853C1.52218 9.74261 1.53364 9.7546 1.5474 9.76357C1.56116 9.77254 1.57683 9.77823 1.59319 9.78022C1.57995 9.75156 1.57622 9.71951 1.58253 9.68864C1.61785 9.70049 1.65557 9.70366 1.69241 9.69787C1.72925 9.69208 1.7641 9.67751 1.79395 9.65542C1.82379 9.63333 1.84773 9.60439 1.86367 9.57111C1.87962 9.53783 1.8871 9.50121 1.88546 9.46443C1.88878 9.41348 1.87974 9.36249 1.8591 9.31568C1.83845 9.26887 1.80679 9.2276 1.76674 9.19528C1.72669 9.16296 1.67941 9.14054 1.62883 9.12986C1.57824 9.11919 1.5258 9.12057 1.47586 9.1339C1.50651 9.11908 1.53257 9.09641 1.55133 9.06827C1.57009 9.04013 1.58086 9.00755 1.58253 8.9739C1.5482 8.98601 1.51227 8.9931 1.47586 8.99495C1.52327 8.93479 1.54881 8.86064 1.54839 8.78443C1.49933 8.80653 1.45239 8.84759 1.38946 8.82127C1.48866 8.62759 1.36706 8.36127 1.05559 8.29495C1.16235 8.41015 1.22268 8.55992 1.22519 8.71601C1.22519 9.17495 1.09613 9.25285 1.09613 9.5718C1.09829 9.64619 1.11826 9.71902 1.15442 9.78433C1.19057 9.84965 1.24187 9.90559 1.30413 9.94759V9.94232C1.26613 9.94983 1.23016 9.96515 1.19855 9.98727C1.16694 10.0094 1.1404 10.0378 1.12066 10.0707C1.34169 10.1298 1.57494 10.1276 1.79479 10.0644C1.86809 10.0538 1.93806 10.0272 1.99968 9.9866C2.06129 9.946 2.11299 9.89241 2.15106 9.82969C2.19025 9.74048 2.21047 9.64429 2.21047 9.54706C2.21047 9.44983 2.19025 9.35363 2.15106 9.26443C2.02626 9.00548 1.44066 7.78864 1.25933 7.40022C1.21936 7.3188 1.19823 7.22963 1.19746 7.13917C1.1987 7.09617 1.20856 7.05384 1.22648 7.01464C1.24441 6.97543 1.27003 6.94012 1.30188 6.91075C1.33372 6.88138 1.37115 6.85854 1.412 6.84354C1.45285 6.82854 1.49631 6.82169 1.53986 6.82338C1.61255 6.82044 1.68371 6.84457 1.73922 6.89097C1.79474 6.93737 1.83056 7.00266 1.83959 7.0739C1.83959 7.16232 1.79159 7.21495 1.72119 7.21495C1.55373 7.21495 1.56333 7.0739 1.59746 6.98548C1.55178 6.99979 1.5123 7.02885 1.48541 7.068C1.45851 7.10715 1.44575 7.15409 1.44919 7.20127C1.38289 7.21006 1.32235 7.24312 1.27959 7.2939C1.29846 7.32079 1.32342 7.34297 1.35249 7.35869C1.38156 7.3744 1.41394 7.38321 1.44706 7.38443C1.41399 7.51917 1.50573 7.57706 1.59533 7.60864C1.56653 7.50969 1.54839 7.39811 1.71906 7.39811C1.77098 7.40454 1.8237 7.3983 1.87261 7.37995C1.92152 7.3616 1.96512 7.33169 1.99959 7.29285C1.99959 7.39811 2.01346 7.81917 2.01346 7.81917C2.02093 7.97706 1.80013 7.97285 1.65719 7.92443C1.71053 8.10653 1.81933 8.20548 2.07213 8.18022C2.03337 8.19511 2.0003 8.22158 1.97754 8.25593C1.95478 8.29028 1.94347 8.33079 1.94519 8.3718C1.95087 8.44333 1.97199 8.51284 2.00713 8.57565C2.04227 8.63847 2.09062 8.69315 2.14893 8.73601L2.18946 7.18969L2.18839 7.1918Z" fill="#FEC50C"/>
<path d="M2.18839 5.99952C2.18839 6.39636 1.82786 6.59952 1.54839 6.59952C1.16333 6.60373 0.959595 6.37847 0.959595 6.08373C0.957069 5.93322 0.993801 5.78461 1.06626 5.65215C1.06626 5.65215 1.69559 4.35952 1.94093 3.86268C1.97276 3.78787 1.98663 3.70681 1.98146 3.62583C1.98075 3.54208 1.94636 3.46204 1.88585 3.40331C1.82534 3.34458 1.74366 3.31198 1.65879 3.31268C1.57393 3.31337 1.49281 3.34731 1.4333 3.40703C1.37379 3.46675 1.34075 3.54735 1.34146 3.6311C1.34146 3.82899 1.44813 3.91636 1.55479 3.91636C1.68599 3.91636 1.73826 3.86268 1.73826 3.77215C1.73826 3.70899 1.70733 3.68162 1.66253 3.68162C1.55053 3.68162 1.58146 3.8311 1.58146 3.8311C1.56576 3.82782 1.55101 3.8211 1.53831 3.81141C1.52561 3.80173 1.51529 3.78935 1.50811 3.77518C1.50094 3.76102 1.49709 3.74544 1.49686 3.72961C1.49663 3.71377 1.50003 3.69809 1.50679 3.68373C1.46527 3.67395 1.42794 3.65147 1.40013 3.61952C1.42877 3.58961 1.46599 3.56905 1.50679 3.56057C1.50041 3.54557 1.49763 3.52932 1.49868 3.51308C1.49973 3.49684 1.50458 3.48107 1.51285 3.46699C1.52112 3.45292 1.53258 3.44093 1.54633 3.43196C1.56009 3.42299 1.57576 3.41729 1.59213 3.41531C1.57888 3.44396 1.57515 3.47601 1.58146 3.50689C1.61678 3.49504 1.6545 3.49187 1.69134 3.49766C1.72818 3.50345 1.76304 3.51802 1.79288 3.54011C1.82273 3.56219 1.84666 3.59113 1.86261 3.62442C1.87855 3.6577 1.88603 3.69432 1.88439 3.7311C1.88772 3.78204 1.87868 3.83304 1.85803 3.87985C1.83738 3.92665 1.80572 3.96793 1.76567 4.00025C1.72563 4.03256 1.67835 4.05499 1.62776 4.06566C1.57717 4.07634 1.52473 4.07495 1.47479 4.06162C1.50544 4.07645 1.5315 4.09911 1.55026 4.12725C1.56902 4.15539 1.5798 4.18798 1.58146 4.22162C1.54713 4.20952 1.5112 4.20243 1.47479 4.20057C1.5222 4.26074 1.54774 4.33488 1.54733 4.4111C1.49826 4.38899 1.45133 4.34794 1.38839 4.37426C1.48759 4.56794 1.36599 4.83426 1.05453 4.90057C1.16128 4.78538 1.22161 4.6356 1.22413 4.47952C1.22413 4.02057 1.09506 3.94268 1.09506 3.62373C1.09722 3.54934 1.1172 3.47651 1.15335 3.41119C1.1895 3.34588 1.2408 3.28994 1.30306 3.24794V3.2532C1.26506 3.24569 1.22909 3.23038 1.19748 3.20825C1.16588 3.18613 1.13934 3.15769 1.11959 3.12478C1.34062 3.06571 1.57388 3.06789 1.79373 3.1311C1.86702 3.14214 1.93691 3.16911 1.99834 3.21007C2.05977 3.25103 2.11121 3.30496 2.14893 3.36794C2.18812 3.45715 2.20834 3.55334 2.20834 3.65057C2.20834 3.7478 2.18812 3.844 2.14893 3.9332C2.02519 4.18899 1.44173 5.40689 1.25933 5.79426C1.21936 5.87568 1.19823 5.96484 1.19746 6.05531C1.1987 6.0983 1.20856 6.14063 1.22648 6.17984C1.24441 6.21904 1.27003 6.25435 1.30188 6.28372C1.33372 6.31309 1.37115 6.33594 1.412 6.35093C1.45285 6.36593 1.49631 6.37279 1.53986 6.3711C1.61255 6.37403 1.68371 6.3499 1.73922 6.3035C1.79474 6.2571 1.83056 6.19181 1.83959 6.12057C1.83959 6.03215 1.79159 5.97952 1.72119 5.97952C1.55373 5.97952 1.56333 6.12057 1.59746 6.20899C1.55249 6.19533 1.51336 6.16738 1.48616 6.1295C1.45896 6.09161 1.44521 6.04591 1.44706 5.99952C1.38089 5.98915 1.32111 5.95457 1.27959 5.90268C1.29846 5.87579 1.32342 5.85361 1.35249 5.83789C1.38156 5.82218 1.41394 5.81336 1.44706 5.81215C1.41399 5.67741 1.50573 5.61952 1.59533 5.58794C1.56653 5.68689 1.54839 5.79847 1.71906 5.79847C1.77098 5.79204 1.8237 5.79828 1.87261 5.81663C1.92152 5.83498 1.96512 5.86489 1.99959 5.90373C1.99959 5.79847 2.01346 5.37741 2.01346 5.37741C2.02093 5.21952 1.80013 5.22373 1.65719 5.27215C1.71053 5.09005 1.81933 4.9911 2.07213 5.01636C2.03337 5.00147 2.0003 4.975 1.97754 4.94065C1.95478 4.9063 1.94347 4.86579 1.94519 4.82478C1.95104 4.7537 1.97213 4.68465 2.00708 4.62223C2.04202 4.5598 2.09 4.50541 2.14786 4.46268L2.18839 5.99952Z" fill="#FEC50C"/>
<path d="M2.18853 12.9465C2.18853 13.3423 1.82799 13.5465 1.54853 13.5465C1.16666 13.5465 0.963994 13.3212 0.963994 13.0265C0.96142 12.876 0.998155 12.7273 1.07066 12.5949C1.07066 12.5949 1.69999 11.3023 1.94533 10.8054C1.97716 10.7306 1.99103 10.6496 1.98586 10.5686C1.98515 10.4848 1.95076 10.4048 1.89025 10.3461C1.82974 10.2873 1.74806 10.2547 1.66319 10.2554C1.57832 10.2561 1.49721 10.2901 1.4377 10.3498C1.37819 10.4095 1.34515 10.4901 1.34586 10.5738C1.34586 10.7717 1.45253 10.8591 1.55919 10.8591C1.69039 10.8591 1.74266 10.8054 1.74266 10.7149C1.74266 10.6517 1.71173 10.6244 1.66693 10.6244C1.55493 10.6244 1.58586 10.7738 1.58586 10.7738C1.57114 10.7704 1.55732 10.764 1.54532 10.7549C1.53332 10.7458 1.52341 10.7344 1.51625 10.7212C1.50909 10.7081 1.50484 10.6936 1.50379 10.6787C1.50273 10.6638 1.50489 10.6489 1.51013 10.6349C1.46861 10.6251 1.43128 10.6026 1.40346 10.5707C1.43211 10.5408 1.46932 10.5202 1.51013 10.5117C1.50374 10.4967 1.50096 10.4805 1.50201 10.4643C1.50306 10.448 1.50791 10.4322 1.51618 10.4182C1.52445 10.4041 1.53591 10.3921 1.54967 10.3831C1.56342 10.3742 1.5791 10.3685 1.59546 10.3665C1.58222 10.3951 1.57848 10.4272 1.58479 10.4581C1.62011 10.4462 1.65783 10.443 1.69467 10.4488C1.73152 10.4546 1.76637 10.4692 1.79622 10.4913C1.82606 10.5134 1.84999 10.5423 1.86594 10.5756C1.88189 10.6089 1.88937 10.6455 1.88773 10.6823C1.89105 10.7332 1.88201 10.7842 1.86136 10.831C1.84071 10.8778 1.80905 10.9191 1.76901 10.9514C1.72896 10.9837 1.68168 11.0062 1.63109 11.0168C1.5805 11.0275 1.52806 11.0261 1.47813 11.0128C1.50885 11.0275 1.53497 11.0502 1.55374 11.0783C1.57251 11.1065 1.58324 11.1391 1.58479 11.1728C1.55047 11.1607 1.51453 11.1536 1.47813 11.1517C1.52553 11.2119 1.55108 11.2861 1.55066 11.3623C1.50159 11.3402 1.45466 11.2991 1.39173 11.3254C1.49093 11.5191 1.36933 11.7854 1.05786 11.8517C1.16462 11.7365 1.22495 11.5868 1.22746 11.4307C1.22746 10.9717 1.09839 10.8938 1.09839 10.5749C1.10056 10.5005 1.12053 10.4277 1.15668 10.3624C1.19283 10.2971 1.24414 10.2411 1.30639 10.1991V10.2044C1.2684 10.1969 1.23242 10.1815 1.20082 10.1594C1.16921 10.1373 1.14267 10.1089 1.12293 10.076C1.34396 10.0169 1.57721 10.0191 1.79706 10.0823C1.87035 10.0929 1.94033 10.1195 2.00194 10.1601C2.06355 10.2007 2.11526 10.2543 2.15333 10.317C2.19252 10.4062 2.21274 10.5024 2.21274 10.5996C2.21274 10.6969 2.19252 10.7931 2.15333 10.8823C2.02959 11.1381 1.44613 12.356 1.26373 12.7433C1.22376 12.8247 1.20263 12.9139 1.20186 13.0044C1.2031 13.0474 1.21296 13.0897 1.23088 13.1289C1.24881 13.1681 1.27443 13.2034 1.30628 13.2328C1.33812 13.2622 1.37555 13.285 1.4164 13.3C1.45725 13.315 1.50071 13.3219 1.54426 13.3202C1.61695 13.3231 1.68811 13.299 1.74362 13.2526C1.79914 13.2062 1.83496 13.1409 1.84399 13.0696C1.84399 12.9812 1.79599 12.9286 1.72559 12.9286C1.55813 12.9286 1.56773 13.0696 1.60186 13.1581C1.55618 13.1438 1.5167 13.1147 1.48981 13.0755C1.46291 13.0364 1.45015 12.9894 1.45359 12.9423C1.38446 12.9324 1.32203 12.8961 1.27973 12.8412C1.2986 12.8143 1.32356 12.7921 1.35262 12.7764C1.38169 12.7607 1.41407 12.7519 1.44719 12.7507C1.41413 12.616 1.50586 12.5581 1.59546 12.5265C1.56666 12.6254 1.54853 12.737 1.71919 12.737C1.77111 12.7306 1.82383 12.7368 1.87274 12.7552C1.92165 12.7735 1.96525 12.8034 1.99973 12.8423C1.99973 12.737 2.01359 12.316 2.01359 12.316C2.02106 12.1581 1.80026 12.1623 1.65733 12.2107C1.71066 12.0286 1.81946 11.9296 2.07226 11.9549C2.0335 11.94 2.00043 11.9135 1.97768 11.8792C1.95492 11.8448 1.94361 11.8043 1.94533 11.7633C1.95132 11.6924 1.97248 11.6236 2.00742 11.5613C2.04235 11.4991 2.09027 11.4449 2.14799 11.4023L2.18853 12.9465Z" fill="#FEC50C"/>
<path d="M2.10869 12.9465C2.10869 13.3423 2.46922 13.5465 2.74869 13.5465C3.13055 13.5465 3.33322 13.3212 3.33322 13.0265C3.33574 12.876 3.29901 12.7274 3.22655 12.5949C3.22655 12.5949 2.59722 11.3023 2.35189 10.8054C2.32006 10.7306 2.30618 10.6496 2.31135 10.5686C2.31206 10.4848 2.34645 10.4048 2.40696 10.3461C2.46748 10.2873 2.54915 10.2547 2.63402 10.2554C2.71889 10.2561 2.8 10.2901 2.85951 10.3498C2.91902 10.4095 2.95206 10.4901 2.95135 10.5738C2.95135 10.7717 2.84469 10.8591 2.73802 10.8591C2.60682 10.8591 2.55455 10.8054 2.55455 10.7149C2.55455 10.6517 2.58549 10.6244 2.63029 10.6244C2.74229 10.6244 2.71135 10.7738 2.71135 10.7738C2.72607 10.7704 2.73989 10.764 2.75189 10.7549C2.76389 10.7458 2.7738 10.7344 2.78096 10.7212C2.78812 10.7081 2.79237 10.6936 2.79343 10.6787C2.79448 10.6638 2.79232 10.6489 2.78709 10.6349C2.82861 10.6251 2.86594 10.6026 2.89375 10.5707C2.86507 10.5408 2.82787 10.5203 2.78709 10.5117C2.79347 10.4967 2.79625 10.4805 2.7952 10.4643C2.79415 10.448 2.7893 10.4322 2.78103 10.4182C2.77276 10.4041 2.7613 10.3921 2.74755 10.3831C2.73379 10.3742 2.71812 10.3685 2.70175 10.3665C2.715 10.3951 2.71873 10.4272 2.71242 10.4581C2.6771 10.4462 2.63938 10.443 2.60254 10.4488C2.5657 10.4546 2.53084 10.4692 2.501 10.4913C2.47115 10.5134 2.44722 10.5423 2.43127 10.5756C2.41533 10.6089 2.40785 10.6455 2.40949 10.6823C2.40617 10.7332 2.4152 10.7842 2.43585 10.831C2.4565 10.8778 2.48816 10.9191 2.52821 10.9514C2.56825 10.9837 2.61553 11.0062 2.66612 11.0168C2.71671 11.0275 2.76915 11.0261 2.81909 11.0128C2.78837 11.0275 2.76224 11.0502 2.74347 11.0783C2.7247 11.1065 2.71397 11.1391 2.71242 11.1728C2.74674 11.1607 2.78268 11.1536 2.81909 11.1517C2.77168 11.2119 2.74614 11.2861 2.74655 11.3623C2.79562 11.3402 2.84255 11.2991 2.90549 11.3254C2.80629 11.5191 2.92789 11.7854 3.23935 11.8517C3.1326 11.7365 3.07227 11.5868 3.06975 11.4307C3.06975 10.9717 3.19882 10.8938 3.19882 10.5749C3.19666 10.5005 3.17668 10.4277 3.14053 10.3624C3.10438 10.2971 3.05308 10.2411 2.99082 10.1991V10.2044C3.02882 10.1969 3.06479 10.1815 3.0964 10.1594C3.128 10.1373 3.15454 10.1089 3.17429 10.076C2.95326 10.0169 2.72001 10.0191 2.50015 10.0823C2.42684 10.0929 2.35683 10.1194 2.29521 10.16C2.23359 10.2006 2.18189 10.2542 2.14389 10.317C2.10469 10.4062 2.08447 10.5024 2.08447 10.5996C2.08447 10.6969 2.10469 10.7931 2.14389 10.8823C2.26762 11.1381 2.85109 12.356 3.03349 12.7433C3.07345 12.8247 3.09458 12.9139 3.09535 13.0044C3.09398 13.0473 3.08402 13.0896 3.06605 13.1287C3.04807 13.1679 3.02245 13.2031 2.99063 13.2325C2.95882 13.2618 2.92144 13.2847 2.88066 13.2997C2.83987 13.3148 2.79647 13.3217 2.75295 13.3202C2.68026 13.3231 2.60911 13.299 2.55359 13.2526C2.49808 13.2062 2.46225 13.1409 2.45322 13.0696C2.45322 12.9812 2.50122 12.9286 2.57162 12.9286C2.73909 12.9286 2.72949 13.0696 2.69535 13.1581C2.74104 13.1438 2.78051 13.1147 2.80741 13.0755C2.83431 13.0364 2.84706 12.9894 2.84362 12.9423C2.90931 12.9327 2.96903 12.8993 3.01109 12.8486C2.99222 12.8217 2.96726 12.7995 2.93819 12.7838C2.90912 12.7681 2.87674 12.7593 2.84362 12.7581C2.87669 12.6233 2.78495 12.5654 2.69535 12.5338C2.72415 12.6328 2.74229 12.7444 2.57162 12.7444C2.5197 12.738 2.46698 12.7442 2.41807 12.7625C2.36916 12.7809 2.32556 12.8108 2.29109 12.8496C2.29109 12.7444 2.27722 12.3233 2.27722 12.3233C2.26975 12.1654 2.49055 12.1696 2.63349 12.2181C2.58015 12.036 2.47135 11.937 2.21855 11.9623C2.25954 11.947 2.29428 11.9188 2.31741 11.8821C2.34055 11.8454 2.35079 11.8021 2.34655 11.7591C2.34063 11.6882 2.31949 11.6193 2.28455 11.5571C2.24961 11.4948 2.20166 11.4406 2.14389 11.3981L2.10869 12.9465Z" fill="#FEC50C"/>
<path d="M2.14933 1.71666C2.14933 1.71666 2.34026 1.55877 2.40426 1.63771C2.51093 1.76508 2.08426 2.39982 2.08426 2.62298C2.08426 2.98929 2.33279 3.08929 2.63893 3.14192C2.81876 3.15914 3.00007 3.15419 3.17866 3.12719C3.15728 3.09051 3.12603 3.06039 3.08839 3.04014C3.05074 3.01989 3.00815 3.01031 2.96533 3.01245C3.03873 2.97492 3.10002 2.91785 3.14225 2.84772C3.18448 2.77758 3.20596 2.69717 3.20426 2.61561C3.20426 2.29982 3.07306 2.17035 3.07306 1.81456C3.09314 1.65484 3.15007 1.5018 3.23946 1.36719C3.1793 1.36984 3.12059 1.38623 3.06794 1.41506C3.01528 1.44389 2.97012 1.48438 2.93601 1.53335C2.90189 1.58232 2.87976 1.63843 2.87133 1.69727C2.86291 1.75611 2.86843 1.81607 2.88746 1.87245C2.86535 1.87642 2.84261 1.87515 2.8211 1.86874C2.79958 1.86234 2.77992 1.85098 2.76373 1.83561C2.75759 1.86878 2.75962 1.90293 2.76964 1.93517C2.77967 1.96741 2.79739 1.9968 2.82133 2.02087C2.78506 2.03982 2.75839 2.02824 2.70079 2.02087C2.70709 2.05965 2.72228 2.0965 2.7452 2.12861C2.76812 2.16072 2.79817 2.18723 2.83306 2.20613C2.78492 2.19027 2.73364 2.18594 2.68346 2.1935C2.63329 2.20105 2.58565 2.22028 2.54449 2.24958C2.50333 2.27889 2.46982 2.31744 2.44674 2.36205C2.42365 2.40666 2.41165 2.45605 2.41173 2.50613C2.40712 2.56416 2.42524 2.62171 2.46235 2.66695C2.49945 2.71219 2.55273 2.74166 2.61119 2.74929C2.64916 2.7486 2.68615 2.73729 2.71786 2.71666C2.72427 2.73715 2.72644 2.75871 2.72424 2.78005C2.72205 2.80139 2.71552 2.82207 2.70506 2.84087C2.77759 2.82192 2.82239 2.77982 2.79039 2.6914C2.81496 2.69028 2.83904 2.68429 2.86121 2.6738C2.88338 2.66332 2.90319 2.64854 2.91946 2.63035C2.9043 2.61105 2.88466 2.59562 2.8622 2.58536C2.83974 2.57511 2.81512 2.57032 2.79039 2.5714C2.83093 2.48929 2.79039 2.44298 2.71999 2.40613C2.71999 2.40613 2.76159 2.5714 2.65493 2.5714C2.60693 2.5714 2.56319 2.55561 2.56319 2.48613C2.56469 2.4651 2.57062 2.4446 2.5806 2.42595C2.59059 2.40731 2.6044 2.39092 2.62117 2.37784C2.63793 2.36477 2.65728 2.35528 2.67797 2.35001C2.69866 2.34473 2.72024 2.34377 2.74133 2.34719C2.86506 2.35245 2.96533 2.4314 2.96533 2.62719C2.96533 2.82298 2.81813 2.89666 2.62399 2.90298C2.58546 2.90884 2.5461 2.90629 2.50868 2.89551C2.47125 2.88473 2.43668 2.86598 2.40739 2.84059C2.3781 2.8152 2.35481 2.78378 2.33916 2.74855C2.32351 2.71332 2.31587 2.67512 2.31679 2.63666C2.31679 2.39982 2.66346 1.85877 2.66346 1.64719C2.66172 1.61223 2.65287 1.57797 2.63744 1.54645C2.62202 1.51493 2.60032 1.48679 2.57365 1.46372C2.54698 1.44064 2.51588 1.42309 2.4822 1.41211C2.44852 1.40113 2.41295 1.39695 2.37759 1.39982C2.24683 1.41598 2.12675 1.47935 2.04053 1.57771L2.14719 1.7114L2.14933 1.71666Z" fill="#FEC50C"/>
<path d="M2.14979 1.71666C2.14979 1.71666 1.95886 1.55877 1.89486 1.63771C1.78819 1.76508 2.21486 2.39982 2.21486 2.62298C2.21486 2.98929 1.96633 3.08929 1.66019 3.14192C1.48036 3.15914 1.29905 3.15419 1.12046 3.12719C1.14184 3.09051 1.17309 3.06039 1.21073 3.04014C1.24838 3.01989 1.29097 3.01031 1.33379 3.01245C1.26039 2.97492 1.1991 2.91785 1.15687 2.84772C1.11465 2.77758 1.09316 2.69717 1.09486 2.61561C1.09486 2.29982 1.22606 2.17035 1.22606 1.81456C1.20566 1.65475 1.14836 1.5017 1.05859 1.36719C1.11875 1.36984 1.17746 1.38623 1.23012 1.41506C1.28277 1.44389 1.32793 1.48438 1.36205 1.53335C1.39616 1.58232 1.4183 1.63843 1.42672 1.69727C1.43515 1.75611 1.42963 1.81607 1.41059 1.87245C1.4327 1.87642 1.45545 1.87515 1.47696 1.86874C1.49847 1.86234 1.51813 1.85098 1.53433 1.83561C1.54046 1.86878 1.53844 1.90293 1.52841 1.93517C1.51839 1.96741 1.50066 1.9968 1.47673 2.02087C1.51299 2.03982 1.53966 2.02824 1.59726 2.02087C1.59096 2.05965 1.57578 2.0965 1.55285 2.12861C1.52993 2.16072 1.49988 2.18723 1.46499 2.20613C1.51314 2.19027 1.56442 2.18594 1.61459 2.1935C1.66477 2.20105 1.7124 2.22028 1.75356 2.24958C1.79473 2.27889 1.82823 2.31744 1.85132 2.36205C1.8744 2.40666 1.8864 2.45605 1.88633 2.50613C1.89093 2.56416 1.87282 2.62171 1.83571 2.66695C1.7986 2.71219 1.74533 2.74166 1.68686 2.74929C1.6489 2.74854 1.61193 2.73723 1.58019 2.71666C1.57378 2.73715 1.57161 2.75871 1.57381 2.78005C1.57601 2.80139 1.58253 2.82207 1.59299 2.84087C1.52046 2.82192 1.47566 2.77982 1.50766 2.6914C1.48309 2.69034 1.45899 2.68438 1.43681 2.67389C1.41462 2.66339 1.39482 2.64858 1.37859 2.63035C1.39376 2.61105 1.4134 2.59562 1.43585 2.58536C1.45831 2.57511 1.48294 2.57032 1.50766 2.5714C1.46713 2.48929 1.50766 2.44298 1.57806 2.40613C1.57806 2.40613 1.53646 2.5714 1.64313 2.5714C1.69113 2.5714 1.73486 2.55561 1.73486 2.48613C1.73336 2.4651 1.72743 2.4446 1.71745 2.42595C1.70747 2.40731 1.69365 2.39092 1.67689 2.37784C1.66012 2.36477 1.64077 2.35528 1.62008 2.35001C1.59939 2.34473 1.57781 2.34377 1.55673 2.34719C1.43299 2.35245 1.33166 2.4314 1.33166 2.62719C1.33166 2.82298 1.47886 2.89666 1.67299 2.90298C1.71152 2.90884 1.75089 2.90629 1.78831 2.89551C1.82573 2.88473 1.86031 2.86598 1.8896 2.84059C1.91889 2.8152 1.94218 2.78378 1.95783 2.74855C1.97348 2.71332 1.98112 2.67512 1.98019 2.63666C1.98019 2.39982 1.63353 1.85877 1.63353 1.64719C1.63581 1.61249 1.64509 1.5786 1.66083 1.54749C1.67656 1.51639 1.69844 1.4887 1.72516 1.46605C1.75189 1.4434 1.78294 1.42624 1.81647 1.41559C1.85001 1.40494 1.88536 1.40101 1.92046 1.40403C2.05062 1.41909 2.17061 1.48092 2.25753 1.57771L2.15086 1.7114L2.14979 1.71666Z" fill="#FEC50C"/>
</g>
<defs>
<clipPath id="clip0_14274_23651">
<rect width="28" height="20" rx="3" fill="white"/>
</clipPath>
</defs>
</svg>
