<svg width="28" height="20" viewBox="0 0 28 20" fill="none" xmlns="http://www.w3.org/2000/svg">
<g clip-path="url(#clip0_14274_21443)">
<mask id="mask0_14274_21443" style="mask-type:luminance" maskUnits="userSpaceOnUse" x="0" y="0" width="28" height="20">
<path d="M28 0H0V20H28V0Z" fill="white"/>
</mask>
<g mask="url(#mask0_14274_21443)">
<path d="M29.5113 0.0112305H-1.51172V6.67043H29.5113V0.0112305Z" fill="#04733B"/>
<path d="M29.5113 6.67041H-1.51172V13.3296H29.5113V6.67041Z" fill="#FAFDFF"/>
<path d="M29.5113 13.3296H-1.51172V19.9888H29.5113V13.3296Z" fill="#1F1F1F"/>
<path d="M6.24409 0.0112305H-1.51172V19.989H6.24409V0.0112305Z" fill="#EC2024"/>
</g>
<path d="M19.6127 10.386L19.6817 10.396L19.7863 10.404L19.8255 10.418L19.8927 10.458L20.0084 10.51L20.1372 10.524L20.2623 10.498L20.3687 10.424L20.3388 10.396L20.3799 10.31L20.4247 10.324L20.4564 10.382L20.4471 10.424L20.5628 10.474L20.7009 10.48L20.8185 10.436L20.8727 10.332L20.8335 10.202L20.7532 10.168L20.7252 10.156L20.5927 10.126L20.5777 10.116L20.4788 10.05L20.4601 10.028L20.4209 9.95797L20.4377 9.93597L20.4415 9.92197L20.4209 9.86597L20.3873 9.91397L20.3444 9.93997L20.238 9.98997L20.1465 10.07L20.1204 10.084L20.0905 10.076L20.0345 10.05H19.9991L19.9524 10.066L19.9356 10.07L19.8871 10.106L19.8143 10.176L19.7732 10.198L19.678 10.236L19.6276 10.27L19.5679 10.334L19.5697 10.37L19.6127 10.386Z" fill="#FAFDFF"/>
<path d="M21.754 9.70204L21.8025 9.73804L21.8679 9.82204L21.8921 9.83604L21.9351 9.83804L21.9668 9.82804L22.0041 9.80804L22.0396 9.77604L22.0676 9.73804L21.9799 9.63004L21.9425 9.56604L21.9089 9.49004L21.8529 9.48804L21.7969 9.50604L21.7521 9.54204L21.7223 9.58204L21.7036 9.65404L21.7167 9.68404L21.754 9.70204Z" fill="#FAFDFF"/>
<path d="M21.5283 9.93213L21.6254 9.96213L21.7094 10.0021L21.7467 10.0841L21.7784 9.96613L21.7374 9.85413L21.6888 9.79613L21.5918 9.67813L21.5582 9.64813L21.5395 9.63013L21.4555 9.66813L21.4014 9.76213L21.4443 9.88013L21.5283 9.93213Z" fill="#FAFDFF"/>
<path d="M21.8864 5.57211L21.9368 5.59811L21.9032 5.43811L21.8248 5.41211L21.7744 5.49211L21.8379 5.57211H21.8864Z" fill="#04733B"/>
<path d="M22.2036 9.68811L22.2671 9.65411L22.3082 9.52211L22.3063 9.46011L22.269 9.42011L22.1887 9.36011L22.1383 9.36611L22.1514 9.41011L22.2074 9.45411L22.2186 9.48011L22.213 9.50011L22.1962 9.49011L22.1588 9.46611L22.1159 9.45411L22.0879 9.45811L22.0972 9.49011L22.2036 9.68811Z" fill="#FAFDFF"/>
<path d="M17.8711 9.86204L17.8842 9.85604L17.9663 9.83804L18.0205 9.84804L18.1679 9.87204L18.2071 9.80404L18.2781 9.84404L18.3341 9.85004L18.3882 9.92204L18.4218 9.85404V9.80404L18.4778 9.76004L18.5693 9.74604L18.6421 9.69604L18.7933 9.62004L18.8437 9.56404L18.8679 9.38804L18.7783 9.33404L18.7727 9.31004L18.7559 9.26404L18.7522 9.23804L18.6831 9.29004L18.5375 9.52004L18.5618 9.56604L18.5655 9.61404L18.5581 9.66404L18.5245 9.68204L18.4853 9.66004L18.4479 9.58804H18.4143L18.3434 9.62404L18.2146 9.67804L18.1941 9.69404L18.1735 9.71404L18.0746 9.76204L18.0354 9.77204L17.8917 9.73804L17.8786 9.75004L17.8655 9.77804L17.8525 9.81004L17.8506 9.83804L17.8599 9.86204H17.8711Z" fill="#FAFDFF"/>
<path d="M22.6743 9.18208L22.777 9.20208L22.8292 9.18208L22.8255 9.13008L22.7564 9.05408L22.6127 8.97408L22.5436 8.91608L22.5156 8.83208L22.5418 8.73608H22.5156L22.4615 8.82408L22.3047 8.98208V9.05408L22.4895 9.11608L22.6743 9.18208Z" fill="#FAFDFF"/>
<path d="M15.5101 9.90597L15.5605 9.96397L15.624 9.89597L15.6968 9.82597L15.7808 9.70797L15.7882 9.63797L15.7677 9.51997L15.7248 9.44797L15.6352 9.41797L15.5418 9.47597L15.4933 9.55197L15.4298 9.62997L15.4224 9.71997L15.4672 9.82797L15.5101 9.90597Z" fill="#FAFDFF"/>
<path d="M17.416 7.17799L17.4216 7.19999L17.4459 7.22599L17.4608 7.13199L17.4459 7.05399L17.375 7.04199L17.3638 7.07599L17.3843 7.13399L17.416 7.17799Z" fill="#FAFDFF"/>
<path d="M14.3898 8.87816L14.4085 8.89016L14.429 8.91816L14.485 8.95216L14.5317 8.92816L14.5821 8.83416L14.5559 8.72416L14.4682 8.66016L14.4253 8.68816L14.3954 8.74216L14.3618 8.79216L14.3655 8.85416L14.3898 8.87816Z" fill="#FAFDFF"/>
<path d="M25.5377 5.64458V5.64032L25.5321 5.63818L25.5303 5.64032V5.64458L25.534 5.64885H25.5377L25.5396 5.64672L25.5377 5.64458Z" fill="#04733B"/>
<path d="M25.5377 5.65423L25.5359 5.6521H25.534L25.5321 5.65637L25.5303 5.6585L25.5321 5.66063H25.5359L25.5377 5.65637V5.65423Z" fill="#04733B"/>
<path d="M25.5527 5.64831L25.5508 5.64618L25.549 5.64404H25.5434L25.5415 5.64831V5.65044L25.5452 5.65258L25.5508 5.65044L25.5527 5.64831Z" fill="#04733B"/>
<path d="M25.5133 5.63208H25.5115L25.5077 5.63635L25.5059 5.63848H25.5096L25.5133 5.63421V5.63208Z" fill="#04733B"/>
<path d="M25.5153 5.56628L25.5134 5.56201H25.5097L25.5078 5.56415L25.5115 5.56841L25.5134 5.57054L25.5153 5.56628Z" fill="#04733B"/>
<path d="M25.5432 5.48034L25.5413 5.47821L25.5395 5.47607H25.5376V5.48034V5.48674H25.5395L25.5432 5.48461V5.48034Z" fill="#04733B"/>
<path d="M25.5938 5.44604L25.5975 5.45031L25.5994 5.45245H25.6031V5.45031L25.5994 5.44604H25.5956H25.5938Z" fill="#04733B"/>
<path d="M25.5994 5.43871L25.6013 5.43658V5.43231L25.5994 5.43018H25.5957V5.43231V5.43658L25.5976 5.43871H25.5994Z" fill="#04733B"/>
<path d="M25.5525 5.43408H25.5487L25.5469 5.43621L25.5487 5.43835L25.5525 5.43621V5.43408Z" fill="#04733B"/>
<path d="M25.5376 5.49841L25.5395 5.50054H25.5432L25.5451 5.49627L25.5432 5.49414H25.5395L25.5376 5.49627V5.49841Z" fill="#04733B"/>
<path d="M25.5601 5.45208L25.5564 5.44608L25.562 5.44008L25.5638 5.43808V5.43608L25.5601 5.43408H25.5564L25.5508 5.44008V5.44208L25.5582 5.45208H25.5601Z" fill="#04733B"/>
<path d="M25.4312 5.5404L25.433 5.54467L25.4368 5.54253L25.4386 5.53827V5.53613H25.433L25.4312 5.5404Z" fill="#04733B"/>
<path d="M25.4369 5.56201L25.4351 5.56415V5.56841V5.57054H25.4369H25.4407V5.56628V5.56201H25.4388H25.4369Z" fill="#04733B"/>
<path d="M25.5845 5.56237L25.5827 5.55811H25.5771L25.5752 5.56024V5.56451H25.5771H25.5827H25.5845V5.56237Z" fill="#04733B"/>
<path d="M25.4292 5.52429V5.52855L25.4311 5.53069H25.4329L25.4348 5.52855V5.52642V5.52215H25.4367V5.52002H25.4311L25.4292 5.52429Z" fill="#04733B"/>
<path d="M25.6068 5.60999H25.6087L25.6124 5.60599V5.60399L25.6087 5.60199V5.59399H25.6068L25.605 5.59599L25.6068 5.59799V5.59999L25.605 5.60199V5.60599L25.6068 5.60999Z" fill="#04733B"/>
<path d="M25.439 5.54449L25.4408 5.54662L25.4427 5.54449L25.4446 5.54022L25.4427 5.53809H25.4408L25.439 5.54449Z" fill="#04733B"/>
<path d="M25.4442 5.52197L25.4424 5.52624L25.4442 5.52837H25.448H25.4498V5.52411L25.448 5.52197H25.4442Z" fill="#04733B"/>
<path d="M25.6347 5.49013L25.6309 5.49213H25.6272L25.6234 5.49413L25.6216 5.49613V5.50013V5.50413H25.6234L25.6272 5.50613V5.50413V5.50013L25.6253 5.49613L25.6272 5.49413H25.6328H25.6347L25.6402 5.48613L25.6421 5.48813V5.49013L25.644 5.49813L25.6589 5.49613L25.6664 5.50013L25.6701 5.50413H25.672V5.50213V5.49813L25.6701 5.49413L25.6645 5.49013L25.6608 5.48813H25.6533L25.6496 5.48613L25.6477 5.48413H25.6328L25.6272 5.48613L25.6253 5.48813H25.6272L25.6328 5.48613H25.6365V5.48813L25.6347 5.49013Z" fill="#04733B"/>
<path d="M25.6383 5.51811V5.51611H25.6346V5.51811V5.52611L25.6309 5.53011V5.53411L25.6365 5.53211L25.6402 5.53411L25.6421 5.53211L25.6383 5.52811L25.6421 5.51811H25.6383Z" fill="#04733B"/>
<path d="M25.6498 5.44409H25.6461H25.6386H25.6367V5.44609L25.6386 5.45009L25.6442 5.45609L25.6498 5.46209H25.6517L25.6535 5.46009L25.6479 5.45609L25.6461 5.45409V5.45009H25.6498L25.6554 5.45409L25.6573 5.45209V5.45009L25.6535 5.44809L25.6498 5.44409Z" fill="#04733B"/>
<path d="M25.6014 5.59399H25.5995L25.5977 5.59826V5.60039L25.5995 5.60253H25.6051V5.60039L25.6014 5.59399Z" fill="#04733B"/>
<path d="M25.62 5.52215L25.6182 5.52642V5.52855H25.6219L25.6238 5.52215L25.6219 5.52002L25.62 5.52215Z" fill="#04733B"/>
<path d="M25.6516 5.47612L25.6479 5.47812L25.646 5.48012L25.6516 5.47812L25.6628 5.47612L25.6665 5.47812L25.6703 5.48212L25.674 5.48612V5.49212L25.6759 5.49412L25.6777 5.49812H25.6796L25.6815 5.49612L25.6777 5.49012L25.6759 5.48812V5.48412L25.6721 5.47812H25.6703L25.6647 5.47412H25.6609L25.6516 5.47612Z" fill="#04733B"/>
<path d="M25.5748 5.54058L25.5767 5.54271L25.5786 5.54058L25.5805 5.53845L25.5823 5.54271H25.5842V5.54058V5.53631V5.53418H25.5805V5.53631H25.5786L25.5767 5.53418H25.5748V5.53845H25.573V5.53631L25.5711 5.53418H25.5693L25.5674 5.53845L25.5711 5.54058H25.5748Z" fill="#04733B"/>
<path d="M25.5748 5.47857V5.4743L25.573 5.47217L25.5674 5.47643V5.47857H25.5711H25.5748Z" fill="#04733B"/>
<path d="M25.5508 5.53845L25.5545 5.54058L25.5564 5.53845V5.53631L25.5545 5.53418L25.5508 5.53631V5.53845Z" fill="#04733B"/>
<path d="M25.5955 5.5266H25.5974V5.52447V5.51807H25.5955L25.5918 5.52233L25.5955 5.5266Z" fill="#04733B"/>
<path d="M25.5562 5.56812V5.57025L25.558 5.57452L25.5599 5.57238L25.558 5.56812H25.5562Z" fill="#04733B"/>
<path d="M25.5527 5.50806V5.51446H25.5565L25.5583 5.51019L25.5565 5.50806H25.5527Z" fill="#04733B"/>
<path d="M25.5584 5.55811H25.5566L25.5547 5.56024V5.56451H25.5566H25.5584L25.5603 5.56024L25.5584 5.55811Z" fill="#04733B"/>
<path d="M25.5902 5.49414L25.5864 5.49627V5.49841L25.5883 5.50267L25.5939 5.50054L25.5958 5.49414H25.5939H25.5902Z" fill="#04733B"/>
<path d="M25.5547 5.5202V5.52447V5.5266H25.5584L25.5603 5.52447V5.5202V5.51807H25.5566L25.5547 5.5202Z" fill="#04733B"/>
<path d="M25.5731 5.52837V5.52624V5.52411L25.5713 5.52197L25.5657 5.52411L25.5601 5.52837L25.5619 5.53051H25.5657L25.5694 5.52837H25.5731Z" fill="#04733B"/>
<path d="M25.5675 5.49609H25.5657H25.5638L25.5601 5.49823V5.50249L25.5619 5.50463L25.5657 5.50249L25.5694 5.49823L25.5675 5.49609Z" fill="#04733B"/>
<path d="M25.564 5.51214V5.51641L25.5658 5.51854H25.5677L25.5696 5.51641V5.51214L25.5658 5.51001L25.564 5.51214Z" fill="#04733B"/>
<path d="M25.5618 5.54632V5.54419H25.5581V5.54846V5.55059H25.5618V5.54632Z" fill="#04733B"/>
<path d="M25.5656 5.53631L25.5637 5.53418H25.5618L25.5581 5.53631L25.56 5.54058H25.5618H25.5656V5.53631Z" fill="#04733B"/>
<path d="M25.5546 5.54839L25.5565 5.54413L25.5546 5.54199H25.5527V5.54839L25.5546 5.55053V5.54839Z" fill="#04733B"/>
<path d="M25.5319 5.56024L25.53 5.55811H25.5244V5.56451L25.5263 5.56664H25.5319L25.5337 5.56451L25.5319 5.56024Z" fill="#04733B"/>
<path d="M25.5731 5.55041H25.5749V5.54828L25.5712 5.54614L25.5693 5.54828V5.55041H25.5731Z" fill="#04733B"/>
<path d="M25.5674 5.59204L25.56 5.59417L25.5581 5.59631L25.5618 5.59844H25.5656L25.5693 5.59417L25.5674 5.59204Z" fill="#04733B"/>
<path d="M25.56 5.59074L25.5619 5.58861V5.58648V5.58221H25.5563L25.5544 5.58008L25.5488 5.58221V5.58648H25.5507H25.5526H25.5563V5.59074H25.56Z" fill="#04733B"/>
<path d="M25.461 5.52826L25.4573 5.52612H25.4536L25.4517 5.53039L25.4498 5.53252H25.4442L25.4424 5.53466L25.4461 5.53679L25.4517 5.53252H25.4536L25.4592 5.53679L25.4629 5.53039L25.461 5.52826Z" fill="#04733B"/>
<path d="M25.6048 5.53466H25.6067V5.53039V5.52826L25.6029 5.52612L25.6011 5.52826V5.53039L25.6048 5.53466Z" fill="#04733B"/>
<path d="M25.5696 5.54419H25.5677L25.5658 5.54632L25.564 5.55059L25.5658 5.55272L25.5677 5.55059L25.5696 5.54846V5.54632V5.54419Z" fill="#04733B"/>
<path d="M25.5319 5.57665L25.5337 5.57238L25.53 5.56812L25.5244 5.57025V5.57665L25.5281 5.57878L25.5319 5.57665Z" fill="#04733B"/>
<path d="M25.5938 5.50824L25.5956 5.51037H25.5994H25.6049V5.50824V5.5061H25.5994H25.5938V5.50824Z" fill="#04733B"/>
<path d="M25.5543 5.48034L25.5525 5.47821L25.5487 5.47607L25.5469 5.48034H25.5487L25.5543 5.48247L25.5674 5.49101H25.5711L25.5767 5.48887L25.5786 5.48247V5.47821H25.5767L25.573 5.48674H25.5674L25.5637 5.48461L25.5618 5.48247L25.5599 5.48034H25.5562H25.5543Z" fill="#04733B"/>
<path d="M25.6033 5.50249L25.6051 5.50036V5.49609H25.5977L25.5995 5.50036L25.6033 5.50249Z" fill="#04733B"/>
<path d="M25.5785 5.56616L25.5767 5.5683V5.57043L25.5785 5.5747L25.5823 5.57683L25.5841 5.5747L25.5823 5.5683L25.5785 5.56616Z" fill="#04733B"/>
<path d="M25.5247 5.54449V5.54022L25.5229 5.53809L25.521 5.54022V5.54875H25.5229L25.5247 5.54662V5.54449Z" fill="#04733B"/>
<path d="M25.5562 5.47051V5.47264H25.558H25.5618L25.5636 5.46838V5.46411H25.558L25.5562 5.46624V5.47051Z" fill="#04733B"/>
<path d="M25.6701 5.518L25.6719 5.52L25.6757 5.518L25.6775 5.514V5.51H25.6757H25.6701L25.6682 5.508L25.6663 5.506H25.6645L25.6589 5.51H25.657H25.6551L25.6514 5.508L25.6477 5.504H25.6458L25.6439 5.506L25.6421 5.504V5.5H25.6383L25.6365 5.504H25.6327L25.6309 5.506H25.6346V5.508V5.51L25.6365 5.512L25.6402 5.51L25.6477 5.512L25.6514 5.514V5.518V5.52H25.6477L25.6458 5.524V5.532L25.6439 5.538H25.6458L25.6477 5.54H25.6495L25.6533 5.534V5.518L25.657 5.52L25.6607 5.518L25.6663 5.516L25.6701 5.512H25.6757V5.514L25.6701 5.518Z" fill="#04733B"/>
<path d="M25.4628 5.64404H25.4609V5.64618H25.4628V5.64404Z" fill="#04733B"/>
<path d="M25.4703 5.59826L25.4684 5.59399H25.4665L25.4628 5.59613L25.4609 5.60039H25.4628L25.4647 5.59826H25.4703Z" fill="#04733B"/>
<path d="M25.4631 5.62847V5.62634V5.6242L25.4613 5.62207H25.4594L25.4575 5.62634L25.4613 5.6306L25.4631 5.62847Z" fill="#04733B"/>
<path d="M25.4573 5.6447V5.6383H25.4592L25.4611 5.63403H25.4573L25.4536 5.64043V5.64257V5.6447H25.4573Z" fill="#04733B"/>
<path d="M25.4759 5.53838L25.4703 5.53625L25.4647 5.53198L25.4628 5.53412L25.4609 5.53625L25.4628 5.53838L25.4703 5.54478L25.4721 5.54692L25.474 5.54478L25.4759 5.54265H25.4796L25.4777 5.54052L25.4759 5.53838Z" fill="#04733B"/>
<path d="M25.4482 5.63031V5.63244L25.452 5.63457L25.4538 5.63244L25.452 5.62817H25.4501L25.4482 5.63031Z" fill="#04733B"/>
<path d="M25.4502 5.58618V5.59258L25.4521 5.59472H25.4539H25.4558L25.4577 5.59045L25.4595 5.58832V5.58618H25.4577H25.4502Z" fill="#04733B"/>
<path d="M25.4685 5.56664H25.4704L25.4685 5.56237L25.4648 5.55811H25.4629V5.56237L25.4648 5.56451L25.4685 5.56877V5.56664Z" fill="#04733B"/>
<path d="M25.4835 5.56877V5.56451L25.4817 5.55811H25.4779L25.4761 5.56024L25.4779 5.56664L25.4817 5.56877H25.4835Z" fill="#04733B"/>
<path d="M25.4743 5.6104L25.4762 5.60614L25.4743 5.604H25.4688V5.60827L25.4706 5.6104L25.4725 5.61254L25.4743 5.6104Z" fill="#04733B"/>
<path d="M25.461 5.60418L25.4573 5.60632V5.60418L25.4554 5.60205H25.4517V5.60418L25.4554 5.60845L25.4573 5.61058H25.461L25.4629 5.60632L25.461 5.60418Z" fill="#04733B"/>
<path d="M25.4704 5.63848L25.4722 5.63635V5.63421L25.4704 5.63208H25.4685H25.4648L25.4629 5.63421L25.4648 5.63848H25.4704Z" fill="#04733B"/>
<path d="M25.4629 5.59045V5.59258H25.4648L25.4666 5.59045L25.4685 5.58832H25.4666L25.4648 5.58618L25.4629 5.59045Z" fill="#04733B"/>
<path d="M25.4609 5.56396V5.56823L25.4628 5.5725L25.4647 5.57036V5.5661L25.4628 5.56396H25.4609Z" fill="#04733B"/>
<path d="M25.4705 5.62225L25.4687 5.62012L25.4668 5.62225V5.62438L25.4687 5.62652H25.4705L25.4724 5.62225H25.4705Z" fill="#04733B"/>
<path d="M25.6291 5.61815L25.6329 5.60815V5.60215L25.6347 5.59815L25.6459 5.59015L25.6497 5.58215L25.6515 5.57415L25.6553 5.56815L25.6571 5.56615H25.6609L25.6627 5.56415L25.6609 5.56215L25.6571 5.56015H25.6515L25.6497 5.55615H25.6459L25.6441 5.56215V5.56615H25.6459L25.6497 5.56215V5.56415L25.6459 5.57415V5.58015L25.6441 5.58415L25.6291 5.59815L25.6273 5.60415V5.61215L25.6254 5.61815L25.6235 5.62215V5.63015V5.63615L25.6273 5.64015L25.6291 5.64215L25.631 5.64015L25.6329 5.63815L25.6291 5.63415V5.62615V5.61815Z" fill="#04733B"/>
<path d="M25.6032 5.70018L25.6088 5.69618L25.6163 5.69018L25.62 5.68818L25.6238 5.68618L25.6256 5.68418L25.6238 5.68018H25.6219L25.6182 5.68218L25.6163 5.68618L25.6144 5.69018L25.607 5.69418L25.6051 5.69618H25.5995L25.5939 5.70018L25.5827 5.70818L25.5734 5.71418H25.5678H25.564L25.5547 5.72018V5.72218H25.5584H25.5603L25.5659 5.72018L25.5752 5.71618L25.5958 5.70218L25.6032 5.70018Z" fill="#04733B"/>
<path d="M25.4928 6.03805L25.4909 6.03605L25.4891 6.03805L25.4909 6.04005H25.4947L25.4965 6.03805L25.4984 6.03605L25.5003 6.02206V6.00805L25.4984 5.99005L25.4909 5.97406L25.4816 5.95805L25.4797 5.95605L25.4741 5.96206V5.96406L25.4779 5.96805L25.4853 5.98005L25.4891 5.99005L25.4909 6.00005V6.01206V6.03005V6.03206L25.4965 6.03406V6.03605L25.4928 6.03805Z" fill="#7C7C7C"/>
<path d="M25.4949 6.07019V6.06819L25.4967 6.06619H25.4986L25.5005 6.06819L25.5023 6.06019V6.05819L25.5061 6.06019V6.05819L25.5079 6.05419H25.5117L25.5154 6.05019H25.5191V6.04819H25.5154L25.5117 6.04419L25.5042 6.04619L25.5023 6.05219L25.4986 6.05819L25.4893 6.07019L25.4911 6.07219L25.4949 6.07019Z" fill="#7C7C7C"/>
<path d="M25.5752 5.5V5.50213L25.5771 5.5064H25.5808V5.50427V5.50213L25.5789 5.5H25.5752Z" fill="#04733B"/>
<path d="M25.6628 5.62609L25.6721 5.61209L25.674 5.60209V5.59409L25.6758 5.58609L25.6852 5.56609L25.6889 5.55809L25.6908 5.54409V5.53809H25.6889V5.54409L25.687 5.55809L25.6833 5.56609L25.6758 5.58409L25.674 5.58809L25.6721 5.59409V5.60209L25.6702 5.61009L25.6609 5.62409L25.6534 5.63809L25.6497 5.64209L25.646 5.65009L25.6348 5.66209L25.6478 5.65209L25.6553 5.64009L25.6628 5.62609Z" fill="#04733B"/>
<path d="M25.4873 5.60046L25.4854 5.59832L25.4835 5.59619H25.4779L25.4761 5.59832L25.4817 5.60046V5.60259L25.4854 5.60473L25.4873 5.60046Z" fill="#04733B"/>
<path d="M25.4927 5.65619V5.65832H25.5001V5.65619L25.4983 5.65405L25.4927 5.65619Z" fill="#04733B"/>
<path d="M25.4949 5.6267L25.493 5.62456L25.4949 5.62243L25.493 5.6203L25.4911 5.61816H25.4893V5.62243L25.4911 5.62456L25.4893 5.6267V5.63096V5.6331H25.4911L25.4949 5.63096V5.6267Z" fill="#04733B"/>
<path d="M25.478 5.61011V5.61651L25.4799 5.61864H25.4818V5.61011H25.4799H25.478Z" fill="#04733B"/>
<path d="M25.5338 5.73414L25.5413 5.73014L25.5431 5.72814L25.5469 5.72014L25.5487 5.71014V5.70414H25.545V5.70814V5.71214V5.71814L25.5431 5.72414L25.5394 5.72814L25.5319 5.73214L25.5226 5.73414L25.5114 5.73214L25.4871 5.73414H25.4797H25.4741L25.4647 5.73214L25.4591 5.72814L25.4405 5.72014H25.4367L25.433 5.71614L25.4255 5.70214L25.4218 5.69214L25.4199 5.69414L25.4255 5.70414L25.4311 5.71614L25.4367 5.72214L25.4405 5.72414L25.4573 5.73014L25.4647 5.73414L25.4741 5.73614H25.4815H25.489H25.5114H25.5226L25.5338 5.73414Z" fill="#04733B"/>
<path d="M25.4106 5.6601V5.6621V5.6641H25.4162L25.42 5.6661V5.6701L25.4218 5.6761H25.4237L25.4256 5.6741H25.4293H25.433H25.4368L25.4405 5.6721L25.4424 5.6661L25.4405 5.6621L25.4368 5.6641L25.433 5.6661L25.4293 5.6681L25.4256 5.6661V5.6641L25.4237 5.6621L25.4256 5.6561H25.4293H25.4312L25.433 5.6541L25.4312 5.6521L25.4293 5.6481L25.4312 5.6441L25.4368 5.6381V5.6341L25.4405 5.6321V5.6301H25.4368V5.6261L25.4349 5.6241H25.4312L25.4256 5.6181L25.4237 5.6121V5.6081L25.4274 5.6041L25.4293 5.5981L25.4256 5.5941L25.4237 5.5881L25.4256 5.5861H25.4312L25.433 5.5821L25.4293 5.5801L25.4218 5.5761L25.4181 5.5721L25.42 5.5661L25.4237 5.5641L25.4218 5.5581L25.4256 5.5561L25.4274 5.5521L25.4256 5.5501L25.42 5.5481H25.4162V5.5561L25.4144 5.5601L25.4125 5.5641L25.4106 5.5701L25.4125 5.5741L25.4144 5.5801L25.4125 5.5861L25.4106 5.5901V5.5941L25.4162 5.6041L25.4144 5.6081L25.4125 5.6181V5.6261L25.4106 5.6341H25.4144L25.4162 5.6321L25.4181 5.6301L25.4218 5.6341L25.4237 5.6321L25.42 5.6261H25.4218H25.4256L25.4274 5.6301V5.6341V5.6361L25.4218 5.6421L25.4181 5.6381H25.4162V5.6421L25.4181 5.6441L25.42 5.6461V5.6521L25.4181 5.6561H25.4162L25.4125 5.6541L25.4106 5.6561L25.4162 5.6581V5.6601H25.4106Z" fill="#04733B"/>
<path d="M25.4554 5.61615L25.4517 5.62041L25.4535 5.62468L25.4554 5.62255L25.4591 5.62041L25.461 5.61615L25.4573 5.61401L25.4554 5.61615Z" fill="#04733B"/>
<path d="M25.4761 5.65044L25.4743 5.64831L25.4724 5.64618L25.4705 5.64404H25.4687L25.4668 5.64618V5.64831H25.4705L25.4724 5.65044V5.65258L25.4761 5.65471V5.65044Z" fill="#04733B"/>
<path d="M25.646 5.41411L25.6572 5.42211L25.6647 5.43011L25.674 5.44011L25.6777 5.44811L25.6815 5.46211L25.6852 5.47611L25.6889 5.48811L25.6908 5.50411V5.51211L25.6871 5.52811L25.6889 5.53011L25.6908 5.51811L25.6927 5.50611L25.6908 5.48811L25.6871 5.47411L25.6833 5.46211L25.6796 5.44811L25.6759 5.44011L25.6665 5.42811L25.6479 5.41211L25.646 5.41411Z" fill="#04733B"/>
<path d="M25.4779 5.62243H25.4797V5.6203L25.476 5.61816H25.4741V5.62243H25.476H25.4779Z" fill="#04733B"/>
<path d="M25.448 5.64239L25.4498 5.64025L25.448 5.63599H25.4461L25.4424 5.63812V5.64025L25.4442 5.64239H25.448Z" fill="#04733B"/>
<path d="M25.4798 5.63457L25.4835 5.63671L25.4854 5.63884L25.4873 5.63671V5.63457L25.4854 5.63244L25.4817 5.62817H25.4761V5.63031V5.63244L25.4779 5.63457H25.4798Z" fill="#04733B"/>
<path d="M25.4595 5.65673L25.4614 5.65459L25.4595 5.65033H25.4558L25.4521 5.64819H25.4502V5.65246L25.4521 5.65459L25.4595 5.65673Z" fill="#04733B"/>
<path d="M25.448 5.6245L25.4498 5.62023L25.448 5.61597H25.4442L25.4424 5.6181V5.62237V5.62663H25.4442L25.448 5.6245Z" fill="#04733B"/>
<path d="M25.474 5.66277V5.6585V5.65637H25.4703L25.4647 5.6521H25.4628L25.4609 5.65637L25.4703 5.66277H25.474Z" fill="#04733B"/>
<path d="M25.4833 5.57007L25.4814 5.5722V5.5786V5.58074H25.4852H25.4889L25.487 5.5722L25.4833 5.57007Z" fill="#04733B"/>
<path d="M25.4893 5.6001L25.4911 5.60223L25.4949 5.6065L25.4967 5.60436L25.4986 5.60223L25.4967 5.6001H25.4893Z" fill="#04733B"/>
<path d="M25.4817 5.54614L25.4761 5.54828V5.55254L25.4817 5.55681H25.4835L25.4873 5.55254L25.4835 5.54828L25.4817 5.54614Z" fill="#04733B"/>
<path d="M25.4948 5.61437V5.61224L25.4929 5.61011H25.4892V5.61224H25.4873V5.61437L25.4929 5.61651L25.4948 5.61437Z" fill="#04733B"/>
<path d="M25.487 5.66241L25.4889 5.65814V5.65601H25.487L25.4833 5.65814H25.4814V5.66241H25.4852H25.487Z" fill="#04733B"/>
<path d="M25.4836 5.6508L25.4874 5.64654L25.4855 5.64227L25.4818 5.64014L25.478 5.64227V5.6444L25.4799 5.64654L25.4836 5.6508Z" fill="#04733B"/>
<path d="M25.4404 5.58825V5.59038H25.4442L25.446 5.58825V5.58612L25.4442 5.58398L25.4404 5.58612V5.58825Z" fill="#04733B"/>
<path d="M25.4648 5.55023V5.5545H25.4667L25.4704 5.55236V5.55023V5.5481H25.4667L25.4648 5.55023Z" fill="#04733B"/>
<path d="M25.4595 5.54199L25.4613 5.54626L25.4651 5.54839V5.54626V5.54413L25.4632 5.54199H25.4595Z" fill="#04733B"/>
<path d="M25.4536 5.55023V5.55236L25.4555 5.5545H25.4573H25.4611V5.55236V5.5481H25.4573L25.4536 5.55023Z" fill="#04733B"/>
<path d="M25.4706 5.55615L25.4688 5.55829L25.4725 5.56042L25.4743 5.55829L25.4725 5.55615H25.4706Z" fill="#04733B"/>
<path d="M25.4502 5.53613V5.54467H25.4539L25.4558 5.54253V5.53827L25.4539 5.53613H25.4502Z" fill="#04733B"/>
<path d="M25.4744 5.57007H25.4726L25.4707 5.5722V5.57434L25.4744 5.5786H25.4782V5.57647L25.4763 5.5722L25.4744 5.57007Z" fill="#04733B"/>
<path d="M25.446 5.61254H25.4498V5.60827L25.446 5.604H25.4404V5.60614L25.4423 5.6104L25.446 5.61254Z" fill="#04733B"/>
<path d="M25.4502 5.56664H25.4521H25.4558L25.4577 5.56237V5.55811H25.4539L25.4502 5.56237V5.56664Z" fill="#04733B"/>
<path d="M25.4389 5.59417L25.437 5.59631L25.4407 5.60057L25.4426 5.60271L25.4445 5.60057V5.59631L25.4407 5.59204L25.4389 5.59417Z" fill="#04733B"/>
<path d="M25.4424 5.5747L25.4442 5.57256L25.4461 5.5683V5.56616H25.4424V5.5747Z" fill="#04733B"/>
<path d="M25.4404 5.55414V5.5584L25.4423 5.56054L25.4442 5.5584L25.4479 5.55627V5.552H25.4423L25.4404 5.55414Z" fill="#04733B"/>
<path d="M25.4462 5.54199H25.4443V5.54626H25.4462H25.4481H25.4499L25.4481 5.54199H25.4462Z" fill="#04733B"/>
<path d="M25.5433 5.64025L25.547 5.63812L25.5452 5.63599H25.5433H25.5414L25.5396 5.64025L25.5414 5.64239L25.5433 5.64025Z" fill="#04733B"/>
<path d="M25.5562 5.67816L25.558 5.68029L25.5618 5.68243V5.68029V5.67603H25.558L25.5562 5.67816Z" fill="#04733B"/>
<path d="M25.5807 5.57831L25.577 5.57617L25.5751 5.57831L25.5732 5.58471L25.5751 5.58684L25.577 5.58471L25.5807 5.58257V5.57831Z" fill="#04733B"/>
<path d="M25.5769 5.67028L25.5788 5.66602H25.5769H25.5732L25.5713 5.67028V5.67242H25.575L25.5769 5.67028Z" fill="#04733B"/>
<path d="M25.5843 5.58843H25.588L25.5899 5.58416L25.5862 5.58203H25.5843H25.5824L25.5806 5.58416L25.5824 5.58843H25.5843Z" fill="#04733B"/>
<path d="M25.5748 5.67816L25.5711 5.67603H25.5693L25.5674 5.67816H25.5693L25.573 5.68029L25.5748 5.67816Z" fill="#04733B"/>
<path d="M25.5638 5.67455L25.5657 5.67242V5.66815L25.5638 5.66602L25.5601 5.66815V5.67028L25.5619 5.67455H25.5638Z" fill="#04733B"/>
<path d="M25.5734 5.68444L25.5715 5.68231L25.5697 5.68018H25.5659V5.68444L25.5715 5.68658L25.5734 5.68444Z" fill="#04733B"/>
<path d="M25.5806 5.59613L25.5713 5.59399V5.59826H25.5732H25.5769H25.5806V5.59613Z" fill="#04733B"/>
<path d="M25.5862 5.69602V5.68802L25.588 5.68002L25.5936 5.67802L25.6011 5.67602V5.67402L25.5974 5.67002L25.5899 5.66602L25.5862 5.66802L25.5843 5.67202L25.5862 5.67602L25.5824 5.68202L25.5806 5.68602V5.69202V5.69602H25.5824H25.5862Z" fill="#04733B"/>
<path d="M25.6179 5.54614H25.6123V5.54828V5.55254L25.6142 5.55468L25.616 5.55254L25.6179 5.54828V5.54614Z" fill="#04733B"/>
<path d="M25.6104 5.48822V5.49035H25.616H25.6178L25.616 5.48822L25.6104 5.48608V5.48822Z" fill="#04733B"/>
<path d="M25.6143 5.48211L25.618 5.48425H25.6199V5.48211V5.47998H25.6143V5.48211Z" fill="#04733B"/>
<path d="M25.614 5.58092H25.6159L25.6177 5.57878L25.6121 5.56812H25.6084V5.57025V5.57452L25.6121 5.58092H25.614Z" fill="#04733B"/>
<path d="M25.5974 5.68871H25.6011L25.603 5.68444L25.6011 5.68231L25.5993 5.68018L25.5937 5.68231L25.5918 5.68871L25.5955 5.69084L25.5974 5.68871Z" fill="#04733B"/>
<path d="M25.5583 5.6065V5.60436V5.6001H25.5565L25.5527 5.60223V5.60863H25.5546L25.5583 5.6065Z" fill="#04733B"/>
<path d="M25.5207 5.51796V5.51996L25.517 5.52396L25.5151 5.52796L25.517 5.53196L25.5189 5.53596H25.5226L25.5245 5.53396V5.52796V5.52396L25.5263 5.52196L25.5282 5.51996L25.5301 5.51796V5.51596L25.5282 5.51396L25.5245 5.51196L25.5207 5.51396V5.51796Z" fill="#04733B"/>
<path d="M25.5098 5.55396V5.55609L25.5116 5.56035L25.5172 5.56249H25.5191V5.55609V5.55396H25.5116H25.5098Z" fill="#04733B"/>
<path d="M25.5169 5.64683L25.5188 5.6447L25.5225 5.64043V5.6383L25.5206 5.63403L25.5188 5.63617L25.5132 5.64043L25.515 5.6447L25.5169 5.64683Z" fill="#04733B"/>
<path d="M25.5584 5.65655H25.5603V5.65228L25.5566 5.65015L25.5547 5.65228L25.5566 5.65655H25.5584Z" fill="#04733B"/>
<path d="M25.5247 5.49419L25.5229 5.50019L25.521 5.50619V5.50819H25.5266H25.5285V5.50219L25.5303 5.50019L25.5341 5.49819V5.49419L25.5322 5.49219H25.5266L25.5247 5.49419Z" fill="#04733B"/>
<path d="M25.5283 5.48017V5.48617V5.48817H25.5302H25.5339V5.48617L25.5358 5.47617L25.5339 5.47217H25.5321L25.5283 5.47417V5.48017Z" fill="#04733B"/>
<path d="M25.5171 5.62811V5.63024H25.519L25.5208 5.62811V5.62598H25.519L25.5171 5.62811Z" fill="#04733B"/>
<path d="M25.5509 5.62438L25.5472 5.62012L25.5453 5.62225H25.5435L25.5453 5.62652L25.5491 5.63078H25.5509L25.5528 5.62865L25.5509 5.62438Z" fill="#04733B"/>
<path d="M25.5266 5.65459L25.5285 5.65246V5.64819H25.5266H25.5229L25.521 5.65246V5.65459V5.65673H25.5247L25.5266 5.65459Z" fill="#04733B"/>
<path d="M25.5546 5.64452V5.64665H25.5565L25.5583 5.64452L25.5565 5.63812L25.5546 5.63599L25.5527 5.63812L25.5546 5.64025V5.64452Z" fill="#04733B"/>
<path d="M25.6107 5.45215H25.6088H25.6069V5.45641L25.6088 5.45855V5.46708H25.6107H25.6125L25.6144 5.46282V5.45855L25.6125 5.45641L25.6107 5.45215Z" fill="#04733B"/>
<path d="M25.5303 5.46216V5.46429V5.46642H25.534H25.5359V5.46429L25.534 5.46216H25.5303Z" fill="#04733B"/>
<path d="M25.5281 5.63866L25.53 5.63653L25.5319 5.63439V5.63226L25.5281 5.63013H25.5244V5.63226V5.63653L25.5263 5.63866H25.5281Z" fill="#04733B"/>
<path d="M25.5431 5.63024V5.62811V5.62598H25.5394L25.5356 5.62811V5.63238H25.5375H25.5412L25.5431 5.63024Z" fill="#04733B"/>
<path d="M25.5582 5.66667H25.56V5.66454L25.5582 5.66027L25.5526 5.65601H25.5507L25.5488 5.65814L25.5544 5.66241L25.5582 5.66667Z" fill="#04733B"/>
<path d="M25.4614 5.43407L25.4707 5.42607L25.4819 5.41407L25.4913 5.40607L25.4987 5.39807L25.5081 5.39407L25.523 5.38807L25.5342 5.38207L25.5473 5.37807L25.5547 5.37607L25.5622 5.37407H25.5697L25.5771 5.37607L25.6089 5.38407L25.6201 5.38607L25.6369 5.39407L25.6555 5.40207H25.6574V5.40007L25.6499 5.39607L25.6406 5.39207L25.6313 5.38807L25.6201 5.38407L25.6089 5.38007L25.5939 5.37807L25.579 5.37407L25.5622 5.37207H25.5547L25.5454 5.37407L25.5342 5.38007L25.5211 5.38607L25.5062 5.39207L25.4987 5.39607L25.4894 5.40407L25.4819 5.41207L25.4707 5.42407L25.4595 5.43407L25.4502 5.43807V5.44007H25.4521L25.4614 5.43407Z" fill="#04733B"/>
<path d="M25.3863 5.66617L25.3994 5.69417L25.4031 5.70217L25.4087 5.70617H25.4106V5.70417L25.405 5.69617L25.3956 5.68017L25.39 5.66617L25.3826 5.64217L25.3788 5.62817L25.3807 5.61217L25.3863 5.57817L25.3882 5.56617L25.39 5.54817L25.3956 5.53417L25.4012 5.52017L25.405 5.50817L25.4068 5.50017L25.4106 5.49217L25.4162 5.48217L25.4236 5.47217L25.4255 5.46217L25.4274 5.45417L25.4348 5.43217L25.4367 5.42817L25.4423 5.42417L25.446 5.42217V5.42017H25.4442L25.4367 5.42417L25.4348 5.42817L25.4292 5.43417L25.4255 5.44817L25.4218 5.47017L25.4087 5.49017L25.4031 5.49817L25.4012 5.50817L25.3994 5.52017L25.3956 5.53217L25.39 5.54617L25.3863 5.56617L25.3844 5.57817L25.3807 5.59217L25.377 5.61017V5.62617L25.3788 5.64217L25.3863 5.66617Z" fill="#04733B"/>
<path d="M25.4538 5.52056L25.4576 5.51629L25.4557 5.51416H25.4538H25.4501L25.4482 5.51629L25.4501 5.51843L25.4538 5.52056Z" fill="#04733B"/>
<path d="M25.5545 5.67437H25.5564V5.67224L25.5545 5.6701L25.5526 5.66797L25.5508 5.6701L25.5526 5.67224L25.5545 5.67437Z" fill="#04733B"/>
<path d="M25.6573 5.57597L25.6536 5.58197L25.6479 5.59197V5.59397H25.6498L25.6536 5.58997L25.6573 5.58397L25.6629 5.57997V5.57597L25.661 5.57397L25.6573 5.57597Z" fill="#04733B"/>
<path d="M25.0093 6.49603L25.0168 6.50203H25.0186L25.0112 6.49403L25.0037 6.48803L24.9888 6.47803L25.0018 6.49003L25.0093 6.49603Z" fill="#7C7C7C"/>
<path d="M24.8192 6.69818V6.69604L24.8174 6.69818V6.70031L24.8192 6.69818Z" fill="#7C7C7C"/>
<path d="M25.3249 6.09804L25.3305 6.10604L25.3361 6.11204L25.338 6.10804L25.3399 6.10204L25.338 6.10004L25.3361 6.09604V6.09404L25.3324 6.08404L25.3305 6.07004L25.3287 6.05604V6.04204L25.3343 6.03004L25.338 6.01604L25.3436 6.00604L25.3548 5.99204L25.3641 5.97804L25.3772 5.96804L25.3828 5.96204L25.3865 5.96004H25.3903H25.394L25.3977 5.95804L25.4033 5.95204L25.4089 5.94804L25.4145 5.94604H25.4257H25.4407L25.4519 5.95004L25.4612 5.95404L25.4687 5.95804L25.4743 5.95204V5.95004L25.4705 5.94804L25.4575 5.94204L25.45 5.93804L25.4425 5.93604H25.4313H25.4164H25.4052L25.3977 5.94004L25.3828 5.94804L25.3735 5.95404L25.3623 5.96404L25.3548 5.97004L25.3473 5.98004L25.3305 6.00804L25.3231 6.02204L25.3193 6.03604V6.05204V6.07404L25.3231 6.08804L25.3249 6.09804Z" fill="#7C7C7C"/>
<path d="M25.4426 6.14997V6.14197L25.4445 6.13797L25.4501 6.12997L25.4557 6.12397L25.4575 6.11797L25.4557 6.11597L25.4538 6.11997L25.4501 6.12397L25.4426 6.13197L25.437 6.13597V6.13797V6.14197L25.4389 6.14397L25.4407 6.14597L25.4426 6.14997Z" fill="#7C7C7C"/>
<path d="M25.1325 6.39611L25.1213 6.36011L25.0821 6.38811L25.1194 6.36211L25.125 6.37411L25.0578 6.43211L25.0447 6.41811L25.0765 6.39211L25.041 6.42011L25.0578 6.44811L25.1325 6.39611Z" fill="#7C7C7C"/>
<path d="M25.3438 6.12011L25.3494 6.12611L25.3568 6.13011L25.3624 6.13411L25.3718 6.13611L25.3848 6.13811L25.3979 6.13611H25.4128L25.4259 6.13211L25.4278 6.13011L25.4296 6.12811V6.12211L25.4278 6.12811L25.424 6.13011L25.4203 6.12411L25.4166 6.12211L25.4016 6.12611H25.3904H25.3811L25.3699 6.12411L25.3643 6.12211L25.3531 6.11411H25.3475L25.3438 6.11011V6.11811V6.12011Z" fill="#7C7C7C"/>
<path d="M25.5956 5.41016H25.5919L25.5825 5.41816L25.5732 5.42016L25.5676 5.42416L25.5639 5.42616L25.562 5.43016L25.5657 5.43216H25.5695L25.5676 5.43416V5.43616L25.5695 5.43816L25.5732 5.44016L25.5751 5.43816V5.43216H25.5695L25.5713 5.43016L25.5751 5.42816L25.5788 5.43216H25.5825L25.5788 5.42616V5.42416H25.5807L25.5844 5.42816L25.5881 5.43016L25.6012 5.42016L25.6031 5.41816L25.5993 5.41216L25.5956 5.41016Z" fill="#04733B"/>
<path d="M25.5561 5.40805H25.5524L25.5468 5.41805L25.5449 5.42405L25.5468 5.42605L25.5487 5.42805L25.5561 5.42605L25.558 5.41805L25.5599 5.41205L25.5636 5.41005L25.5673 5.40805V5.40405H25.558L25.5561 5.40805Z" fill="#04733B"/>
<path d="M25.5379 5.45014L25.5342 5.45614V5.45814V5.46014L25.5379 5.45814L25.5416 5.45414L25.5454 5.45214H25.5491L25.551 5.45414L25.5528 5.45214L25.5472 5.44214H25.5454H25.5416L25.5379 5.45014Z" fill="#04733B"/>
<path d="M25.5169 5.45215H25.515L25.5132 5.46068L25.515 5.46708H25.5206L25.5244 5.46495L25.5262 5.46068V5.45641L25.5244 5.45428L25.5169 5.45215Z" fill="#04733B"/>
<path d="M25.5263 5.44214L25.5244 5.44427V5.44854L25.5263 5.45067L25.53 5.45281H25.5337V5.45067L25.53 5.44427L25.5263 5.44214Z" fill="#04733B"/>
<path d="M25.601 5.44019H25.5991V5.44232L25.601 5.44445H25.6047L25.6029 5.44019H25.601Z" fill="#04733B"/>
<path d="M25.5991 5.48413L25.6029 5.48626H25.6085L25.6066 5.48413H25.5991Z" fill="#04733B"/>
<path d="M25.5132 5.49212L25.515 5.49639H25.5188V5.49212L25.515 5.48999H25.5132V5.49212Z" fill="#04733B"/>
<path d="M25.5115 5.47797L25.5133 5.47597L25.5115 5.47197L25.5096 5.46997L25.5077 5.47397L25.5059 5.48197L25.5077 5.48797H25.5115V5.48597V5.47797Z" fill="#04733B"/>
<path d="M25.5039 5.51214V5.51854H25.5058L25.5076 5.51641L25.5095 5.51001H25.5058L25.5039 5.51214Z" fill="#04733B"/>
<path d="M25.515 5.51843H25.5188V5.51416H25.515L25.5132 5.51629L25.515 5.51843Z" fill="#04733B"/>
<path d="M25.5491 5.66229L25.5435 5.66016V5.66229V5.66442L25.5453 5.66656L25.5491 5.66869L25.5509 5.66442L25.5491 5.66229Z" fill="#04733B"/>
<path d="M25.5096 5.52826L25.5077 5.52612H25.5059V5.53252L25.5077 5.54106H25.5115L25.5133 5.53892V5.53466L25.5096 5.53252V5.52826Z" fill="#04733B"/>
<path d="M25.5805 5.44427L25.5786 5.44214V5.4464L25.5823 5.44854H25.5842L25.5823 5.4464L25.5805 5.44427Z" fill="#04733B"/>
<path d="M25.536 5.55041L25.5378 5.54828L25.536 5.54614H25.5341L25.5322 5.55041L25.5341 5.55254L25.536 5.55041Z" fill="#04733B"/>
<path d="M25.5453 5.51001H25.5435V5.51214L25.5453 5.51428L25.5491 5.52068H25.5509V5.51641L25.5472 5.51214L25.5453 5.51001Z" fill="#04733B"/>
<path d="M25.5244 5.55663H25.5263H25.5281V5.55236V5.55023L25.5263 5.5481L25.5244 5.55023V5.55663Z" fill="#04733B"/>
<path d="M25.5697 5.57036V5.5661L25.5659 5.56396V5.57036L25.5678 5.5725H25.5697V5.57036Z" fill="#04733B"/>
<path d="M25.5468 5.52612L25.5449 5.53252L25.5468 5.53466H25.5487L25.5505 5.53039V5.52826L25.5487 5.52612H25.5468Z" fill="#04733B"/>
<path d="M25.5342 5.51611V5.52038L25.5379 5.52465L25.5416 5.52678L25.5435 5.52465V5.52251V5.52038L25.5379 5.51611H25.5342Z" fill="#04733B"/>
<path d="M25.5264 5.52826L25.5282 5.53039H25.532L25.5376 5.53252H25.5413V5.53039L25.5394 5.52826L25.5357 5.52612H25.5282L25.5264 5.52826Z" fill="#04733B"/>
<path d="M25.5341 5.5022H25.5322V5.50646L25.5341 5.5086L25.536 5.51073L25.5397 5.5086L25.5416 5.50646L25.5378 5.5022H25.5341Z" fill="#04733B"/>
<path d="M25.5657 5.56451L25.5675 5.56024L25.5657 5.55811H25.5638L25.5601 5.56451L25.5619 5.56664H25.5638L25.5657 5.56451Z" fill="#04733B"/>
<path d="M25.5412 5.59678V5.59252L25.5394 5.58825V5.58398H25.5375L25.5356 5.58825V5.59252L25.5375 5.59678H25.5412Z" fill="#04733B"/>
<path d="M25.5433 5.58251L25.5489 5.58037L25.547 5.57397H25.5433L25.5396 5.57611V5.57824L25.5414 5.58251H25.5433Z" fill="#04733B"/>
<path d="M25.5491 5.59844H25.5509L25.5547 5.59631L25.5528 5.59204H25.5453L25.5435 5.59417L25.5472 5.59844H25.5491Z" fill="#04733B"/>
<path d="M25.5264 5.53613V5.53827L25.532 5.54467H25.5338V5.5404L25.5301 5.53613H25.5264Z" fill="#04733B"/>
<path d="M25.5843 5.46802L25.5806 5.47015V5.47442H25.5843L25.5899 5.47015L25.588 5.46802H25.5843Z" fill="#04733B"/>
<path d="M25.5356 5.56024V5.56451L25.5375 5.56877L25.5394 5.56664V5.56237V5.55811H25.5356V5.56024Z" fill="#04733B"/>
<path d="M25.5732 5.51446L25.5751 5.51659L25.577 5.51446V5.51019V5.50806H25.5732V5.51446Z" fill="#04733B"/>
<path d="M25.5806 5.48858L25.5843 5.49071V5.48858V5.48431L25.5824 5.48218L25.5806 5.48644V5.48858Z" fill="#04733B"/>
<path d="M25.5863 5.51464H25.59L25.5919 5.51037L25.59 5.5061H25.5881L25.5825 5.50824V5.5125V5.51464H25.5844H25.5863Z" fill="#04733B"/>
<path d="M25.5898 5.47607H25.5879V5.48247L25.5898 5.48887H25.5935L25.5954 5.48674V5.48034L25.5935 5.47607H25.5898Z" fill="#04733B"/>
<path d="M25.5453 5.55822V5.55609V5.55396H25.5435V5.55822H25.5453Z" fill="#04733B"/>
<path d="M25.5732 5.49627V5.49841H25.577L25.5826 5.49627V5.49414H25.5732V5.49627Z" fill="#04733B"/>
<path d="M25.549 5.54911H25.5508V5.54485L25.5452 5.54058V5.53631V5.53418L25.5415 5.53631V5.54058V5.54271L25.5452 5.54485L25.549 5.54911Z" fill="#04733B"/>
<path d="M25.5412 5.55005H25.5394L25.5375 5.55218L25.5356 5.55432L25.5412 5.55645L25.5431 5.55218L25.5412 5.55005Z" fill="#04733B"/>
<path d="M25.5435 5.50658H25.5472L25.5509 5.50445L25.5528 5.50231V5.49805H25.5491L25.5472 5.50018L25.5435 5.50231V5.50658Z" fill="#04733B"/>
<path d="M25.5449 5.48804V5.49017L25.5487 5.4923H25.5524L25.5543 5.49657L25.5561 5.49444L25.558 5.49017H25.5561H25.5505L25.5468 5.48804H25.5449Z" fill="#04733B"/>
<path d="M25.5695 5.58055V5.57629L25.5657 5.57202H25.5639L25.562 5.57415L25.5639 5.57842L25.5657 5.58269H25.5676L25.5695 5.58055Z" fill="#04733B"/>
<path d="M25.5713 5.45605V5.45819L25.5732 5.46032H25.575H25.5769V5.45605H25.5732H25.5713Z" fill="#04733B"/>
<path d="M25.5767 5.52233V5.5266L25.5785 5.52873H25.5823L25.5841 5.52447L25.5823 5.5202L25.5804 5.51807H25.5767V5.52233Z" fill="#04733B"/>
<path d="M25.5991 5.49017V5.4923H25.6066V5.49017L25.6029 5.48804L25.5991 5.49017Z" fill="#04733B"/>
<path d="M25.5845 5.4403V5.44244L25.5882 5.44457H25.5919L25.5938 5.4403V5.43604H25.5863L25.5845 5.4403Z" fill="#04733B"/>
<path d="M25.6013 5.47637V5.4721L25.5976 5.46997H25.5957V5.47424L25.5994 5.47637H25.6013Z" fill="#04733B"/>
<path d="M25.5898 5.4541L25.5879 5.45837L25.5823 5.4605H25.5786V5.46477H25.5823H25.5879L25.5898 5.4605H25.5917L25.5935 5.46263L25.5954 5.46477H25.5973L25.5991 5.46263L25.5954 5.45837L25.5935 5.4541H25.5917H25.5898Z" fill="#04733B"/>
<path d="M25.5752 5.448V5.45013V5.45226L25.5789 5.4544L25.5808 5.45226L25.5789 5.45013L25.5752 5.448Z" fill="#04733B"/>
<path d="M25.5674 5.46411V5.46838H25.5693L25.573 5.47051V5.46838V5.46624L25.5693 5.46411H25.5674Z" fill="#04733B"/>
<path d="M25.5583 5.46246V5.46032V5.45819L25.5565 5.45605L25.5546 5.45819L25.5527 5.46032L25.5546 5.46246H25.5583Z" fill="#04733B"/>
<path d="M25.5509 5.46216L25.5453 5.46429L25.5435 5.46642V5.46856L25.5491 5.47069L25.5528 5.46856H25.5547V5.46429H25.5528L25.5509 5.46216Z" fill="#04733B"/>
<path d="M25.562 5.45428V5.45641L25.5676 5.45855H25.5695V5.45641L25.5676 5.45428L25.5639 5.45215L25.562 5.45428Z" fill="#04733B"/>
<path d="M25.564 5.44232V5.44659L25.5658 5.44872H25.5696L25.5714 5.44659V5.44232V5.44019L25.5658 5.44232H25.564Z" fill="#04733B"/>
<path d="M25.5901 5.5683L25.5882 5.56616H25.5845V5.57043H25.5882L25.5901 5.5683Z" fill="#04733B"/>
<path d="M25.605 5.51214L25.6068 5.51428H25.6106H25.6143L25.6124 5.51001H25.6068L25.605 5.51214Z" fill="#04733B"/>
<path d="M25.5864 5.55414V5.55627L25.5883 5.5584L25.592 5.56054V5.55627V5.552H25.5902L25.5864 5.55414Z" fill="#04733B"/>
<path d="M25.6013 5.53207L25.5994 5.53007L25.5919 5.52607L25.5901 5.52407L25.5882 5.51807L25.5845 5.52007L25.5863 5.52407L25.5882 5.53007H25.5901L25.5938 5.53207L25.5957 5.53407L25.6013 5.53607V5.53207Z" fill="#04733B"/>
<path d="M25.59 5.59826V5.59613L25.5863 5.59399L25.5825 5.60039V5.60253L25.5844 5.60466H25.5863L25.59 5.60679L25.5937 5.60893H25.5975L25.5993 5.60466H25.5975H25.5937L25.59 5.60253V5.59826Z" fill="#04733B"/>
<path d="M25.5936 5.57397H25.5917L25.5898 5.57611V5.57824L25.5936 5.58037V5.58251L25.5954 5.57611L25.5936 5.57397Z" fill="#04733B"/>
<path d="M25.5898 5.59038L25.5917 5.59465H25.5936L25.5954 5.59252V5.59038V5.58612L25.5936 5.58398L25.5898 5.58825V5.59038Z" fill="#04733B"/>
<path d="M25.586 5.54632L25.5841 5.54419H25.5823L25.5804 5.54846H25.5767V5.55059L25.5804 5.55272L25.5823 5.55059L25.5841 5.54846L25.586 5.54632Z" fill="#04733B"/>
<path d="M25.6163 5.5202L25.6144 5.51807H25.6088L25.6069 5.5202L25.6088 5.52233H25.6125L25.6163 5.5202Z" fill="#04733B"/>
<path d="M25.6121 5.49219H25.6084V5.49859L25.6103 5.50072L25.614 5.50285L25.6159 5.50072L25.614 5.49645L25.6121 5.49219Z" fill="#04733B"/>
<path d="M25.605 5.54419V5.54632L25.6068 5.54846H25.6087L25.6106 5.54632L25.605 5.54419Z" fill="#04733B"/>
<path d="M25.5991 5.58037L25.601 5.58251H25.6047V5.57824L25.601 5.57397H25.5991V5.57611V5.58037Z" fill="#04733B"/>
<path d="M25.6066 5.59045L25.6047 5.58618H25.601L25.5991 5.58832V5.59045L25.6029 5.59258L25.6066 5.59045Z" fill="#04733B"/>
<path d="M25.6104 5.55432V5.55218L25.6048 5.55005L25.6011 5.55218V5.55432L25.6048 5.55645H25.6085L25.6104 5.55432Z" fill="#04733B"/>
</g>
<defs>
<clipPath id="clip0_14274_21443">
<rect width="28" height="20" rx="3" fill="white"/>
</clipPath>
</defs>
</svg>
