<svg width="95" height="29" viewBox="0 0 95 29" fill="none" xmlns="http://www.w3.org/2000/svg">
<path d="M24.4538 6.15148L16.0815 7.21463C15.484 7.2905 15.0361 7.79884 15.0361 8.40114V16.9808C15.0361 17.5796 15.4789 18.0861 16.0723 18.1661L24.4446 19.2957C25.1622 19.3925 25.8005 18.8345 25.8005 18.1104V7.338C25.8005 6.61764 25.1684 6.06073 24.4538 6.15148Z" fill="white"/>
<path d="M19.1924 0.237603L0.995449 3.33335C0.420557 3.43115 0 3.9293 0 4.51245V21.4463C0 22.0349 0.428303 22.5361 1.00976 22.6277L19.2067 25.497C19.9326 25.6114 20.589 25.0504 20.589 24.3155V20.6317C20.589 20.4605 20.4624 20.3157 20.2927 20.293L14.6207 19.5321C14.0269 19.4524 13.5836 18.9458 13.5836 18.3467V12.8575V7.33109C13.5836 6.7482 14.0038 6.2502 14.5784 6.15211L20.3048 5.17442C20.469 5.1464 20.589 5.00411 20.589 4.83757V1.4167C20.589 0.675993 19.9226 0.113374 19.1924 0.237603Z" fill="#1252D3"/>
<path d="M5.26315 14.483C5.31783 14.9341 5.45452 15.2622 5.63222 15.4946C5.96027 15.891 6.53438 16.096 7.34085 16.096C7.83294 16.096 8.22934 16.0413 8.53006 15.932C9.10416 15.7269 9.39121 15.3442 9.39121 14.7974C9.39121 14.4694 9.25452 14.2233 8.96747 14.0456C8.68042 13.8679 8.22934 13.7176 7.61423 13.5809L6.57538 13.3485C5.56387 13.1161 4.85308 12.8701 4.45668 12.5967C3.80056 12.132 3.45884 11.4348 3.45884 10.4643C3.45884 9.57585 3.78689 8.85139 4.42934 8.26362C5.05812 7.68952 6.00128 7.3888 7.24517 7.3888C8.28402 7.3888 9.17251 7.66218 9.89697 8.20894C10.6351 8.76937 11.0178 9.56218 11.0452 10.6147H9.07682C9.03581 10.0133 8.7761 9.58952 8.29769 9.34348C7.9833 9.17945 7.57322 9.09743 7.10848 9.09743C6.57538 9.09743 6.15164 9.20679 5.83725 9.42549C5.52286 9.63053 5.35884 9.93125 5.35884 10.314C5.35884 10.6694 5.52286 10.9291 5.83725 11.1068C6.02862 11.2161 6.45236 11.3528 7.10848 11.5169L8.80344 11.9133C9.55524 12.1046 10.1157 12.337 10.4847 12.6377C11.0725 13.0888 11.3732 13.7723 11.3732 14.6471C11.3732 15.5356 11.0315 16.2874 10.348 16.8751C9.65092 17.4766 8.68042 17.7773 7.42287 17.7773C6.15164 17.7773 5.14013 17.4766 4.402 16.8888C3.66387 16.3147 3.30848 15.5082 3.30848 14.483H5.26315Z" fill="#F8F9FB"/>
<path d="M21.4546 14.7637H20.6444L20.4158 14.028H19.0936L18.85 14.7637H18.0647L19.3421 11.1849H20.1871L21.4546 14.7637ZM19.7597 12.005L19.2974 13.4117H20.207L19.7597 12.005ZM21.8457 11.1849H22.5913V14.7637H21.8457V11.1849Z" fill="#161616"/>
<path d="M36.6664 17.214C36.772 18.0854 37.0361 18.7192 37.3794 19.1681C38.0131 19.9338 39.1222 20.3299 40.6801 20.3299C41.6307 20.3299 42.3965 20.2243 42.9775 20.0131C44.0865 19.617 44.641 18.8776 44.641 17.8213C44.641 17.1876 44.377 16.7123 43.8225 16.369C43.2679 16.0257 42.3965 15.7353 41.2082 15.4712L39.2014 15.0223C37.2473 14.5734 35.8742 14.0981 35.1084 13.57C33.8409 12.6721 33.1808 11.3254 33.1808 9.4506C33.1808 7.7342 33.8145 6.33467 35.0556 5.19921C36.2703 4.09015 38.0923 3.50921 40.4953 3.50921C42.5021 3.50921 44.2185 4.03734 45.6181 5.09358C47.044 6.17624 47.7834 7.70779 47.8362 9.74107H44.0337C43.9545 8.5792 43.4528 7.7606 42.5286 7.28529C41.9212 6.96842 41.129 6.80998 40.2312 6.80998C39.2014 6.80998 38.3828 7.02123 37.7754 7.44373C37.1681 7.83982 36.8512 8.42076 36.8512 9.16013C36.8512 9.84669 37.1681 10.3484 37.7754 10.6917C38.1451 10.9029 38.9637 11.167 40.2312 11.4839L43.5056 12.2497C44.9579 12.6193 46.0406 13.0682 46.7535 13.6492C47.889 14.5206 48.4699 15.8409 48.4699 17.5309C48.4699 19.2473 47.8098 20.6996 46.4895 21.8351C45.1428 22.997 43.2679 23.5779 40.8386 23.5779C38.3828 23.5779 36.4287 22.997 35.0028 21.8615C33.5769 20.7524 32.8903 19.1945 32.8903 17.214H36.6664ZM51.1896 4.06374H54.86V23.0762H51.1896V4.06374ZM58.5125 3.95812H62.2358V7.33811H58.5125V3.95812ZM62.2358 23.0762H58.5125V9.0281H62.2358V23.0762ZM73.2556 9.23935C73.9158 9.60903 74.4703 10.1372 74.8664 10.7973V4.09015H78.5897V23.0762H75.0248V21.1221C74.4967 21.9671 73.9158 22.5745 73.2292 22.9441C72.5691 23.3138 71.7241 23.5251 70.7206 23.5251C69.0834 23.5251 67.7103 22.8385 66.6013 21.5182C65.4658 20.1979 64.9113 18.4815 64.9113 16.4218C64.9113 14.0189 65.4658 12.1176 66.5749 10.7445C67.6575 9.37138 69.1363 8.68482 70.9847 8.68482C71.8297 8.68482 72.5955 8.86966 73.2556 9.23935ZM74.1534 19.2473C74.708 18.4815 74.972 17.4781 74.972 16.2634C74.972 14.547 74.5495 13.3059 73.6781 12.5665C73.15 12.1176 72.5162 11.9064 71.8033 11.9064C70.747 11.9064 69.9548 12.3025 69.4531 13.1211C68.9514 13.9132 68.6874 14.9431 68.6874 16.1314C68.6874 17.4517 68.9514 18.4815 69.4795 19.2473C69.9813 20.0395 70.747 20.4092 71.8033 20.4092C72.8331 20.4092 73.6253 20.0395 74.1534 19.2473ZM82.9817 25.796C83.3514 25.8224 83.6947 25.796 84.0116 25.7696C84.3285 25.7168 84.6189 25.6112 84.8302 25.4527C85.0678 25.3207 85.2527 25.0038 85.4375 24.5549C85.6224 24.0796 85.7016 23.7891 85.6752 23.6835L80.4996 9.0281H84.5925L87.6556 19.3793L90.5603 9.0281H94.4684L89.6361 22.8385C88.7119 25.5055 87.9725 27.1691 87.4444 27.8029C86.8899 28.4366 85.8072 28.7535 84.1964 28.7535H83.4042C83.2194 28.7535 82.9289 28.7271 82.5064 28.7007V25.7696L82.9817 25.796Z" fill="white"/>
</svg>
