<svg width="185" height="54" viewBox="0 0 185 54" fill="none" xmlns="http://www.w3.org/2000/svg">
<path d="M178.148 54H6.85185C3.08505 54 0 50.9608 0 47.25V6.75C0 3.03919 3.08505 0 6.85185 0H178.148C181.915 0 185 3.03919 185 6.75V47.25C185 50.9608 181.915 54 178.148 54Z" fill="#161616"/>
<path d="M178.148 1.08169C181.321 1.08169 183.902 3.62475 183.902 6.75V47.25C183.902 50.3753 181.321 52.9183 178.148 52.9183H6.85185C3.67944 52.9183 1.09801 50.3753 1.09801 47.25V6.75C1.09801 3.62475 3.67944 1.08169 6.85185 1.08169H178.148ZM178.148 0H6.85185C3.08505 0 0 3.03919 0 6.75V47.25C0 50.9608 3.08505 54 6.85185 54H178.148C181.915 54 185 50.9608 185 47.25V6.75C185 3.03919 181.915 0 178.148 0Z" fill="#F0F0F0"/>
<path d="M13.2722 10.1776C12.8697 10.5928 12.6367 11.2391 12.6367 12.0761V41.9313C12.6367 42.7683 12.8697 43.4146 13.2722 43.8298L13.3716 43.9209L30.3539 27.1978V26.8029L13.3716 10.0798L13.2722 10.1776Z" fill="white"/>
<path d="M38.0637 32.7754L32.4092 27.1982V26.8033L38.0705 21.2261L38.1973 21.2987L44.9018 25.0568C46.8152 26.1233 46.8152 27.8783 44.9018 28.9515L38.1973 32.7028L38.0637 32.7754Z" fill="white"/>
<path d="M37.1696 33.7409L31.3815 28.0388L14.2998 44.8683C14.9353 45.5264 15.9717 45.6057 17.1502 44.9476L37.1696 33.7409Z" fill="white"/>
<path d="M37.1696 20.2599L17.1502 9.05317C15.9717 8.40179 14.9353 8.4811 14.2998 9.13923L31.3815 25.9619L37.1696 20.2599Z" fill="white"/>
<path d="M64.9793 13.8289C64.9793 14.9561 64.6367 15.859 63.9618 16.5323C63.1858 17.3305 62.1751 17.7321 60.9367 17.7321C59.753 17.7321 58.7424 17.3237 57.9133 16.5188C57.0825 15.702 56.668 14.6996 56.668 13.4998C56.668 12.3 57.0825 11.2976 57.9133 10.4876C58.7424 9.67595 59.753 9.26758 60.9367 9.26758C61.5259 9.26758 62.0878 9.38739 62.6239 9.61014C63.1584 9.83458 63.5935 10.1383 63.9087 10.513L63.1926 11.2251C62.6428 10.5855 61.8942 10.27 60.9367 10.27C60.0733 10.27 59.3248 10.567 58.6893 11.166C58.0606 11.7668 57.7454 12.5447 57.7454 13.4998C57.7454 14.455 58.0606 15.2396 58.6893 15.8404C59.3248 16.4327 60.0733 16.7365 60.9367 16.7365C61.8531 16.7365 62.6239 16.4327 63.232 15.8336C63.6329 15.4371 63.8607 14.8903 63.9207 14.1917H60.9367V13.2163H64.9176C64.9656 13.4273 64.9793 13.6315 64.9793 13.8289Z" fill="white" stroke="white" stroke-width="0.164444" stroke-miterlimit="10"/>
<path d="M71.2951 10.4471H67.5557V13.0121H70.9268V13.9874H67.5557V16.5524H71.2951V17.5464H66.4971V9.45313H71.2951V10.4471Z" fill="white" stroke="white" stroke-width="0.164444" stroke-miterlimit="10"/>
<path d="M75.7522 17.5464H74.6936V10.4471H72.3999V9.45313H78.0475V10.4471H75.7522V17.5464Z" fill="white" stroke="white" stroke-width="0.164444" stroke-miterlimit="10"/>
<path d="M82.1348 17.5464V9.45313H83.1917V17.5464H82.1348Z" fill="white" stroke="white" stroke-width="0.164444" stroke-miterlimit="10"/>
<path d="M87.8762 17.5464H86.8261V10.4471H84.5239V9.45313H90.1784V10.4471H87.8762V17.5464Z" fill="white" stroke="white" stroke-width="0.164444" stroke-miterlimit="10"/>
<path d="M100.871 16.5053C100.061 17.3237 99.057 17.7321 97.8597 17.7321C96.6555 17.7321 95.6517 17.3237 94.8414 16.5053C94.0329 15.6885 93.6304 14.6861 93.6304 13.4998C93.6304 12.3135 94.0329 11.3111 94.8414 10.4944C95.6517 9.67595 96.6555 9.26758 97.8597 9.26758C99.0502 9.26758 100.054 9.67595 100.864 10.5011C101.68 11.3246 102.082 12.3203 102.082 13.4998C102.082 14.6861 101.68 15.6885 100.871 16.5053ZM95.6243 15.8269C96.2341 16.4327 96.9758 16.7365 97.8597 16.7365C98.7367 16.7365 99.4853 16.4327 100.088 15.8269C100.696 15.2211 101.005 14.4431 101.005 13.4998C101.005 12.5565 100.696 11.7786 100.088 11.1728C99.4853 10.567 98.7367 10.2632 97.8597 10.2632C96.9758 10.2632 96.2341 10.567 95.6243 11.1728C95.0162 11.7786 94.7078 12.5565 94.7078 13.4998C94.7078 14.4431 95.0162 15.2211 95.6243 15.8269Z" fill="white" stroke="white" stroke-width="0.164444" stroke-miterlimit="10"/>
<path d="M103.567 17.5464V9.45313H104.852L108.846 15.7475H108.892L108.846 14.1916V9.45313H109.903V17.5464H108.8L104.617 10.9415H104.571L104.617 12.5041V17.5464H103.567Z" fill="white" stroke="white" stroke-width="0.164444" stroke-miterlimit="10"/>
<path d="M93.3699 29.3661C90.1513 29.3661 87.5219 31.7793 87.5219 35.1087C87.5219 38.4111 90.1513 40.8496 93.3699 40.8496C96.5954 40.8496 99.2248 38.4111 99.2248 35.1087C99.2248 31.7793 96.5954 29.3661 93.3699 29.3661ZM93.3699 38.5883C91.6039 38.5883 90.0845 37.1523 90.0845 35.1087C90.0845 33.0381 91.6039 31.6274 93.3699 31.6274C95.136 31.6274 96.6622 33.0381 96.6622 35.1087C96.6622 37.1523 95.136 38.5883 93.3699 38.5883ZM80.6101 29.3661C77.3845 29.3661 74.762 31.7793 74.762 35.1087C74.762 38.4111 77.3845 40.8496 80.6101 40.8496C83.8339 40.8496 86.4581 38.4111 86.4581 35.1087C86.4581 31.7793 83.8339 29.3661 80.6101 29.3661ZM80.6101 38.5883C78.8423 38.5883 77.3177 37.1523 77.3177 35.1087C77.3177 33.0381 78.8423 31.6274 80.6101 31.6274C82.3761 31.6274 83.8955 33.0381 83.8955 35.1087C83.8955 37.1523 82.3761 38.5883 80.6101 38.5883ZM65.4264 31.1262V33.5663H71.3412C71.1682 34.9298 70.7057 35.9322 69.9965 36.6308C69.1332 37.4746 67.7885 38.4111 65.4264 38.4111C61.7863 38.4111 58.9359 35.5171 58.9359 31.9311C58.9359 28.3452 61.7863 25.4511 65.4264 25.4511C67.3946 25.4511 68.8266 26.2088 69.8835 27.191L71.629 25.4714C70.1507 24.0809 68.1842 23.0127 65.4264 23.0127C60.4348 23.0127 56.2397 27.0138 56.2397 31.9311C56.2397 36.8485 60.4348 40.8496 65.4264 40.8496C68.1243 40.8496 70.1507 39.9788 71.7438 38.3453C73.3762 36.7371 73.885 34.4759 73.885 32.65C73.885 32.083 73.837 31.5616 73.7514 31.1262H65.4264ZM127.514 33.0179C127.033 31.7337 125.548 29.3661 122.523 29.3661C119.525 29.3661 117.029 31.6932 117.029 35.1087C117.029 38.3251 119.499 40.8496 122.811 40.8496C125.488 40.8496 127.033 39.2414 127.669 38.3048L125.682 37.0004C125.019 37.9555 124.116 38.5883 122.811 38.5883C121.514 38.5883 120.584 38.0028 119.988 36.8485L127.783 33.6709L127.514 33.0179ZM119.566 34.9298C119.499 32.7158 121.312 31.5818 122.61 31.5818C123.628 31.5818 124.491 32.083 124.779 32.8002L119.566 34.9298ZM113.23 40.5003H115.793V23.6253H113.23V40.5003ZM109.033 30.6453H108.948C108.372 29.9736 107.274 29.3661 105.883 29.3661C102.964 29.3661 100.295 31.8906 100.295 35.1273C100.295 38.3453 102.964 40.8496 105.883 40.8496C107.274 40.8496 108.372 40.237 108.948 39.5451H109.033V40.3686C109.033 42.5641 107.843 43.7436 105.923 43.7436C104.357 43.7436 103.386 42.6299 102.985 41.6933L100.756 42.6096C101.399 44.1318 103.1 46.0049 105.923 46.0049C108.927 46.0049 111.462 44.2634 111.462 40.0261V29.7154H109.033V30.6453ZM106.102 38.5883C104.336 38.5883 102.858 37.132 102.858 35.1273C102.858 33.1039 104.336 31.6274 106.102 31.6274C107.843 31.6274 109.215 33.1039 109.215 35.1273C109.215 37.132 107.843 38.5883 106.102 38.5883ZM139.512 23.6253H133.383V40.5003H135.939V34.1063H139.512C142.35 34.1063 145.134 32.083 145.134 28.8649C145.134 25.6486 142.344 23.6253 139.512 23.6253ZM139.579 31.759H135.939V25.9726H139.579C141.487 25.9726 142.576 27.5335 142.576 28.8649C142.576 30.1711 141.487 31.759 139.579 31.759ZM155.377 29.3341C153.531 29.3341 151.611 30.1373 150.821 31.9176L153.089 32.8542C153.577 31.9176 154.475 31.6139 155.424 31.6139C156.75 31.6139 158.094 32.3986 158.115 33.784V33.9612C157.652 33.6979 156.662 33.3081 155.444 33.3081C153.002 33.3081 150.513 34.6328 150.513 37.105C150.513 39.3663 152.513 40.8226 154.762 40.8226C156.482 40.8226 157.431 40.0581 158.027 39.1688H158.115V40.4733H160.583V34C160.583 31.0081 158.315 29.3341 155.377 29.3341ZM155.069 38.5816C154.233 38.5816 153.068 38.1732 153.068 37.1523C153.068 35.8461 154.521 35.3449 155.778 35.3449C156.904 35.3449 157.431 35.5896 158.115 35.9119C157.914 37.4746 156.549 38.5816 155.069 38.5816ZM169.576 29.7036L166.638 37.0189H166.551L163.514 29.7036H160.758L165.321 39.9265L162.717 45.6151H165.388L172.42 29.7036H169.576ZM146.539 40.5003H149.101V23.6253H146.539V40.5003Z" fill="white"/>
</svg>
