<svg width="24" height="24" viewBox="0 0 24 24" fill="none" xmlns="http://www.w3.org/2000/svg">
<g filter="url(#filter0_d_21320_4251)">
<path fill-rule="evenodd" clip-rule="evenodd" d="M15.2572 4.13397L13.5909 2.4676C12.7122 1.58892 11.2876 1.58892 10.4089 2.4676L8.74253 4.13397H6.38593C5.14329 4.13397 4.13593 5.14133 4.13593 6.38397V8.74058L2.46955 10.4069C1.59088 11.2856 1.59088 12.7102 2.46955 13.5889L4.13593 15.2553V17.6119C4.13593 18.8545 5.14329 19.8619 6.38593 19.8619H8.74253L10.4089 21.5282C11.2876 22.407 12.7122 22.407 13.5909 21.5282L15.2572 19.8619H17.6138C18.8565 19.8619 19.8638 18.8545 19.8638 17.6119V15.2553L21.5302 13.5889C22.4089 12.7102 22.4089 11.2856 21.5302 10.4069L19.8638 8.74058V6.38398C19.8638 5.14133 18.8565 4.13397 17.6138 4.13397H15.2572ZM14.4163 5.41431C14.5569 5.55496 14.7477 5.63397 14.9466 5.63397H17.6138C18.028 5.63397 18.3638 5.96976 18.3638 6.38398V9.05123C18.3638 9.25014 18.4429 9.44092 18.5835 9.58157L20.4696 11.4676C20.7625 11.7605 20.7625 12.2354 20.4696 12.5282L18.5835 14.4143C18.4429 14.555 18.3638 14.7457 18.3638 14.9446V17.6119C18.3638 18.0261 18.028 18.3619 17.6138 18.3619H14.9466C14.7477 18.3619 14.5569 18.441 14.4163 18.5816L12.5302 20.4677C12.2373 20.7605 11.7624 20.7605 11.4696 20.4677L9.58353 18.5816C9.44287 18.441 9.2521 18.3619 9.05319 18.3619H6.38593C5.97172 18.3619 5.63593 18.0261 5.63593 17.6119V14.9446C5.63593 14.7457 5.55691 14.555 5.41626 14.4143L3.53022 12.5282C3.23733 12.2354 3.23733 11.7605 3.53022 11.4676L5.41626 9.58157C5.55691 9.44092 5.63593 9.25014 5.63593 9.05123V6.38397C5.63593 5.96976 5.97172 5.63397 6.38593 5.63397H9.05319C9.2521 5.63397 9.44287 5.55496 9.58353 5.41431L11.4696 3.52827C11.7624 3.23537 12.2373 3.23537 12.5302 3.52827L14.4163 5.41431Z" fill="#262728"/>
<path d="M14.9466 5.63397C14.7476 5.63397 14.557 5.55496 14.4162 5.41431L12.5302 3.52827C12.2374 3.23537 11.7624 3.23537 11.4696 3.52827L9.58351 5.41431C9.44286 5.55496 9.2521 5.63397 9.05318 5.63397H6.38592C5.97171 5.63397 5.63592 5.96976 5.63592 6.38397V9.05123C5.63592 9.25014 5.55691 9.44091 5.41626 9.58156L3.53022 11.4676C3.23732 11.7605 3.23732 12.2354 3.53022 12.5282L5.41626 14.4142C5.55691 14.555 5.63592 14.7457 5.63592 14.9446V17.6119C5.63592 18.0261 5.97171 18.3619 6.38592 18.3619H9.05318C9.2521 18.3619 9.44286 18.441 9.58351 18.5816L11.4696 20.4676C11.7624 20.7604 12.2374 20.7604 12.5302 20.4676L14.4162 18.5816C14.557 18.441 14.7476 18.3619 14.9466 18.3619H17.6138C18.0281 18.3619 18.3638 18.0261 18.3638 17.6119V14.9446C18.3638 14.7457 18.4429 14.555 18.5836 14.4142L20.4696 12.5282C20.7624 12.2354 20.7624 11.7605 20.4696 11.4676L18.5836 9.58156C18.4429 9.44091 18.3638 9.25014 18.3638 9.05123V6.38397C18.3638 5.96976 18.0281 5.63397 17.6138 5.63397H14.9466Z" fill="#35B9E9"/>
<path fill-rule="evenodd" clip-rule="evenodd" d="M16.0299 10.0294L10.9996 15.0597L8.46924 12.5294L9.52991 11.4687L10.9996 12.9385L14.9693 8.96875L16.0299 10.0294Z" fill="#262728"/>
</g>
<defs>
<filter id="filter0_d_21320_4251" x="-2.98945" y="-0.591406" width="29.9789" height="29.9789" filterUnits="userSpaceOnUse" color-interpolation-filters="sRGB">
<feFlood flood-opacity="0" result="BackgroundImageFix"/>
<feColorMatrix in="SourceAlpha" type="matrix" values="0 0 0 0 0 0 0 0 0 0 0 0 0 0 0 0 0 0 127 0" result="hardAlpha"/>
<feOffset dy="2.4"/>
<feGaussianBlur stdDeviation="2.4"/>
<feColorMatrix type="matrix" values="0 0 0 0 0.105882 0 0 0 0 0.109804 0 0 0 0 0.113725 0 0 0 0.04 0"/>
<feBlend mode="normal" in2="BackgroundImageFix" result="effect1_dropShadow_21320_4251"/>
<feBlend mode="normal" in="SourceGraphic" in2="effect1_dropShadow_21320_4251" result="shape"/>
</filter>
</defs>
</svg>
