<svg width="24" height="24" viewBox="0 0 24 24" fill="none" xmlns="http://www.w3.org/2000/svg">
<g filter="url(#filter0_d_21320_1356)">
<path fill-rule="evenodd" clip-rule="evenodd" d="M15.2572 4.13495L13.5909 2.46858C12.7122 1.5899 11.2876 1.5899 10.4089 2.46858L8.74253 4.13495H6.38593C5.14329 4.13495 4.13593 5.14231 4.13593 6.38495V8.74155L2.46955 10.4079C1.59088 11.2866 1.59088 12.7112 2.46955 13.5899L4.13593 15.2563V17.6129C4.13593 18.8555 5.14329 19.8629 6.38593 19.8629H8.74253L10.4089 21.5292C11.2876 22.4079 12.7122 22.4079 13.5909 21.5292L15.2572 19.8629H17.6138C18.8565 19.8629 19.8638 18.8555 19.8638 17.6129V15.2563L21.5302 13.5899C22.4089 12.7112 22.4089 11.2866 21.5302 10.4079L19.8638 8.74155V6.38496C19.8638 5.14231 18.8565 4.13495 17.6138 4.13495H15.2572ZM14.4163 5.41529C14.5569 5.55594 14.7477 5.63495 14.9466 5.63495H17.6138C18.028 5.63495 18.3638 5.97074 18.3638 6.38496V9.05221C18.3638 9.25112 18.4429 9.4419 18.5835 9.58255L20.4696 11.4686C20.7625 11.7615 20.7625 12.2364 20.4696 12.5292L18.5835 14.4152C18.4429 14.556 18.3638 14.7467 18.3638 14.9456V17.6129C18.3638 18.0271 18.028 18.3629 17.6138 18.3629H14.9466C14.7477 18.3629 14.5569 18.4419 14.4163 18.5826L12.5302 20.4686C12.2373 20.7614 11.7624 20.7614 11.4696 20.4686L9.58353 18.5826C9.44287 18.4419 9.2521 18.3629 9.05319 18.3629H6.38593C5.97172 18.3629 5.63593 18.0271 5.63593 17.6129V14.9456C5.63593 14.7467 5.55691 14.556 5.41626 14.4152L3.53022 12.5292C3.23733 12.2364 3.23733 11.7615 3.53022 11.4686L5.41626 9.58255C5.55691 9.4419 5.63593 9.25112 5.63593 9.05221V6.38495C5.63593 5.97074 5.97172 5.63495 6.38593 5.63495H9.05319C9.2521 5.63495 9.44287 5.55594 9.58353 5.41529L11.4696 3.52925C11.7624 3.23635 12.2373 3.23635 12.5302 3.52925L14.4163 5.41529Z" fill="#F8F9FB"/>
<path d="M14.9466 5.63494C14.7476 5.63494 14.557 5.55593 14.4162 5.41528L12.5302 3.52924C12.2374 3.23635 11.7624 3.23635 11.4696 3.52924L9.58351 5.41528C9.44286 5.55593 9.2521 5.63494 9.05318 5.63494H6.38592C5.97171 5.63494 5.63592 5.97074 5.63592 6.38494V9.05221C5.63592 9.25112 5.55691 9.44188 5.41626 9.58253L3.53022 11.4686C3.23732 11.7615 3.23732 12.2364 3.53022 12.5292L5.41626 14.4152C5.55691 14.556 5.63592 14.7467 5.63592 14.9456V17.6129C5.63592 18.0271 5.97171 18.3629 6.38592 18.3629H9.05318C9.2521 18.3629 9.44286 18.4419 9.58351 18.5826L11.4696 20.4686C11.7624 20.7614 12.2374 20.7614 12.5302 20.4686L14.4162 18.5826C14.557 18.4419 14.7476 18.3629 14.9466 18.3629H17.6138C18.0281 18.3629 18.3638 18.0271 18.3638 17.6129V14.9456C18.3638 14.7467 18.4429 14.556 18.5836 14.4152L20.4696 12.5292C20.7624 12.2364 20.7624 11.7615 20.4696 11.4686L18.5836 9.58253C18.4429 9.44188 18.3638 9.25112 18.3638 9.05221V6.38494C18.3638 5.97074 18.0281 5.63494 17.6138 5.63494H14.9466Z" fill="#35B9E9"/>
<path fill-rule="evenodd" clip-rule="evenodd" d="M16.0299 10.0304L10.9996 15.0607L8.46924 12.5304L9.52991 11.4697L10.9996 12.9394L14.9693 8.96973L16.0299 10.0304Z" fill="#F8F9FB"/>
</g>
<defs>
<filter id="filter0_d_21320_1356" x="-2.98945" y="-0.59043" width="29.9789" height="29.9789" filterUnits="userSpaceOnUse" color-interpolation-filters="sRGB">
<feFlood flood-opacity="0" result="BackgroundImageFix"/>
<feColorMatrix in="SourceAlpha" type="matrix" values="0 0 0 0 0 0 0 0 0 0 0 0 0 0 0 0 0 0 127 0" result="hardAlpha"/>
<feOffset dy="2.4"/>
<feGaussianBlur stdDeviation="2.4"/>
<feColorMatrix type="matrix" values="0 0 0 0 0.105882 0 0 0 0 0.109804 0 0 0 0 0.113725 0 0 0 0.04 0"/>
<feBlend mode="normal" in2="BackgroundImageFix" result="effect1_dropShadow_21320_1356"/>
<feBlend mode="normal" in="SourceGraphic" in2="effect1_dropShadow_21320_1356" result="shape"/>
</filter>
</defs>
</svg>
