<svg width="96" height="29" viewBox="0 0 96 29" fill="none" xmlns="http://www.w3.org/2000/svg">
<path d="M24.4538 6.21398L16.0815 7.27713C15.484 7.353 15.0361 7.86134 15.0361 8.46364V17.0433C15.0361 17.6421 15.4789 18.1486 16.0723 18.2286L24.4446 19.3582C25.1622 19.455 25.8005 18.897 25.8005 18.1729V7.4005C25.8005 6.68014 25.1684 6.12323 24.4538 6.21398Z" fill="#FAFDFF"/>
<path d="M19.1924 0.300102L0.995449 3.39585C0.420557 3.49365 0 3.9918 0 4.57495V21.5088C0 22.0974 0.428303 22.5986 1.00976 22.6902L19.2067 25.5595C19.9326 25.6739 20.589 25.1129 20.589 24.378V20.6942C20.589 20.523 20.4624 20.3782 20.2927 20.3555L14.6207 19.5946C14.0269 19.5149 13.5836 19.0083 13.5836 18.4092V12.92V7.39359C13.5836 6.8107 14.0038 6.3127 14.5784 6.21461L20.3048 5.23692C20.469 5.2089 20.589 5.06661 20.589 4.90007V1.4792C20.589 0.738493 19.9226 0.175874 19.1924 0.300102Z" fill="#A1D8EE"/>
<path d="M5.26315 14.5455C5.31783 14.9966 5.45452 15.3247 5.63222 15.5571C5.96027 15.9535 6.53438 16.1585 7.34085 16.1585C7.83294 16.1585 8.22934 16.1038 8.53006 15.9945C9.10416 15.7894 9.39121 15.4067 9.39121 14.8599C9.39121 14.5319 9.25452 14.2858 8.96747 14.1081C8.68042 13.9304 8.22934 13.7801 7.61423 13.6434L6.57538 13.411C5.56387 13.1786 4.85308 12.9326 4.45668 12.6592C3.80056 12.1945 3.45884 11.4973 3.45884 10.5268C3.45884 9.63835 3.78689 8.91389 4.42934 8.32612C5.05812 7.75202 6.00128 7.4513 7.24517 7.4513C8.28402 7.4513 9.17251 7.72468 9.89697 8.27144C10.6351 8.83188 11.0178 9.62468 11.0452 10.6772H9.07682C9.03581 10.0758 8.7761 9.65202 8.29768 9.40598C7.9833 9.24195 7.57322 9.15993 7.10848 9.15993C6.57538 9.15993 6.15164 9.26929 5.83725 9.48799C5.52286 9.69303 5.35884 9.99375 5.35884 10.3765C5.35884 10.7319 5.52286 10.9916 5.83725 11.1693C6.02862 11.2786 6.45236 11.4153 7.10848 11.5794L8.80344 11.9758C9.55524 12.1671 10.1157 12.3995 10.4847 12.7002C11.0725 13.1513 11.3732 13.8348 11.3732 14.7096C11.3732 15.5981 11.0315 16.3499 10.348 16.9376C9.65092 17.5391 8.68042 17.8398 7.42286 17.8398C6.15164 17.8398 5.14013 17.5391 4.402 16.9513C3.66387 16.3772 3.30848 15.5707 3.30848 14.5455H5.26315Z" fill="#262728"/>
<path d="M21.4546 14.8262H20.6444L20.4158 14.0905H19.0936L18.85 14.8262H18.0647L19.3421 11.2474H20.1871L21.4546 14.8262ZM19.7597 12.0675L19.2974 13.4742H20.207L19.7597 12.0675ZM21.8457 11.2474H22.5913V14.8262H21.8457V11.2474Z" fill="#262728"/>
<path d="M36.6664 17.2765C36.772 18.1479 37.0361 18.7817 37.3794 19.2306C38.0131 19.9963 39.1222 20.3924 40.6801 20.3924C41.6307 20.3924 42.3965 20.2868 42.9775 20.0756C44.0865 19.6795 44.641 18.9401 44.641 17.8838C44.641 17.2501 44.377 16.7748 43.8225 16.4315C43.2679 16.0882 42.3965 15.7978 41.2082 15.5337L39.2014 15.0848C37.2473 14.6359 35.8742 14.1606 35.1084 13.6325C33.8409 12.7346 33.1808 11.3879 33.1808 9.5131C33.1808 7.7967 33.8145 6.39717 35.0556 5.26171C36.2703 4.15265 38.0923 3.57171 40.4953 3.57171C42.5021 3.57171 44.2185 4.09984 45.6181 5.15608C47.044 6.23874 47.7834 7.77029 47.8362 9.80357H44.0337C43.9545 8.6417 43.4528 7.8231 42.5286 7.34779C41.9212 7.03092 41.129 6.87248 40.2312 6.87248C39.2014 6.87248 38.3828 7.08373 37.7754 7.50623C37.1681 7.90232 36.8512 8.48326 36.8512 9.22263C36.8512 9.90919 37.1681 10.4109 37.7754 10.7542C38.1451 10.9654 38.9637 11.2295 40.2312 11.5464L43.5056 12.3122C44.9579 12.6818 46.0406 13.1307 46.7535 13.7117C47.889 14.5831 48.4699 15.9034 48.4699 17.5934C48.4699 19.3098 47.8098 20.7621 46.4895 21.8976C45.1428 23.0595 43.2679 23.6404 40.8386 23.6404C38.3828 23.6404 36.4287 23.0595 35.0028 21.924C33.5769 20.8149 32.8903 19.257 32.8903 17.2765H36.6664ZM51.1896 4.12624H54.86V23.1387H51.1896V4.12624ZM58.5125 4.02062H62.2358V7.40061H58.5125V4.02062ZM62.2358 23.1387H58.5125V9.0906H62.2358V23.1387ZM73.2556 9.30185C73.9158 9.67153 74.4703 10.1997 74.8664 10.8598V4.15265H78.5897V23.1387H75.0248V21.1846C74.4967 22.0296 73.9158 22.637 73.2292 23.0066C72.5691 23.3763 71.7241 23.5876 70.7206 23.5876C69.0834 23.5876 67.7103 22.901 66.6013 21.5807C65.4658 20.2604 64.9113 18.544 64.9113 16.4843C64.9113 14.0814 65.4658 12.1801 66.5749 10.807C67.6575 9.43388 69.1363 8.74732 70.9847 8.74732C71.8297 8.74732 72.5955 8.93216 73.2556 9.30185ZM74.1534 19.3098C74.708 18.544 74.972 17.5406 74.972 16.3259C74.972 14.6095 74.5495 13.3684 73.6781 12.629C73.15 12.1801 72.5162 11.9689 71.8033 11.9689C70.747 11.9689 69.9548 12.365 69.4531 13.1836C68.9514 13.9757 68.6874 15.0056 68.6874 16.1939C68.6874 17.5142 68.9514 18.544 69.4795 19.3098C69.9813 20.102 70.747 20.4717 71.8033 20.4717C72.8331 20.4717 73.6253 20.102 74.1534 19.3098ZM82.9817 25.8585C83.3514 25.8849 83.6947 25.8585 84.0116 25.8321C84.3285 25.7793 84.6189 25.6737 84.8302 25.5152C85.0678 25.3832 85.2527 25.0663 85.4375 24.6174C85.6224 24.1421 85.7016 23.8516 85.6752 23.746L80.4996 9.0906H84.5925L87.6556 19.4418L90.5603 9.0906H94.4684L89.6361 22.901C88.7119 25.568 87.9725 27.2316 87.4444 27.8654C86.8899 28.4991 85.8072 28.816 84.1964 28.816H83.4042C83.2194 28.816 82.9289 28.7896 82.5064 28.7632V25.8321L82.9817 25.8585Z" fill="#FAFDFF"/>
</svg>
