<svg width="96" height="29" viewBox="0 0 96 29" fill="none" xmlns="http://www.w3.org/2000/svg">
<path d="M24.4538 6.21398L16.0815 7.27713C15.484 7.353 15.0361 7.86134 15.0361 8.46364V17.0433C15.0361 17.6421 15.4789 18.1486 16.0723 18.2286L24.4446 19.3582C25.1622 19.455 25.8005 18.897 25.8005 18.1729V7.4005C25.8005 6.68014 25.1684 6.12323 24.4538 6.21398Z" fill="#161616"/>
<path d="M19.1924 0.300102L0.995449 3.39585C0.420557 3.49365 0 3.9918 0 4.57495V21.5088C0 22.0974 0.428303 22.5986 1.00976 22.6902L19.2067 25.5595C19.9326 25.6739 20.589 25.1129 20.589 24.378V20.6942C20.589 20.523 20.4624 20.3782 20.2927 20.3555L14.6207 19.5946C14.0269 19.5149 13.5836 19.0083 13.5836 18.4092V12.92V7.39359C13.5836 6.8107 14.0038 6.3127 14.5784 6.21461L20.3048 5.23692C20.469 5.2089 20.589 5.06661 20.589 4.90007V1.4792C20.589 0.738493 19.9226 0.175874 19.1924 0.300102Z" fill="#1252D3"/>
<path d="M5.26266 14.5455C5.31734 14.9966 5.45403 15.3247 5.63173 15.5571C5.95979 15.9535 6.53389 16.1585 7.34036 16.1585C7.83245 16.1585 8.22885 16.1038 8.52957 15.9945C9.10367 15.7894 9.39072 15.4067 9.39072 14.8599C9.39072 14.5319 9.25403 14.2858 8.96698 14.1081C8.67993 13.9304 8.22885 13.7801 7.61374 13.6434L6.57489 13.411C5.56338 13.1786 4.85259 12.9326 4.45619 12.6592C3.80007 12.1945 3.45835 11.4973 3.45835 10.5268C3.45835 9.63835 3.7864 8.91389 4.42885 8.32612C5.05763 7.75202 6.00079 7.4513 7.24468 7.4513C8.28353 7.4513 9.17202 7.72468 9.89648 8.27144C10.6346 8.83188 11.0173 9.62468 11.0447 10.6772H9.07633C9.03533 10.0758 8.77561 9.65202 8.2972 9.40598C7.98281 9.24195 7.57274 9.15993 7.10799 9.15993C6.57489 9.15993 6.15115 9.26929 5.83676 9.48799C5.52238 9.69303 5.35835 9.99375 5.35835 10.3765C5.35835 10.7319 5.52238 10.9916 5.83676 11.1693C6.02813 11.2786 6.45187 11.4153 7.10799 11.5794L8.80295 11.9758C9.55475 12.1671 10.1152 12.3995 10.4842 12.7002C11.072 13.1513 11.3727 13.8348 11.3727 14.7096C11.3727 15.5981 11.031 16.3499 10.3476 16.9376C9.65043 17.5391 8.67993 17.8398 7.42238 17.8398C6.15115 17.8398 5.13964 17.5391 4.40151 16.9513C3.66338 16.3772 3.30799 15.5707 3.30799 14.5455H5.26266Z" fill="white"/>
<path d="M21.4546 14.8262H20.6444L20.4158 14.0905H19.0936L18.85 14.8262H18.0647L19.3421 11.2474H20.1871L21.4546 14.8262ZM19.7597 12.0675L19.2974 13.4742H20.207L19.7597 12.0675ZM21.8457 11.2474H22.5913V14.8262H21.8457V11.2474Z" fill="white"/>
<path d="M36.6659 17.2765C36.7715 18.1479 37.0356 18.7817 37.3789 19.2306C38.0126 19.9963 39.1217 20.3924 40.6796 20.3924C41.6303 20.3924 42.396 20.2868 42.977 20.0756C44.086 19.6795 44.6406 18.9401 44.6406 17.8838C44.6406 17.2501 44.3765 16.7748 43.822 16.4315C43.2674 16.0882 42.396 15.7978 41.2078 15.5337L39.2009 15.0848C37.2468 14.6359 35.8737 14.1606 35.1079 13.6325C33.8404 12.7346 33.1803 11.3879 33.1803 9.5131C33.1803 7.7967 33.814 6.39717 35.0551 5.26171C36.2698 4.15265 38.0918 3.57171 40.4948 3.57171C42.5017 3.57171 44.2181 4.09984 45.6176 5.15608C47.0435 6.23874 47.7829 7.77029 47.8357 9.80357H44.0332C43.954 8.6417 43.4523 7.8231 42.5281 7.34779C41.9207 7.03092 41.1285 6.87248 40.2307 6.87248C39.2009 6.87248 38.3823 7.08373 37.775 7.50623C37.1676 7.90232 36.8507 8.48326 36.8507 9.22263C36.8507 9.90919 37.1676 10.4109 37.775 10.7542C38.1446 10.9654 38.9632 11.2295 40.2307 11.5464L43.5051 12.3122C44.9574 12.6818 46.0401 13.1307 46.753 13.7117C47.8885 14.5831 48.4694 15.9034 48.4694 17.5934C48.4694 19.3098 47.8093 20.7621 46.489 21.8976C45.1423 23.0595 43.2674 23.6404 40.8381 23.6404C38.3823 23.6404 36.4282 23.0595 35.0023 21.924C33.5764 20.8149 32.8898 19.257 32.8898 17.2765H36.6659ZM51.1891 4.12624H54.8595V23.1387H51.1891V4.12624ZM58.512 4.02062H62.2353V7.40061H58.512V4.02062ZM62.2353 23.1387H58.512V9.0906H62.2353V23.1387ZM73.2551 9.30185C73.9153 9.67153 74.4698 10.1997 74.8659 10.8598V4.15265H78.5892V23.1387H75.0243V21.1846C74.4962 22.0296 73.9153 22.637 73.2287 23.0066C72.5686 23.3763 71.7236 23.5876 70.7201 23.5876C69.083 23.5876 67.7098 22.901 66.6008 21.5807C65.4653 20.2604 64.9108 18.544 64.9108 16.4843C64.9108 14.0814 65.4653 12.1801 66.5744 10.807C67.657 9.43388 69.1358 8.74732 70.9842 8.74732C71.8292 8.74732 72.595 8.93216 73.2551 9.30185ZM74.1529 19.3098C74.7075 18.544 74.9715 17.5406 74.9715 16.3259C74.9715 14.6095 74.549 13.3684 73.6776 12.629C73.1495 12.1801 72.5158 11.9689 71.8028 11.9689C70.7465 11.9689 69.9544 12.365 69.4526 13.1836C68.9509 13.9757 68.6869 15.0056 68.6869 16.1939C68.6869 17.5142 68.9509 18.544 69.479 19.3098C69.9808 20.102 70.7465 20.4717 71.8028 20.4717C72.8326 20.4717 73.6248 20.102 74.1529 19.3098ZM82.9813 25.8585C83.3509 25.8849 83.6942 25.8585 84.0111 25.8321C84.328 25.7793 84.6184 25.6737 84.8297 25.5152C85.0673 25.3832 85.2522 25.0663 85.437 24.6174C85.6219 24.1421 85.7011 23.8516 85.6747 23.746L80.4991 9.0906H84.592L87.6551 19.4418L90.5598 9.0906H94.4679L89.6356 22.901C88.7114 25.568 87.972 27.2316 87.4439 27.8654C86.8894 28.4991 85.8067 28.816 84.1959 28.816H83.4038C83.2189 28.816 82.9284 28.7896 82.5059 28.7632V25.8321L82.9813 25.8585Z" fill="#161616"/>
</svg>
