<svg width="28" height="28" viewBox="0 0 28 28" fill="none" xmlns="http://www.w3.org/2000/svg">
<mask id="mask0_21124_35498" style="mask-type:luminance" maskUnits="userSpaceOnUse" x="3" y="3" width="22" height="22">
<path d="M20.2997 24.4978H7.7003C5.38013 24.4978 3.5 22.6175 3.5 20.2987V7.6984C3.5 5.37807 5.38013 3.4978 7.7003 3.4978H20.2997C22.6199 3.4978 24.5 5.37807 24.5 7.6984V20.2987C24.4985 22.6175 22.6184 24.4978 20.2997 24.4978Z" fill="white"/>
</mask>
<g mask="url(#mask0_21124_35498)">
<path d="M24.4985 3.4978H3.5V24.4978H24.4985V3.4978Z" fill="#005BFF"/>
</g>
<mask id="mask1_21124_35498" style="mask-type:luminance" maskUnits="userSpaceOnUse" x="3" y="3" width="22" height="22">
<path d="M20.2997 3.4978H7.7003C5.38013 3.4978 3.5 5.37807 3.5 7.6984V20.2987C3.5 22.6175 5.38013 24.4978 7.7003 24.4978H20.2997C22.6184 24.4978 24.4985 22.6175 24.5 20.2987V7.6984C24.5 5.37807 22.6199 3.4978 20.2997 3.4978Z" fill="white"/>
</mask>
<g mask="url(#mask1_21124_35498)">
<path d="M26.8225 21.4901C25.227 22.9254 23.3876 25.0438 21.077 24.9604C20.455 24.5413 21.4387 23.7241 21.7539 23.3704C22.761 22.2406 23.7546 21.0347 24.7335 19.8055C28.2552 15.3837 27.1023 17.8485 26.8225 21.4901Z" fill="#F1117E"/>
<path d="M22.7265 -0.258566C21.1548 3.33531 19.2276 6.90544 16.5084 9.77701C14.6268 11.764 13.3168 13.2479 10.9952 15.0337C8.30967 17.0994 5.6823 18.7096 3.13856 20.9001C1.79434 22.1377 0.209531 23.1612 -1.50049 23.8884C-1.49001 24.0278 -1.3463 26.0444 -1.34185 26.0711C-1.31815 26.0577 -0.842559 25.6755 -0.747738 25.6058C3.26551 22.8146 7.87994 20.9388 11.8085 17.9496C16.6425 13.883 20.6913 8.85489 24.1489 3.58502C27.2956 -0.808691 29.3593 -0.882718 22.7265 -0.258566Z" fill="#F1117E"/>
<path d="M7.34126 4.60896C6.40342 5.60169 5.4878 6.59591 4.5707 7.60938C4.0714 8.16354 3.621 8.76066 3.12763 9.3237C2.24609 10.3298 1.33343 11.324 0.291875 12.1463C-0.764495 12.979 -1.90087 13.8206 -2.97799 14.6267C-2.98095 14.5659 -3.10836 11.7418 -3.11133 11.6781C-2.655 10.9047 -2.19571 10.029 -1.85642 9.18887C-1.65641 8.6925 -1.4801 8.17094 -1.27861 7.67458C-0.893394 6.71889 -0.388173 5.84469 0.355583 5.14829C0.770427 4.75861 1.2475 4.48302 1.7379 4.22076C3.20912 3.4325 4.67885 2.6309 6.15303 1.85005C7.03161 1.38332 7.69684 0.569871 8.4806 -0.0450305L11.5904 -0.185791C10.1785 1.42184 8.81248 3.0517 7.34126 4.60896Z" fill="#F1117E"/>
<path d="M14.1604 27.2119C15.3308 26.0236 19.4311 23.2631 18.7778 22.8848C18.719 22.8507 18.6463 22.8508 18.5851 22.8804C16.3332 23.9691 14.2308 25.516 12.6487 27.4774C12.6078 27.528 12.5464 27.5574 12.4814 27.5567C12.1109 27.5529 10.9132 27.5394 10.1448 27.5309C9.93955 27.5287 9.85729 27.2648 10.0249 27.1462C10.155 27.0542 10.2627 26.9761 10.3234 26.931C12.179 25.5003 14.2461 24.4265 16.2488 23.2592C18.6497 21.8597 20.7314 19.973 22.3607 17.7216C23.1101 16.686 23.8742 15.6633 24.7692 14.7572C24.7788 14.7475 24.7894 14.7387 24.8007 14.731C27.2994 13.0328 27.9906 7.95395 31.4372 6.15923C31.5796 6.08508 31.7494 6.18843 31.748 6.34898C31.7367 7.65552 30.0101 8.7178 29.8968 10.0585C29.8957 10.0717 29.8935 10.0848 29.89 10.0975C28.5501 14.97 23.8282 18.2749 21.5873 20.8186C20.2562 22.3296 18.6778 25.3357 16.8636 27.3427C16.8437 27.3648 16.8287 27.3908 16.8194 27.419C16.7287 27.6954 15.1047 27.6 14.3044 27.5716C14.1206 27.5651 14.0313 27.343 14.1604 27.2119Z" fill="#F1117E"/>
<path d="M-2.38086 28.1394C2.11175 25.0392 7.48208 23.4256 11.8825 20.2297C14.4315 18.0365 16.3813 15.1721 18.9663 13.0397C19.6807 12.6093 19.4802 13.2624 19.2483 13.6857C16.6519 18.8937 11.4676 21.882 6.63695 24.7387C3.1532 26.9665 2.45931 28.8238 -2.38086 28.1394Z" fill="#F1117E"/>
<path d="M28.5669 6.78159C32.4668 4.84508 31.4548 2.79951 30.9497 -1.10889C28.9116 0.338871 27.6296 1.97593 26.073 3.88615C21.4685 9.21518 19.8371 17.014 13.5976 21.0024C10.3938 22.8663 7.80417 25.5173 5.06689 27.9738C5.68562 27.7563 9.15577 28.1194 9.33099 27.1649C10.1492 25.7813 11.0423 24.6833 12.5462 24.0313C15.3674 22.5501 17.8016 20.4468 20.277 18.4615C23.6735 15.1015 23.6762 8.76493 28.5669 6.78159Z" fill="#F1117E"/>
<path d="M22.27 -0.244492C19.7912 4.24617 15.2483 8.83564 10.6544 12.2721C8.86556 13.6102 6.78866 14.5077 4.59138 14.9108C2.91499 15.2183 2.18419 15.7072 -0.211556 17.7199C-1.03984 18.5834 -1.4858 19.3849 -2.2014 20.7644C-2.20288 20.717 -2.39697 16.4616 -2.39697 16.4616C-0.491066 13.865 2.42301 12.7387 4.63027 10.526C6.45035 8.62535 7.72068 6.24184 9.39949 4.21842C10.2377 3.15288 12.8949 0.749445 13.3952 0.15695C13.4012 0.157046 16.1451 0.0325846 16.1451 0.0325846C14.8908 1.6214 13.6132 3.13756 10.9629 6.27426C10.644 6.65165 8.01025 9.36364 7.04753 10.8557C6.73408 11.3415 6.52176 11.8355 6.75829 12.0198C7.00886 12.2151 7.36169 11.8904 7.93227 11.5338C11.2064 9.488 13.4953 7.5568 16.1467 4.25403C20.4387 -1.09241 17.1488 -0.617068 22.27 -0.244492Z" fill="#F1117E"/>
</g>
<mask id="mask2_21124_35498" style="mask-type:luminance" maskUnits="userSpaceOnUse" x="3" y="3" width="22" height="22">
<path d="M20.2997 3.4978H7.7003C5.38013 3.4978 3.5 5.37807 3.5 7.6984V20.2987C3.5 22.6175 5.38013 24.4978 7.7003 24.4978H20.2997C22.6184 24.4978 24.4985 22.6175 24.5 20.2987V7.6984C24.5 5.37807 22.6199 3.4978 20.2997 3.4978Z" fill="white"/>
</mask>
<g mask="url(#mask2_21124_35498)">
<path d="M12.3022 15.5969L10.4494 16.0934L11.9761 12.3273C12.0096 12.2432 11.9687 12.148 11.8846 12.1144C11.8522 12.1015 11.8165 12.0993 11.7827 12.1081L8.35946 13.0254C8.05731 13.1063 7.87797 13.417 7.95893 13.7192C8.0399 14.0213 8.35051 14.2007 8.65267 14.1197L10.192 13.7072L8.65678 17.4772C8.62202 17.5598 8.66078 17.6549 8.74338 17.6897C8.77723 17.704 8.81492 17.7063 8.85022 17.6963L12.5958 16.6927C12.8933 16.5961 13.0563 16.2766 12.9597 15.979C12.8702 15.7031 12.5867 15.5394 12.303 15.5998L12.3022 15.5969ZM23.358 9.00625C23.0558 9.08724 22.8765 9.39787 22.9574 9.70004L23.4491 11.5352L19.863 9.98088C19.7812 9.9441 19.6852 9.98056 19.6484 10.0623C19.6329 10.0968 19.6299 10.1357 19.64 10.1722L20.6508 13.9446C20.7317 14.2468 21.0423 14.4261 21.3445 14.3451C21.6466 14.2641 21.826 13.9536 21.745 13.6514L21.2533 11.8162L24.8399 13.372C24.9231 13.4075 25.0193 13.3688 25.0548 13.2856C25.0691 13.252 25.0718 13.2145 25.0624 13.1793L24.0517 9.40683C23.9707 9.10465 23.6601 8.92529 23.358 9.00625ZM16.4688 14.5913C15.2178 14.9265 14.1051 14.5178 13.947 13.9277C13.7889 13.3377 14.5482 12.4274 15.7992 12.0921C17.0502 11.7569 18.1629 12.1656 18.321 12.7557C18.4791 13.3457 17.7228 14.2553 16.4688 14.5913ZM15.5064 10.9993C13.695 11.4847 12.5075 12.9266 12.8542 14.2206C13.2009 15.5145 14.9502 16.1696 16.7616 15.6842C18.573 15.1988 19.7604 13.7568 19.4137 12.4628C19.0671 11.1689 17.3178 10.5139 15.5064 10.9993ZM5.69982 17.4786C5.00917 17.6646 4.29852 17.2554 4.11255 16.5647C3.92664 15.8739 4.3358 15.1632 5.02647 14.9773C5.71713 14.7913 6.42777 15.2005 6.61373 15.8912L6.61413 15.8927C6.79911 16.5831 6.38995 17.2928 5.69982 17.4786ZM4.73702 13.8851C3.44239 14.2312 2.67337 15.5613 3.01942 16.856C3.36543 18.1508 4.69544 18.9198 5.99007 18.5738C7.28468 18.2277 8.05372 16.8976 7.70766 15.6029C7.70739 15.6019 7.70713 15.6009 7.70687 15.5999C7.36026 14.3063 6.03063 13.5385 4.73702 13.8851Z" fill="white"/>
</g>
</svg>
