<svg width="60" height="60" viewBox="0 0 60 60" fill="none" xmlns="http://www.w3.org/2000/svg">
<g clip-path="url(#clip0_14726_427)">
<rect width="60" height="60" rx="30" fill="white"/>
<path d="M42.7624 16.526C42.7753 16.526 42.7925 16.526 42.8097 16.526C43.259 16.526 43.6762 16.6658 44.018 16.9066L44.0116 16.9023C44.261 17.1194 44.4287 17.4248 44.4696 17.7688V17.7752C44.5126 18.0375 44.5362 18.3386 44.5362 18.646C44.5362 18.7858 44.5319 18.9234 44.5212 19.061V19.0416C44.0374 24.1353 41.9389 36.4878 40.8724 42.1899C40.4209 44.6045 39.5329 45.413 38.6728 45.4904C36.8044 45.6646 35.3853 44.2562 33.5749 43.0693C30.741 41.2095 29.1391 40.0527 26.3891 38.2402C23.2091 36.1481 25.2711 34.9935 27.0815 33.1142C27.5567 32.6197 35.7938 25.1265 35.9551 24.4471C35.9637 24.4062 35.968 24.3611 35.968 24.3138C35.968 24.1461 35.9056 23.9934 35.8045 23.8773C35.6927 23.8042 35.553 23.7633 35.4068 23.7633C35.31 23.7633 35.2176 23.7827 35.1316 23.8149L35.1359 23.8128C34.852 23.8773 30.3253 26.8688 21.5556 32.7874C20.5988 33.5421 19.3905 34.0195 18.0746 34.0754H18.0617C16.1975 33.8496 14.5054 33.4346 12.8992 32.8433L13.0583 32.8949C11.0415 32.237 9.43966 31.8908 9.57727 30.7771C9.65037 30.198 10.4488 29.6052 11.9725 28.9989C21.3585 24.9094 27.6176 22.2138 30.7496 20.9123C34.2048 19.0782 38.2105 17.5688 42.4226 16.5905L42.7602 16.5238L42.7624 16.526ZM29.4488 -2.85742C11.5984 -2.81442 -2.85693 11.6667 -2.85693 29.5235C-2.85693 47.4062 11.6392 61.9045 29.524 61.9045C47.4088 61.9045 61.905 47.4083 61.905 29.5235C61.905 11.6667 47.4496 -2.81442 29.6036 -2.85742H29.5993C29.5491 -2.85742 29.4989 -2.85742 29.4488 -2.85742Z" fill="#29A0DC"/>
</g>
<defs>
<clipPath id="clip0_14726_427">
<rect width="60" height="60" rx="30" fill="white"/>
</clipPath>
</defs>
</svg>
