<svg width="60" height="60" viewBox="0 0 60 60" fill="none" xmlns="http://www.w3.org/2000/svg">
<g clip-path="url(#clip0_14726_429)">
<rect width="60" height="60" rx="30" fill="white"/>
<path d="M29.5925 -0.952148C12.4978 -0.952148 -1.35986 13.1187 -1.35986 30.4764C-1.35986 47.8342 12.4978 61.905 29.5925 61.905C46.6873 61.905 60.5449 47.8342 60.5449 30.4764C60.5449 13.1187 46.6873 -0.952148 29.5925 -0.952148ZM41.4963 34.5065C41.4963 34.5065 44.2336 37.2499 44.9075 38.5234C44.9268 38.5496 44.9365 38.5758 44.943 38.5889C45.217 39.0571 45.2815 39.4205 45.1461 39.6922C44.9204 40.144 44.1466 40.3666 43.8822 40.3862H39.0459C38.7106 40.3862 38.0077 40.2979 37.1565 39.702C36.502 39.2371 35.8572 38.4743 35.2284 37.7312C34.2902 36.6246 33.4777 35.6687 32.6587 35.6687C32.5547 35.6685 32.4513 35.6851 32.3524 35.7178C31.7334 35.9208 30.9402 36.8178 30.9402 39.2077C30.9402 39.9541 30.3599 40.383 29.9504 40.383H27.7354C26.9809 40.383 23.0506 40.1145 19.5685 36.3857C15.3061 31.8187 11.4693 22.6586 11.437 22.5734C11.1952 21.9809 11.6949 21.6633 12.2398 21.6633H17.1245C17.7758 21.6633 17.9886 22.066 18.1369 22.4228C18.311 22.8386 18.9494 24.4919 19.9973 26.3514C21.6964 29.383 22.7379 30.6139 23.5729 30.6139C23.7295 30.6121 23.8833 30.5716 24.0211 30.4961C25.1109 29.8806 24.9077 25.9356 24.8594 25.1172C24.8594 24.9633 24.8562 23.3526 24.2984 22.58C23.8986 22.0202 23.2183 21.8074 22.8056 21.7288C22.9726 21.4948 23.1927 21.305 23.4472 21.1755C24.1952 20.7958 25.5429 20.7401 26.881 20.7401H27.6258C29.0766 20.7598 29.4507 20.8547 29.9762 20.9889C31.0402 21.2476 31.0628 21.9449 30.9693 24.3315C30.9402 25.0092 30.9112 25.7752 30.9112 26.6788C30.9112 26.8752 30.9015 27.0848 30.9015 27.3074C30.8693 28.522 30.8306 29.9002 31.6754 30.4666C31.7855 30.5368 31.9129 30.5742 32.0429 30.5746C32.3363 30.5746 33.2197 30.5746 35.6121 26.4071C36.3499 25.0657 36.9911 23.6717 37.5305 22.2362C37.5789 22.1511 37.7207 21.8892 37.8884 21.7877C38.0121 21.7237 38.1493 21.6911 38.2882 21.6928H44.0305C44.656 21.6928 45.0848 21.7877 45.1654 22.0333C45.3073 22.4229 45.1396 23.6112 42.5184 27.2157L41.348 28.7839C38.9717 31.9464 38.9717 32.1068 41.4963 34.5065Z" fill="#0679FE"/>
</g>
<defs>
<clipPath id="clip0_14726_429">
<rect width="60" height="60" rx="30" fill="white"/>
</clipPath>
</defs>
</svg>
