<svg width="28" height="28" viewBox="0 0 28 28" fill="none" xmlns="http://www.w3.org/2000/svg">
<g clip-path="url(#clip0_21271_13315)">
<path fill-rule="evenodd" clip-rule="evenodd" d="M4.9775 4.9775C3.5 6.455 3.5 8.825 3.5 13.58V14.42C3.5 19.175 3.5 21.545 4.9775 23.0225C6.455 24.5 8.825 24.5 13.58 24.5H14.42C19.175 24.5 21.545 24.5 23.0225 23.0225C24.5 21.545 24.5 19.175 24.5 14.42V13.58C24.5 8.825 24.5 6.455 23.0225 4.9775C21.545 3.5 19.175 3.5 14.42 3.5H13.58C8.825 3.5 6.455 3.5 4.9775 4.9775ZM6.9875 10.0625C7.1075 15.5225 9.98 18.815 14.7125 18.815H14.99V15.6875C16.715 15.86 18.005 17.15 18.53 18.815H21.02C20.7737 17.8781 20.3333 17.0034 19.7274 16.2475C19.1214 15.4917 18.3634 14.8716 17.5025 14.4275C18.2728 13.9427 18.9357 13.3053 19.4504 12.5546C19.965 11.8039 20.3205 10.9558 20.495 10.0625H18.23C17.75 11.8025 16.34 13.3775 14.99 13.5275V10.0625H12.6875V16.1225C11.2925 15.7775 9.4625 14.075 9.3875 10.0625H6.9875Z" fill="#0077FF"/>
</g>
<defs>
<clipPath id="clip0_21271_13315">
<rect width="21" height="21" fill="white" transform="translate(3.5 3.5)"/>
</clipPath>
</defs>
</svg>
