<svg width="28" height="28" viewBox="0 0 28 28" fill="none" xmlns="http://www.w3.org/2000/svg">
<g clip-path="url(#clip0_21271_13312)">
<path d="M14 24.5C19.7992 24.5 24.5 19.7992 24.5 14C24.5 8.20077 19.7992 3.5 14 3.5C8.20077 3.5 3.5 8.20077 3.5 14C3.5 19.7992 8.20077 24.5 14 24.5Z" fill="#FC3F1D"/>
<path d="M17.3502 19.8804H15.2663V9.57262H14.3383C12.6413 9.57262 11.7488 10.4304 11.7488 11.6993C11.7488 13.1426 12.37 13.8074 13.6388 14.6651L14.6888 15.3654L11.6697 19.8804H9.42188L12.1341 15.85C10.5736 14.7402 9.70214 13.6466 9.70214 11.822C9.70214 9.52012 11.2941 7.96289 14.3302 7.96289H17.3494L17.3502 19.8804Z" fill="white"/>
</g>
<defs>
<clipPath id="clip0_21271_13312">
<rect width="21" height="21" fill="white" transform="translate(3.5 3.5)"/>
</clipPath>
</defs>
</svg>
