<svg width="28" height="28" viewBox="0 0 28 28" fill="none" xmlns="http://www.w3.org/2000/svg">
<path d="M22.3075 7.52539C22.8036 8.1738 23.2181 8.88422 23.5689 9.63715L14.0111 16.7679L9.99658 14.2168V11.1643L13.9898 13.6942L22.3075 7.52539Z" fill="#21A038"/>
<path d="M5.92002 14.008C5.92002 13.861 5.92002 13.7369 5.94128 13.5899L3.52126 13.4641C3.52126 13.6324 3.5 13.8202 3.5 13.9867C3.5 16.9152 4.67989 19.5709 6.58261 21.4948L8.2993 19.7587C6.83063 18.2953 5.92002 16.2668 5.92002 14.008Z" fill="url(#paint0_linear_21124_35492)"/>
<path d="M13.9392 5.85945C14.0845 5.85945 14.1585 5.84625 14.3957 5.85945L14.5287 3.42604C14.3622 3.42604 14.1761 3.40479 14.0114 3.40479C11.1148 3.40479 8.48749 4.59708 6.58301 6.52105L8.2997 8.25724C9.74888 6.77262 11.7247 5.85945 13.9392 5.85945Z" fill="url(#paint1_linear_21124_35492)"/>
<path d="M13.9893 22.1646C13.844 22.1646 13.72 22.1646 13.5747 22.1434L13.4507 24.59C13.6172 24.59 13.8032 24.6112 13.968 24.6112C16.8646 24.6112 19.4937 23.4189 21.3964 21.495L19.6797 19.7588C18.2305 21.2647 16.2233 22.1646 13.9893 22.1646Z" fill="url(#paint2_linear_21124_35492)"/>
<path d="M18.54 7.27377L20.588 5.74663C18.7881 4.28328 16.4921 3.3833 13.9888 3.3833V5.8299C15.686 5.85116 17.2574 6.37379 18.54 7.27377Z" fill="url(#paint3_linear_21124_35492)"/>
<path d="M24.5005 14.0079C24.5005 13.3595 24.4385 12.7324 24.334 12.1052L22.0787 13.7989C22.0787 13.8609 22.0787 13.9459 22.0787 14.0079C22.0787 16.4138 21.0441 18.5681 19.4106 20.0527L21.0441 21.8721C23.1558 19.9482 24.5005 17.1242 24.5005 14.0079Z" fill="#21A038"/>
<path d="M13.9886 22.1645C11.6094 22.1645 9.4781 21.1192 8.00943 19.4663L6.20947 21.1192C8.13345 23.2735 10.906 24.6111 13.9886 24.6111V22.1645Z" fill="url(#paint4_linear_21124_35492)"/>
<path d="M8.58985 7.963L6.95465 6.14355C4.8234 8.08879 3.5 10.8915 3.5 14.0077H5.92002C5.92002 11.6232 6.95465 9.44939 8.58985 7.963Z" fill="url(#paint5_linear_21124_35492)"/>
<defs>
<linearGradient id="paint0_linear_21124_35492" x1="6.32454" y1="21.1974" x2="3.83908" y2="13.9804" gradientUnits="userSpaceOnUse">
<stop offset="0.1444" stop-color="#F2E913"/>
<stop offset="0.3037" stop-color="#E7E518"/>
<stop offset="0.5823" stop-color="#CADB26"/>
<stop offset="0.891" stop-color="#A3CD39"/>
</linearGradient>
<linearGradient id="paint1_linear_21124_35492" x1="7.27328" y1="6.24486" x2="13.5532" y2="3.84086" gradientUnits="userSpaceOnUse">
<stop offset="0.0592" stop-color="#0FA8E0"/>
<stop offset="0.5385" stop-color="#0099F9"/>
<stop offset="0.9234" stop-color="#0291EB"/>
</linearGradient>
<linearGradient id="paint2_linear_21124_35492" x1="13.3093" y1="22.5304" x2="20.7922" y2="20.8315" gradientUnits="userSpaceOnUse">
<stop offset="0.1226" stop-color="#A3CD39"/>
<stop offset="0.2846" stop-color="#86C339"/>
<stop offset="0.8693" stop-color="#21A038"/>
</linearGradient>
<linearGradient id="paint3_linear_21124_35492" x1="13.4915" y1="4.94221" x2="19.7145" y2="6.87101" gradientUnits="userSpaceOnUse">
<stop offset="0.0566" stop-color="#0291EB"/>
<stop offset="0.79" stop-color="#0C8ACB"/>
</linearGradient>
<linearGradient id="paint4_linear_21124_35492" x1="6.82485" y1="21.5063" x2="13.5105" y2="24.0157" gradientUnits="userSpaceOnUse">
<stop offset="0.1324" stop-color="#F2E913"/>
<stop offset="0.2977" stop-color="#EBE716"/>
<stop offset="0.5306" stop-color="#D9E01F"/>
<stop offset="0.8023" stop-color="#BBD62D"/>
<stop offset="0.9829" stop-color="#A3CD39"/>
</linearGradient>
<linearGradient id="paint5_linear_21124_35492" x1="5.35487" y1="14.3034" x2="8.04152" y2="7.28273" gradientUnits="userSpaceOnUse">
<stop offset="0.0698" stop-color="#A3CD39"/>
<stop offset="0.2599" stop-color="#81C55F"/>
<stop offset="0.9216" stop-color="#0FA8E0"/>
</linearGradient>
</defs>
</svg>
