<svg width="28" height="28" viewBox="0 0 28 28" fill="none" xmlns="http://www.w3.org/2000/svg">
<mask id="mask0_21124_35495" style="mask-type:luminance" maskUnits="userSpaceOnUse" x="3" y="3" width="22" height="22">
<path d="M21.14 3.5H6.86C5.68389 3.5 5.09583 3.5 4.64662 3.72889C4.25148 3.93022 3.93022 4.25148 3.72889 4.64662C3.5 5.09583 3.5 5.68389 3.5 6.86V21.14C3.5 22.3161 3.5 22.9042 3.72889 23.3534C3.93022 23.7485 4.25148 24.0698 4.64662 24.2711C5.09583 24.5 5.68389 24.5 6.86 24.5H21.14C22.3161 24.5 22.9042 24.5 23.3534 24.2711C23.7485 24.0698 24.0698 23.7485 24.2711 23.3534C24.5 22.9042 24.5 22.3161 24.5 21.14V6.86C24.5 5.68389 24.5 5.09583 24.2711 4.64662C24.0698 4.25148 23.7485 3.93022 23.3534 3.72889C22.9042 3.5 22.3161 3.5 21.14 3.5Z" fill="white"/>
</mask>
<g mask="url(#mask0_21124_35495)">
<path d="M24.5 3.5H3.5V24.5H24.5V3.5Z" fill="#FF0032"/>
<path d="M17.4897 5.11499V6.08145H19.6031V9.96017H20.7843V6.08145H22.8933V5.11499H17.4897Z" fill="white"/>
<path d="M9.89169 5.11499L8.34533 8.31935L6.80331 5.11499H5.11523V9.96017H6.30075V6.4938L7.80842 9.42324H8.88655L10.3942 6.4938V9.96017H11.5755V5.11499H9.89169Z" fill="white"/>
<path d="M21.7122 21.2698C21.6821 21.4631 21.6048 21.6221 21.4802 21.7423C21.3642 21.854 21.2053 21.9356 21.0077 21.9829C20.8144 22.0258 20.5267 22.0516 20.226 22.0516C19.9124 22.0516 19.6375 22.013 19.4013 21.9313C19.1736 21.854 18.9932 21.7166 18.8686 21.5276C18.7398 21.3386 18.6753 21.0637 18.6753 20.7072V20.2132C18.6753 19.861 18.7398 19.5861 18.8686 19.3928C18.9975 19.2038 19.1736 19.0664 19.4013 18.9891C19.6332 18.9074 19.9124 18.8688 20.226 18.8688C20.5267 18.8688 20.8144 18.8946 21.0077 18.9375C21.2053 18.9848 21.3642 19.062 21.4802 19.178C21.6048 19.2983 21.6821 19.4572 21.7122 19.6505H22.8934C22.859 19.251 22.7259 18.9117 22.4897 18.6368C22.2749 18.3877 21.9742 18.2073 21.6005 18.0956C21.2397 17.9882 20.7629 17.9324 20.226 17.9324C19.659 17.9324 19.1693 18.014 18.7655 18.1729C18.3575 18.3361 18.0397 18.6068 17.8206 18.9805C17.6101 19.3369 17.5027 19.818 17.4941 20.4022V20.4581L17.5586 20.4623L17.4941 20.4666V20.4709V20.5225C17.5027 21.1067 17.6101 21.5877 17.8206 21.9442C18.0397 22.3179 18.3575 22.5886 18.7655 22.7518C19.1693 22.9107 19.659 22.9923 20.226 22.9923C20.7629 22.9923 21.2397 22.9365 21.6005 22.8291C21.9742 22.7174 22.2706 22.537 22.4897 22.2879C22.7259 22.0173 22.8633 21.6736 22.8934 21.2741H21.7122V21.2698Z" fill="white"/>
</g>
</svg>
