<svg width="12" height="12" viewBox="0 0 12 12" fill="none" xmlns="http://www.w3.org/2000/svg">
<path d="M11.3866 11.3137C11.5416 11.3137 11.6673 11.188 11.6673 11.033L11.6673 0.664301C11.6673 0.577057 11.6501 0.490662 11.6168 0.410054C11.5834 0.329445 11.5345 0.256204 11.4728 0.194513C11.4111 0.132822 11.3378 0.0838912 11.2572 0.0505172C11.1766 0.0171429 11.0902 -2.06102e-05 11.003 6.95385e-06L0.634296 7.61766e-06C0.479259 7.56498e-06 0.35358 0.125697 0.353594 0.280735L0.353663 1.04804C0.353677 1.20305 0.479347 1.32871 0.634364 1.32871L9.39894 1.32871L0.0820002 10.6457C-0.0276208 10.7553 -0.0276197 10.933 0.0820012 11.0426L0.624662 11.5853C0.734283 11.6949 0.912014 11.6949 1.02163 11.5853L10.3386 2.26835L10.3387 11.033C10.3387 11.188 10.4644 11.3137 10.6194 11.3137H11.3866Z" fill="#EFF2F5"/>
</svg>
