<svg width="24" height="24" viewBox="0 0 24 24" fill="none" xmlns="http://www.w3.org/2000/svg">
<path d="M17.8715 6.12707C17.9113 6.16688 17.9429 6.21415 17.9645 6.26618C17.9861 6.31821 17.9972 6.37398 17.9972 6.4303C17.9972 6.48662 17.9861 6.54239 17.9645 6.59442C17.9429 6.64645 17.9113 6.69372 17.8715 6.73353L12.6041 12.0009L17.8715 17.2704C17.9519 17.3508 17.9971 17.4599 17.9971 17.5736C17.9971 17.6873 17.9519 17.7964 17.8715 17.8768C17.791 17.9573 17.682 18.0024 17.5682 18.0024C17.4545 18.0024 17.3454 17.9573 17.265 17.8768L11.9977 12.6073L6.72815 17.8747C6.64773 17.9551 6.53865 18.0003 6.42492 18.0003C6.31119 18.0003 6.20212 17.9551 6.12169 17.8747C6.04127 17.7943 5.99609 17.6852 5.99609 17.5715C5.99609 17.4577 6.04127 17.3487 6.12169 17.2682L11.3912 12.0009L6.12384 6.73138C6.05362 6.64939 6.01693 6.54393 6.0211 6.43606C6.02527 6.3282 6.06998 6.22588 6.14631 6.14955C6.22264 6.07322 6.32496 6.0285 6.43283 6.02434C6.54069 6.02017 6.64616 6.05686 6.72815 6.12707L11.9977 11.3944L17.2672 6.12707C17.3475 6.04725 17.4561 6.00244 17.5693 6.00244C17.6825 6.00244 17.7912 6.04725 17.8715 6.12707Z" fill="#FAFDFF"/>
</svg>
