<svg width="4" height="7" viewBox="0 0 4 7" fill="none" xmlns="http://www.w3.org/2000/svg">
<path d="M0.739258 5.17188C1.14716 5.17208 1.47754 5.50318 1.47754 5.91113C1.47747 6.31902 1.14712 6.64921 0.739258 6.64941C0.331233 6.64941 7.18875e-05 6.31915 0 5.91113C0 5.50305 0.331188 5.17188 0.739258 5.17188ZM2.95508 5.17188C3.36316 5.17188 3.69434 5.50305 3.69434 5.91113C3.69426 6.31915 3.36311 6.64941 2.95508 6.64941C2.54724 6.64919 2.21687 6.31901 2.2168 5.91113C2.2168 5.50319 2.54719 5.1721 2.95508 5.17188ZM0.739258 2.58594C1.14716 2.58614 1.47754 2.91724 1.47754 3.3252C1.4774 3.73303 1.14708 4.06327 0.739258 4.06348C0.331274 4.06348 0.000139378 3.73316 0 3.3252C0 2.91711 0.331188 2.58594 0.739258 2.58594ZM2.95508 2.58594C3.36316 2.58594 3.69434 2.91711 3.69434 3.3252C3.6942 3.73316 3.36307 4.06348 2.95508 4.06348C2.54728 4.06325 2.21694 3.73302 2.2168 3.3252C2.2168 2.91726 2.54719 2.58617 2.95508 2.58594ZM0.739258 0C1.14716 0.000206852 1.47754 0.331316 1.47754 0.739258C1.47733 1.14702 1.14703 1.47733 0.739258 1.47754C0.331316 1.47754 0.000206857 1.14715 0 0.739258C0 0.331188 0.331188 0 0.739258 0ZM2.95508 0C3.36316 0 3.69434 0.331188 3.69434 0.739258C3.69413 1.14715 3.36303 1.47754 2.95508 1.47754C2.54732 1.47731 2.217 1.14701 2.2168 0.739258C2.2168 0.331329 2.54719 0.000227708 2.95508 0Z" fill="#6B6F73"/>
</svg>
