<svg width="16" height="19" viewBox="0 0 16 19" fill="none" xmlns="http://www.w3.org/2000/svg">
<path d="M13.0256 2.44744H3.50661C3.15683 2.44744 2.87328 2.16388 2.87328 1.8141V0.633333C2.87328 0.283553 3.15683 0 3.50661 0H15.0504C15.2836 0 15.4727 0.189035 15.4727 0.422222V18.5778C15.4727 18.811 15.2836 19 15.0504 19H3.50662C3.15683 19 2.87328 18.7164 2.87328 18.3667V17.1847C2.87328 16.8349 3.15683 16.5514 3.50661 16.5514H13.0256V2.44744Z" fill="#161616"/>
<path d="M0.116709 8.26498C0.194292 8.18858 0.289688 8.1494 0.398146 8.15058C1.70994 8.15731 3.01698 8.1684 4.25792 8.16958C4.36677 8.17077 4.46098 8.13158 4.53738 8.054C4.61496 7.9776 4.65415 7.8834 4.65415 7.77454V6.24742C4.65415 6.10254 4.72579 5.97706 4.85167 5.90502C4.97833 5.83219 5.12202 5.83219 5.2479 5.90502L8.06425 7.53071L10.8806 9.1564C11.0061 9.22804 11.0781 9.35392 11.0781 9.49879C11.0781 9.64485 11.0065 9.76915 10.8806 9.84198L8.06425 11.4677L5.2479 13.0934C5.12242 13.165 4.97873 13.165 4.85167 13.0934C4.72619 13.0205 4.65415 12.8958 4.65415 12.7502V11.3644C4.65415 11.1466 4.47681 10.9681 4.2591 10.9681C3.02133 10.965 1.70994 10.9503 0.393792 10.9412C0.176085 10.94 -6.19888e-05 10.7627 -6.19888e-05 10.545V8.54562C0.000333786 8.43677 0.0395212 8.34256 0.116709 8.26498Z" fill="#161616"/>
</svg>
