<svg width="24" height="24" viewBox="0 0 24 24" fill="none" xmlns="http://www.w3.org/2000/svg">
<path d="M6.77539 16.2246C6.74345 17.8193 8.0099 19.1377 9.60449 19.1699C8.00981 19.1381 6.69128 20.4054 6.65918 22C6.69128 20.4053 5.42379 19.0868 3.8291 19.0547C5.42379 19.0868 6.74329 17.8193 6.77539 16.2246ZM16.7119 12.0742C16.6753 14.627 18.715 16.7266 21.2676 16.7637C18.7149 16.7272 16.616 18.7667 16.5791 21.3193C16.616 18.7667 14.5761 16.6669 12.0234 16.6299C14.5761 16.6667 16.675 14.6269 16.7119 12.0742ZM10.1152 2C10.0191 5.83349 13.0491 9.01991 16.8828 9.11621C13.0493 9.02005 9.86315 12.0492 9.7666 15.8828C9.86276 12.0493 6.83359 8.86317 3 8.7666C6.83348 8.86275 10.0189 5.83373 10.1152 2Z" fill="#1B1C1F"/>
</svg>
