<svg width="18" height="18" viewBox="0 0 18 18" fill="none" xmlns="http://www.w3.org/2000/svg">
<path d="M8.33401 17.5237L7.28361 14.4251C6.7035 12.7138 5.35311 11.3191 3.57484 10.7163L0.476204 9.66596C-0.158788 9.4507 -0.158682 8.54919 0.476204 8.33396L3.57484 7.28356C5.28617 6.70348 6.68082 5.35303 7.28361 3.57479L8.33401 0.476191C8.54927 -0.158801 9.45078 -0.15866 9.66601 0.476191L10.7164 3.57479C11.2965 5.28613 12.6469 6.68077 14.4252 7.28356L17.5238 8.33396C18.1588 8.54922 18.1587 9.45073 17.5238 9.66596L14.4252 10.7163C12.7139 11.2964 11.3192 12.6469 10.7164 14.4251L9.66601 17.5237C9.45074 18.1588 8.5492 18.1585 8.33401 17.5237Z" fill="white"/>
</svg>
