<svg width="16" height="16" viewBox="0 0 16 16" fill="none" xmlns="http://www.w3.org/2000/svg">
<path d="M8.57812 1.33325C8.78307 1.33325 8.94922 1.4994 8.94922 1.70435C8.94922 1.90929 8.78307 2.07544 8.57812 2.07544H8.37109V2.97974C9.63154 3.06298 10.7569 3.56515 11.6299 4.32837L11.9795 3.97876C12.1243 3.83391 12.3599 3.83374 12.5049 3.97876C12.6493 4.12354 12.6497 4.35817 12.5049 4.50317L12.1543 4.85278C13.0316 5.85625 13.5156 7.13469 13.5156 8.48364C13.5156 11.5457 11.0349 14.0001 8 14.0002C4.95495 14.0002 2.48349 11.5361 2.4834 8.48364C2.4834 7.16549 2.9476 5.87896 3.84473 4.85278L3.49512 4.50317C3.35051 4.35852 3.34987 4.12398 3.49512 3.97876C3.64007 3.83384 3.87464 3.83384 4.01953 3.97876L4.36914 4.32837C5.28319 3.52935 6.41934 3.05957 7.62891 2.97974V2.07544H7.4209C7.21598 2.07541 7.0498 1.90927 7.0498 1.70435C7.0498 1.49942 7.21598 1.33329 7.4209 1.33325H8.57812ZM8 4.26294C5.67295 4.26294 3.7793 6.15656 3.7793 8.48364C3.77938 10.8107 5.67297 12.7034 8 12.7034C10.3269 12.7032 12.2197 10.8105 12.2197 8.48364C12.2197 6.1567 10.3269 4.26312 8 4.26294ZM8 6.31079C8.20464 6.311 8.37089 6.47724 8.37109 6.68188V7.95825C8.43056 8.00046 8.48221 8.05305 8.52441 8.11255H10.4619C10.6669 8.11255 10.833 8.2787 10.833 8.48364C10.8329 8.68852 10.6668 8.85474 10.4619 8.85474H8.52441C8.40435 9.02399 8.20984 9.12609 8 9.12622C7.64506 9.12622 7.35652 8.83792 7.35645 8.48364C7.35645 8.27402 7.45939 8.07849 7.62891 7.95825V6.68188C7.62911 6.47711 7.79518 6.31079 8 6.31079Z" fill="#78797B"/>
</svg>
