<svg width="18" height="18" viewBox="0 0 18 18" fill="none" xmlns="http://www.w3.org/2000/svg">
<path d="M7.80127 8C10.0104 8 11.8013 6.20914 11.8013 4C11.8013 1.79086 10.0104 0 7.80127 0C5.59213 0 3.80127 1.79086 3.80127 4C3.80127 6.20914 5.59213 8 7.80127 8Z" fill="#EFF2F5"/>
<path d="M0.048283 16.0202C0.929313 12.5595 4.06647 10 7.80143 10C11.5364 10 14.6735 12.5595 15.5545 16.0202C15.8271 17.0907 14.906 18 13.8014 18H1.80143C0.696863 18 -0.224217 17.0907 0.048283 16.0202Z" fill="#EFF2F5"/>
<path d="M14.8013 5C15.3536 5 15.8013 5.44772 15.8013 6V7H16.8013C17.3536 7 17.8013 7.4477 17.8013 8C17.8013 8.5523 17.3536 9 16.8013 9H15.8013V10C15.8013 10.5523 15.3536 11 14.8013 11C14.249 11 13.8013 10.5523 13.8013 10V9H12.8013C12.249 9 11.8013 8.5523 11.8013 8C11.8013 7.4477 12.249 7 12.8013 7H13.8013V6C13.8013 5.44772 14.249 5 14.8013 5Z" fill="#EFF2F5"/>
</svg>
